<?xml version="1.0" encoding="UTF-8"?>
<!-- Generator: Adobe Illustrator 27.8.0, SVG Export Plug-In . SVG Version: 6.00 Build 0)  -->
<svg xmlns="http://www.w3.org/2000/svg" xmlns:xlink="http://www.w3.org/1999/xlink" version="1.1" id="Ebene_1" x="0px" y="0px" viewBox="0 0 324 324" style="enable-background:new 0 0 324 324;" xml:space="preserve">
<style type="text/css">
	.st0{fill:#E40039;}
	.st1{clip-path:url(#SVGID_00000036212160527097229150000006497622750581748118_);}
	.st2{fill:#FFFFFF;}
	.st3{fill:#FFD800;}
</style>
<circle class="st0" cx="162" cy="162" r="162"></circle>
<g id="Gruppe_61_00000151513889273279697610000016640771355162046869_" transform="translate(0.155 -0.371)">
	<g>
		<defs>
			<rect id="SVGID_1_" x="10.6" y="12.2" width="302.5" height="300.3"></rect>
		</defs>
		<clipPath id="SVGID_00000056413868551157571860000001975430086107334318_">
			<use xlink:href="#SVGID_1_" style="overflow:visible;"></use>
		</clipPath>
		
			<g id="Gruppe_60_00000153694483825700701750000010012621782146905993_" transform="translate(0 0)" style="clip-path:url(#SVGID_00000056413868551157571860000001975430086107334318_);">
			<path id="Pfad_203_00000075155349566108179220000016213937127487004336_" class="st2" d="M193.9,100.2c1-2.2,1.4-4.7,1.3-7.1     c-0.5-5.9-2.9-3-5.2-3.3c-4.2-0.6-5.6-4.4-6.3-8.1c-0.9-4.7,1.7-6.2,4.2-9.8c0.5-0.7,1.4-1.1,2.2-0.8c0-0.1,0-0.1,0.1-0.2     c0.6-0.9,1.8-1.3,2.7-0.7c0.1,0.1,0.3,0.2,0.4,0.3c1.5,1.9,3.6,3.4,5.9,4.1l0.5,0.1c0-0.1-0.1-0.3-0.1-0.4     c-0.2,0-0.4-0.1-0.6-0.2c-1.4-1.6-2.8-3.3-4-5c-0.3-0.3-3.8-3-3.9-0.9c0,0.6-0.1,1.2-0.2,1.7c-0.2,0.5-0.8,0.8-1.3,0.6     c-0.1,0-0.2-0.1-0.3-0.2c-0.3-0.2-0.5-0.5-0.8-0.7c-0.5,0.1-1.1-0.3-1.2-0.8c0,0,0-0.1,0-0.1c-0.1-0.7,0-1.4,0-2.1     c0-0.3,0.2-0.5,0.5-0.6c-0.2-1.1,0.4-2.2,1.4-2.6c1.1-0.5,4.2-0.7,3-2.4c-0.3-0.3-0.2-0.8,0.1-1.1c0,0,0,0,0,0     c-3.3-4.1-7.5-7.5-12.2-9.9c-0.3,0.4-0.6,0.7-1,1c-2.4,1.4-6.4-0.3-4.8,4.4c0.1,0.5-0.2,1.1-0.7,1.2c-0.2,0-0.3,0-0.5,0     c-5.3-1.8-7.6-5.7-8.9-10.8c-0.6,0-1.1,0-1.7,0c-6.1,0-12.1,1.4-17.6,4.2c0,0.4-0.2,0.8-0.4,1.1c-0.9,1-1.9,2-2.9,2.9     c0.4,0,0.8-0.1,1.2-0.1c2-0.1,3.1-0.5,3.1-2.7c0-0.6,0.5-1,1-1c0.4,0,0.8,0.3,0.9,0.7c0.1,0.8,0.6,1.4,1.3,1.8     c0.5,0.1,0.8,0.7,0.7,1.2c-0.7,2.1-3.8,1.8-3.9,4c0,0.3-0.1,0.5-0.3,0.7c0.3,0.7,0.7,1.2,0.9,1.3c1.2,0.1,2.3,0.4,3.4,0.9     c1,1.3,2.8,1.7,4.3,1c-0.1-0.8-0.2-1.5-0.3-2.3c-0.1-0.9,0-1.9,0.2-2.8c0.3-1.1,1.4-1.7,2.5-1.3c0.1,0,0.3,0.1,0.4,0.2     c1.2,0.4,2.4,0.7,3.6,1.1c1.1-0.3,2.2,0.4,2.4,1.4c0,0.1,0.1,0.3,0.1,0.5c0.3,0.7,0.7,1.4,1,2.1c0.1,0.1,0.3,0.2,0.4,0.3     c2.5,0.7,5.2,2.6,3.5,5.1c-0.7,1-2.4,0.1-1.7-1c0.1-0.1,0.2-0.3,0.2-0.5c-0.1,0-0.2-0.1-0.3-0.1c-0.5-0.3-1.1-0.5-1.7-0.6     c-0.2,0.2-0.5,0.3-0.7,0.4c-0.8,0.2-1.5,0.4-2.3,0.5c0.2,0,0.5,0,0.7,0.1c0.4,0.1,0.7,0.5,0.7,0.9c0,0.3,0,0.6,0.1,0.9     c0.4-0.3,0.9-0.3,1.3,0.1c0.4,0.4,0.4,1,0,1.4c0,0,0,0,0,0c-0.7,0.6-1.5,1.1-2.2,1.8c-0.4,0.4-1,0.4-1.4,0     c-0.2-0.2-0.3-0.4-0.3-0.7c0-0.3,0.1-0.6,0.1-1c-0.1,0-0.2-0.1-0.3-0.2c-0.6-0.4-0.2-1.5-0.2-1.5c0,0-0.1,0.2-0.2,0.3     c-0.1,0.6-0.4,1.1-0.9,1.4c-1.6,1-3,2.3-4.1,3.8c0.3,0.2,0.4,0.6,0.3,0.9c-0.6,1.4-1.5,2.7-2.6,3.6c-0.6,0.5-1.1,1.1-1.4,1.9     c-0.2,0.6,0.2,1,0,1.6c-0.1,0.4-0.3,0.7-1,0.7c-1,0.2-1.8-0.9-1.1-1.6c0-0.1,0-0.1,0-0.2c0-0.2,0-0.4,0-0.6     c-2.7,1-6.7-0.7-7.1,4.1c0,0.4-0.2,0.8-0.4,1.1c0.9,1.6,2.9,0.9,4.2,0c0.8-0.5,1.6,0.3,1.5,1.1c-0.3,1.6,1.3,1.8,2.3,2.6     c0.6,0.6,0.8,1.5,0.6,2.3c0,0,0,0.1,0,0.1c0.9,1,2,1.9,3,2.8c0.4-0.5,1-0.8,1.6-0.7c2.7,0,5.4,0.7,7.7,2.2     c0.1,0.1,0.1,0.1,0.2,0.2c1.7,0.5,3.2,1.5,4.2,3c0.1,0.1,0.1,0.2,0.2,0.3c0.8,0.7,1.6,1.3,2.5,1.8c1.5,0.5,3.2,0.7,4.8,0.6     c1.1,0,2,0.9,2,2c0,0.3-0.1,0.7-0.2,0.9c-1,1.7-2,3.3-3.2,4.8c0,0.4-0.1,0.7-0.3,1.1c-0.5,0.8-1.1,1.5-1.8,2.2     c-0.4,0.4-1,0.6-1.5,0.6c-2,2.2-4.4,4-7.1,5.3c0,0-0.1,0-0.1,0c-1.1,1.3-2.1,2.7-3,4.1c1.3,0.1,2.5,0.2,3.8,0.2     c11.9,0,23.1-5.5,30.4-14.9C192.8,104,193.1,102,193.9,100.2 M154.5,119.4c-0.2-0.3-0.4-0.7-0.4-1c-0.1-1,0-1.9,0.2-2.9     c-0.9-2.6-1.2-5.3-0.8-8c-1.1-0.7-2.2-1.6-3.1-2.5c-3.4-3.5-2-7.5,0.1-11.4c0.1-0.2,0.2-0.4,0.4-0.5c-0.8-0.7-1.6-1.4-2.3-2.2     c-1.1-1.2-2.1-2.7-3.8-3.1c-1.1-0.2-2.1-0.6-3-1.3c-0.4-0.3-0.7-0.6-1-1c-0.1-0.1-0.1-0.1-0.2-0.2c-0.9,0.5-2,0.3-2.6-0.5     c-1.6-1.6-2.6-3.5-3.1-5.7c-0.3-0.4-0.7-0.9-1.1-1.3c-0.3-0.3-0.5-0.7-0.5-1.1c-1.6-0.6-3-1.1-2.4-3.9c0.1-2.1,0.4-4.3,0.8-6.4     c0.1-0.1,0.1-0.3,0.1-0.4c-0.8-0.1-1.6-0.4-2.3-1c-3.1,5.5-4.7,11.8-4.7,18.2c0.1,17.8,12.5,33,29.9,36.7     C154.5,119.7,154.5,119.6,154.5,119.4"></path>
			<path id="Pfad_204_00000113331996465397449690000008161715056685579667_" class="st3" d="M122.8,147.8c12.3,6,16.5-3.3,16.5-3.3     c-2.2-1.2-4.6-1.9-7.1-1.9C128.4,142.6,124.8,144.5,122.8,147.8"></path>
			<path id="Pfad_205_00000178900211184960386610000014773968194950193577_" class="st3" d="M133.5,153.3c13,4.5,16-5.4,16-5.4     c-2.3-0.9-4.8-1.3-7.3-1C138.4,147.5,135.1,149.9,133.5,153.3"></path>
			<path id="Pfad_206_00000091011277338627327100000013926035049377003157_" class="st3" d="M146.7,156.6     c13.6,1.1,14.3-9.1,14.3-9.1c-2.5-0.3-5,0-7.3,0.8C150.1,149.7,147.5,152.8,146.7,156.6"></path>
			<path id="Pfad_207_00000151509495103060637640000002970230839478149804_" class="st3" d="M139.2,144.9     c3.4-12.4-6.4-15.9-6.4-15.9C129.4,142.5,139.2,144.9,139.2,144.9"></path>
			<path id="Pfad_208_00000015327537429524243210000013606049859185351596_" class="st3" d="M149.4,148.5     c1.8-12.8-8.3-14.9-8.3-14.9C139.4,147.3,149.4,148.5,149.4,148.5"></path>
			<path id="Pfad_209_00000079444770171319767580000006818966779444583334_" class="st3" d="M161.1,147.9     c-1.2-12.8-11.6-12.4-11.6-12.4C151,149.3,161.1,147.9,161.1,147.9"></path>
			<path id="Pfad_210_00000163759437536254236830000009959025990520963254_" class="st3" d="M112.5,140.2     c11.1,8.1,16.9-0.4,16.9-0.4c-2.4-2-5.5-3.2-8.7-3.3C117.6,136.6,114.6,137.9,112.5,140.2"></path>
			<path id="Pfad_211_00000076567792885023841320000007935324582585157003_" class="st3" d="M129.2,140.3     c5.4-11.7-3.6-16.7-3.6-16.7C119.9,136.2,129.2,140.3,129.2,140.3"></path>
			<path id="Pfad_212_00000088854939268488348520000012448847741795821959_" class="st3" d="M103.7,130.9c9.6,10,16.7,2.6,16.7,2.6     c-2.4-3-6-4.8-9.8-5C108.1,128.6,105.7,129.4,103.7,130.9"></path>
			<path id="Pfad_213_00000072965822817133325390000018381150028271290502_" class="st3" d="M120.1,134c7.3-10.5-0.7-17.1-0.7-17.1     C111.7,128.3,120.1,134,120.1,134"></path>
			<path id="Pfad_214_00000091700748462463741270000011540367570655174037_" class="st3" d="M96.6,120.3c7.7,11.5,16,5.5,16,5.5     c-3.5-5.5-7.6-6.8-10.7-6.8C100,119,98.2,119.4,96.6,120.3"></path>
			<path id="Pfad_215_00000028323736080561692700000016138910921887680439_" class="st3" d="M112.3,126.1c9-9.1,2.2-17,2.2-17     C104.9,119.1,112.3,126.1,112.3,126.1"></path>
			<path id="Pfad_216_00000084520617040922312260000004568559944353236647_" class="st3" d="M91.5,108.5c5.6,12.7,14.8,8.3,14.8,8.3     c-3.1-7.4-8.1-8.8-11.4-8.8C93.7,108,92.6,108.2,91.5,108.5"></path>
			<path id="Pfad_217_00000076581202948164239150000016515841344801178019_" class="st3" d="M105.9,117c10.4-7.3,5.1-16.4,5.1-16.4     C99.8,108.8,105.9,117,105.9,117"></path>
			<path id="Pfad_218_00000021814459963121309690000002572212489284861070_" class="st3" d="M88.4,96c3.4,13.5,13.1,10.8,13.1,10.8     c-2.3-9.8-9-10.8-11.8-10.8C89.3,95.9,88.8,95.9,88.4,96"></path>
			<path id="Pfad_219_00000178920949635058813660000004579883813714531259_" class="st3" d="M101.1,106.9     c11.5-5.4,7.8-15.2,7.8-15.2C96.5,97.8,101.1,106.9,101.1,106.9"></path>
			<path id="Pfad_220_00000021805774087425275790000006482909257811076235_" class="st3" d="M98.6,96.1     c-0.7-12.9-11.1-12.9-11.1-12.9C88.5,97,98.6,96.1,98.6,96.1"></path>
			<path id="Pfad_221_00000006677423807932465320000003607457432584579508_" class="st3" d="M98.1,96.2     c12.3-3.3,10.3-13.6,10.3-13.6C95.2,86.3,98.1,96.2,98.1,96.2"></path>
			<path id="Pfad_222_00000145021586318664021080000012148247875481820332_" class="st3" d="M97.5,85c1.5-12.8-8.7-14.7-8.7-14.7     C87.5,84.2,97.5,85,97.5,85"></path>
			<path id="Pfad_223_00000064354619157997063760000013275536831297649086_" class="st3" d="M97.1,85c12.6-1,12.4-11.6,12.4-11.6     C95.9,74.8,97.1,85,97.1,85"></path>
			<path id="Pfad_224_00000059999950071705640000000004483454568425822619_" class="st3" d="M98.4,73.9c3.6-12.4-6.1-16-6.1-16     C88.6,71.3,98.4,73.9,98.4,73.9"></path>
			<path id="Pfad_225_00000118390249198743331700000017315548887588163992_" class="st3" d="M97.9,73.9c12.6,1.2,14.2-9.2,14.2-9.2     c-0.7-0.1-1.3-0.1-1.9-0.1C98.4,64.6,97.9,73.9,97.9,73.9"></path>
			<path id="Pfad_226_00000128451405058556608680000008320706503521478305_" class="st3" d="M102.4,51.7c-3.2,3.4-4,8.5-1.9,12.7     c12.5-6.6,7.8-17.3,7.8-17.3C106,48.3,104.1,49.8,102.4,51.7"></path>
			<path id="Pfad_227_00000059994681794086701000000006342681588290417044_" class="st3" d="M201.4,147.8c-12.3,6-16.5-3.3-16.5-3.3     c2.2-1.2,4.6-1.9,7.1-1.9C195.8,142.6,199.3,144.5,201.4,147.8"></path>
			<path id="Pfad_228_00000050638130961035798630000006131256333935042716_" class="st3" d="M190.7,153.3c-13,4.5-16-5.4-16-5.4     c2.3-0.9,4.8-1.3,7.3-1C185.7,147.5,189,149.9,190.7,153.3"></path>
			<path id="Pfad_229_00000049216171784382275150000011712123531498033559_" class="st3" d="M177.4,156.6     c-13.6,1.1-14.3-9.1-14.3-9.1c2.5-0.3,5,0,7.3,0.8C174,149.7,176.6,152.8,177.4,156.6"></path>
			<path id="Pfad_230_00000134931794579436340440000016999936589858467252_" class="st3" d="M185,144.9c-3.4-12.4,6.4-15.9,6.4-15.9     C194.8,142.5,185,144.9,185,144.9"></path>
			<path id="Pfad_231_00000146472187796571180810000009594713934077498546_" class="st3" d="M174.7,148.5     c-1.8-12.8,8.3-14.9,8.3-14.9C184.8,147.3,174.7,148.5,174.7,148.5"></path>
			<path id="Pfad_232_00000060740941402846161340000009011685085709701009_" class="st3" d="M163.1,147.9     c1.3-12.8,11.6-12.4,11.6-12.4C173.1,149.3,163.1,147.9,163.1,147.9"></path>
			<path id="Pfad_233_00000137846404054910924700000015548526703674492579_" class="st3" d="M211.6,140.2     c-11.1,8.1-16.9-0.4-16.9-0.4c2.4-2,5.5-3.2,8.7-3.3C206.6,136.6,209.5,137.9,211.6,140.2"></path>
			<path id="Pfad_234_00000149341135487293462970000008982908568801585818_" class="st3" d="M195,140.3c-5.4-11.7,3.6-16.7,3.6-16.7     C204.3,136.2,195,140.3,195,140.3"></path>
			<path id="Pfad_235_00000023963899250039680330000003132120060157555902_" class="st3" d="M220.4,130.9c-9.6,10-16.7,2.6-16.7,2.6     c2.4-3,6-4.8,9.8-5C216.1,128.6,218.5,129.4,220.4,130.9"></path>
			<path id="Pfad_236_00000091708593215672138510000005424373933893502356_" class="st3" d="M204,134c-7.3-10.5,0.7-17.1,0.7-17.1     C212.5,128.3,204,134,204,134"></path>
			<path id="Pfad_237_00000181081819352783041930000002837675604498934457_" class="st3" d="M227.5,120.3c-7.7,11.5-16,5.5-16,5.5     c3.5-5.5,7.6-6.8,10.7-6.8C224.1,119,225.9,119.4,227.5,120.3"></path>
			<path id="Pfad_238_00000004536406818270320810000004736457216922091169_" class="st3" d="M211.9,126.1c-9-9.1-2.2-17-2.2-17     C219.3,119.1,211.9,126.1,211.9,126.1"></path>
			<path id="Pfad_239_00000183971549725701530470000003690641052186034597_" class="st3" d="M232.7,108.5     c-5.6,12.7-14.8,8.3-14.8,8.3c3.1-7.4,8.1-8.8,11.4-8.8C230.5,108,231.6,108.1,232.7,108.5"></path>
			<path id="Pfad_240_00000162344841504718798550000005959221757934302618_" class="st3" d="M218.3,117c-10.4-7.3-5.1-16.4-5.1-16.4     C224.3,108.8,218.3,117,218.3,117"></path>
			<path id="Pfad_241_00000007394563679570401150000011276327209702460050_" class="st3" d="M235.8,96     c-3.4,13.5-13.1,10.8-13.1,10.8c2.3-9.8,9-10.8,11.8-10.8C234.9,95.9,235.3,95.9,235.8,96"></path>
			<path id="Pfad_242_00000178178848297928953300000009536866795083255709_" class="st3" d="M223,106.9c-11.5-5.4-7.8-15.2-7.8-15.2     C227.6,97.8,223,106.9,223,106.9"></path>
			<path id="Pfad_243_00000066512453070736494420000006537575928666048417_" class="st3" d="M225.6,96.1     c0.7-12.9,11.1-12.9,11.1-12.9C235.6,97,225.6,96.1,225.6,96.1"></path>
			<path id="Pfad_244_00000116225681240978651620000017708192315575251383_" class="st3" d="M226,96.2     c-12.3-3.3-10.3-13.6-10.3-13.6C228.9,86.3,226,96.2,226,96.2"></path>
			<path id="Pfad_245_00000117663526686170547480000017960271144402722738_" class="st3" d="M226.6,85c-1.5-12.8,8.7-14.7,8.7-14.7     C236.7,84.2,226.6,85,226.6,85"></path>
			<path id="Pfad_246_00000165220014966302290670000012504436644227887526_" class="st3" d="M227.1,85c-12.6-1-12.4-11.6-12.4-11.6     C228.3,74.8,227.1,85,227.1,85"></path>
			<path id="Pfad_247_00000014632093766379824970000005007620463655629184_" class="st3" d="M225.8,73.9c-3.6-12.4,6.1-16,6.1-16     C235.6,71.3,225.8,73.9,225.8,73.9"></path>
			<path id="Pfad_248_00000098184574186420592560000015595294930995190147_" class="st3" d="M226.2,73.9     c-12.6,1.2-14.2-9.2-14.2-9.2c0.7-0.1,1.3-0.1,1.9-0.1C225.7,64.6,226.2,73.9,226.2,73.9"></path>
			<path id="Pfad_249_00000138561328627515543820000015304383933292685982_" class="st3" d="M221.8,51.7c3.2,3.4,4,8.5,1.9,12.7     c-12.5-6.6-7.8-17.3-7.8-17.3C218.1,48.3,220.1,49.8,221.8,51.7"></path>
			<path id="Pfad_250_00000139254298936838979090000004075720672155763368_" class="st3" d="M122.8,147.8c12.3,6,16.5-3.3,16.5-3.3     c-2.2-1.2-4.6-1.9-7.1-1.9C128.4,142.6,124.9,144.5,122.8,147.8"></path>
			<path id="Pfad_251_00000134943331362388944380000015524248815816009656_" class="st3" d="M133.5,153.3c13,4.5,16-5.4,16-5.4     c-2.3-0.9-4.8-1.3-7.3-1C138.4,147.5,135.2,149.9,133.5,153.3"></path>
			<path id="Pfad_252_00000081641132160791369610000004773442375060652964_" class="st3" d="M146.8,156.6     c13.6,1.1,14.3-9.1,14.3-9.1c-2.5-0.3-5,0-7.3,0.8C150.2,149.7,147.6,152.8,146.8,156.6"></path>
			<path id="Pfad_253_00000123409563615072619900000004136555126629069202_" class="st3" d="M139.2,144.9     c3.4-12.4-6.4-15.9-6.4-15.9C129.4,142.5,139.2,144.9,139.2,144.9"></path>
			<path id="Pfad_254_00000077322074424300982150000003015925704542342273_" class="st3" d="M149.5,148.5     c1.8-12.8-8.3-14.9-8.3-14.9C139.4,147.3,149.5,148.5,149.5,148.5"></path>
			<path id="Pfad_255_00000149371607706327989540000012599282197476944568_" class="st3" d="M161.1,147.9     c-1.2-12.8-11.6-12.4-11.6-12.4C151.1,149.3,161.1,147.9,161.1,147.9"></path>
			<path id="Pfad_256_00000010301526506104596100000015701746141336316321_" class="st3" d="M112.6,140.2     c11.1,8.1,16.9-0.4,16.9-0.4c-2.4-2-5.5-3.2-8.7-3.3C117.6,136.6,114.7,137.9,112.6,140.2"></path>
			<path id="Pfad_257_00000109008987571601666730000015734910312815568529_" class="st3" d="M129.2,140.3     c5.4-11.7-3.6-16.7-3.6-16.7C119.9,136.2,129.2,140.3,129.2,140.3"></path>
			<path id="Pfad_258_00000093876038115595922070000016176380336252510602_" class="st3" d="M103.8,130.9c9.6,10,16.7,2.6,16.7,2.6     c-2.4-3-6-4.8-9.8-5C108.1,128.6,105.7,129.4,103.8,130.9"></path>
			<path id="Pfad_259_00000155134262853283003010000015031744444700076698_" class="st3" d="M120.1,134c7.3-10.5-0.7-17.1-0.7-17.1     C111.7,128.3,120.1,134,120.1,134"></path>
			<path id="Pfad_260_00000040566729958664023400000016642727479283573923_" class="st3" d="M96.7,120.3c7.7,11.5,16,5.5,16,5.5     c-3.5-5.5-7.6-6.8-10.7-6.8C100.1,119,98.3,119.4,96.7,120.3"></path>
			<path id="Pfad_261_00000031169324966619904580000002717926395805930128_" class="st3" d="M112.3,126.1c9-9.1,2.2-17,2.2-17     C104.9,119.1,112.3,126.1,112.3,126.1"></path>
			<path id="Pfad_262_00000023962110257307429390000014303027359750210696_" class="st3" d="M91.5,108.5c5.6,12.7,14.8,8.3,14.8,8.3     c-3.1-7.4-8.1-8.8-11.4-8.8C93.7,108,92.6,108.1,91.5,108.5"></path>
			<path id="Pfad_263_00000103966034480979173000000016327650494764138937_" class="st3" d="M105.9,117c10.4-7.3,5.1-16.4,5.1-16.4     C99.8,108.8,105.9,117,105.9,117"></path>
			<path id="Pfad_264_00000177472809806612950170000000942018632747547532_" class="st3" d="M88.4,96c3.4,13.5,13.1,10.8,13.1,10.8     c-2.3-9.8-9-10.8-11.8-10.8C89.3,95.9,88.9,95.9,88.4,96"></path>
			<path id="Pfad_265_00000155110410981893184040000004029066416959626146_" class="st3" d="M101.1,106.9     c11.5-5.4,7.8-15.2,7.8-15.2C96.6,97.8,101.1,106.9,101.1,106.9"></path>
			<path id="Pfad_266_00000170261965683849595960000001545888243729567927_" class="st3" d="M98.6,96.1     c-0.7-12.9-11.1-12.9-11.1-12.9C88.6,97,98.6,96.1,98.6,96.1"></path>
			<path id="Pfad_267_00000018211072060943268390000003212127149092930959_" class="st3" d="M98.2,96.2     c12.3-3.3,10.3-13.6,10.3-13.6C95.3,86.3,98.2,96.2,98.2,96.2"></path>
			<path id="Pfad_268_00000109749560150909450340000003935470106840582329_" class="st3" d="M97.6,85c1.5-12.8-8.7-14.7-8.7-14.7     C87.5,84.2,97.6,85,97.6,85"></path>
			<path id="Pfad_269_00000083047912141499408270000003588301747201229978_" class="st3" d="M97.1,85c12.6-1,12.4-11.6,12.4-11.6     C95.9,74.8,97.1,85,97.1,85"></path>
			<path id="Pfad_270_00000137133332607067160340000010700467828317077651_" class="st3" d="M98.4,73.9c3.6-12.4-6.1-16-6.1-16     C88.6,71.3,98.4,73.9,98.4,73.9"></path>
			<path id="Pfad_271_00000114761850301766692350000009080407058324717233_" class="st3" d="M98,73.9c12.6,1.2,14.2-9.2,14.2-9.2     c-0.7-0.1-1.3-0.1-1.9-0.1C98.5,64.6,98,73.9,98,73.9"></path>
			<path id="Pfad_272_00000150067559380861757400000013426147251675373454_" class="st3" d="M102.4,51.7c-3.2,3.4-4,8.5-1.9,12.7     c12.5-6.6,7.8-17.3,7.8-17.3C106.1,48.3,104.1,49.8,102.4,51.7"></path>
			<path id="Pfad_273_00000125594580028581210920000017948124204216243639_" class="st3" d="M201.4,147.8c-12.3,6-16.5-3.3-16.5-3.3     c2.2-1.2,4.6-1.9,7.1-1.9C195.8,142.6,199.4,144.5,201.4,147.8"></path>
			<path id="Pfad_274_00000026868487026209810120000012577511720415589771_" class="st3" d="M190.7,153.3c-13,4.5-16-5.4-16-5.4     c2.3-0.9,4.8-1.3,7.3-1C185.8,147.5,189.1,149.9,190.7,153.3"></path>
			<path id="Pfad_275_00000140005613516812624610000009104259862537461176_" class="st3" d="M177.4,156.6     c-13.6,1.1-14.3-9.1-14.3-9.1c2.5-0.3,5,0,7.3,0.8C174.1,149.7,176.7,152.8,177.4,156.6"></path>
			<path id="Pfad_276_00000152226474021184054530000000784958701211309998_" class="st3" d="M185,144.9c-3.4-12.4,6.4-15.9,6.4-15.9     C194.8,142.5,185,144.9,185,144.9"></path>
			<path id="Pfad_277_00000093159182570789717200000002703134167927488389_" class="st3" d="M174.8,148.5     c-1.8-12.8,8.3-14.9,8.3-14.9C184.8,147.3,174.8,148.5,174.8,148.5"></path>
			<path id="Pfad_278_00000051342678482576181690000003640773911045770677_" class="st3" d="M163.1,147.9     c1.3-12.8,11.6-12.4,11.6-12.4C173.1,149.3,163.1,147.9,163.1,147.9"></path>
			<path id="Pfad_279_00000103982827915522049600000011285839228778772361_" class="st3" d="M211.7,140.2     c-11.1,8.1-16.9-0.4-16.9-0.4c2.4-2,5.5-3.2,8.7-3.3C206.6,136.6,209.6,137.9,211.7,140.2"></path>
			<path id="Pfad_280_00000087395987581659930480000005656262303379661696_" class="st3" d="M195,140.3c-5.4-11.7,3.6-16.7,3.6-16.7     C204.3,136.2,195,140.3,195,140.3"></path>
			<path id="Pfad_281_00000116931332927281720430000003970336760521146766_" class="st3" d="M220.5,130.9c-9.6,10-16.7,2.6-16.7,2.6     c2.4-3,6-4.8,9.8-5C216.1,128.6,218.5,129.4,220.5,130.9"></path>
			<path id="Pfad_282_00000094607603168127529110000017572647579366664608_" class="st3" d="M204.1,134c-7.3-10.5,0.7-17.1,0.7-17.1     C212.5,128.3,204.1,134,204.1,134"></path>
			<path id="Pfad_283_00000153663977090304935450000006852866171876769408_" class="st3" d="M227.6,120.3c-7.7,11.5-16,5.5-16,5.5     c3.5-5.5,7.6-6.8,10.7-6.8C224.2,119,226,119.4,227.6,120.3"></path>
			<path id="Pfad_284_00000026124338385707685560000001873406884851219081_" class="st3" d="M211.9,126.1c-9-9.1-2.2-17-2.2-17     C219.3,119.1,211.9,126.1,211.9,126.1"></path>
			<path id="Pfad_285_00000109743467574194833190000017213688568437583245_" class="st3" d="M232.7,108.5     c-5.6,12.7-14.8,8.3-14.8,8.3c3.1-7.4,8.1-8.8,11.4-8.8C230.5,108,231.6,108.2,232.7,108.5"></path>
			<path id="Pfad_286_00000116934698053011499680000016406693199100603547_" class="st3" d="M218.3,117c-10.4-7.3-5.1-16.4-5.1-16.4     C224.4,108.8,218.3,117,218.3,117"></path>
			<path id="Pfad_287_00000046337494937526487170000010315527732656345732_" class="st3" d="M235.8,96     c-3.4,13.5-13.1,10.8-13.1,10.8c2.3-9.8,9-10.8,11.8-10.8C234.9,95.9,235.4,95.9,235.8,96"></path>
			<path id="Pfad_288_00000074408972924906672010000003912273921294225571_" class="st3" d="M223.1,106.9     c-11.5-5.4-7.8-15.2-7.8-15.2C227.6,97.8,223.1,106.9,223.1,106.9"></path>
			<path id="Pfad_289_00000062172586514677438850000002807963974377361303_" class="st3" d="M225.6,96.1     c0.7-12.9,11.1-12.9,11.1-12.9C235.7,97,225.6,96.1,225.6,96.1"></path>
			<path id="Pfad_290_00000124876718957592855280000006775644693524750471_" class="st3" d="M226,96.2     c-12.3-3.3-10.3-13.6-10.3-13.6C229,86.3,226,96.2,226,96.2"></path>
			<path id="Pfad_291_00000000222480357802967900000011908272052998370207_" class="st3" d="M226.7,85c-1.5-12.8,8.7-14.7,8.7-14.7     C236.7,84.2,226.7,85,226.7,85"></path>
			<path id="Pfad_292_00000155837049599868368910000012857524466280507781_" class="st3" d="M227.1,85c-12.6-1-12.4-11.6-12.4-11.6     C228.3,74.8,227.1,85,227.1,85"></path>
			<path id="Pfad_293_00000048463978664474444650000015762407742598763917_" class="st3" d="M225.8,73.9c-3.6-12.4,6.1-16,6.1-16     C235.6,71.3,225.8,73.9,225.8,73.9"></path>
			<path id="Pfad_294_00000078035224274963394950000006005471225877512577_" class="st3" d="M226.3,73.9     c-12.6,1.2-14.2-9.2-14.2-9.2c0.7-0.1,1.3-0.1,1.9-0.1C225.8,64.6,226.3,73.9,226.3,73.9"></path>
			<path id="Pfad_295_00000126287178768614853880000007210361545549890705_" class="st3" d="M221.8,51.7c3.2,3.4,4,8.5,1.9,12.7     c-12.5-6.6-7.8-17.3-7.8-17.3C218.2,48.3,220.1,49.8,221.8,51.7"></path>
			<path id="Pfad_296_00000168075218932121383380000005938136570024174523_" class="st2" d="M114.6,278.7c-0.2,2.8-2.4,4.4-6.3,4.4     c-1.6,0-3.3-0.2-4.8-0.7v-2.8c1.6,0.5,3.2,0.8,4.8,0.8c2.3,0,3-0.8,3.1-1.7c0-0.2,0-0.5,0-0.7c-0.4-3.2-7.6,0.2-7.9-5.9     c0-0.3,0-0.6,0-1c0.2-2.7,2.2-4.2,5.6-4.2c1.5,0,3,0.2,4.3,0.8v2.8c-1.4-0.5-2.9-0.8-4.3-0.9c-1.8,0-2.4,0.8-2.5,1.6     c0,0.2,0,0.5,0,0.7c0.4,3.6,7.6,0.1,8,6L114.6,278.7z"></path>
			<path id="Pfad_297_00000074442278670722453790000014498049236203063981_" class="st2" d="M129.2,267.2l0,9.7c0,4.2-1.9,6.1-6,6.1     H123c-4.1,0-6.1-2-6.1-6.1v-9.8h3v9.8c0,2.3,1,3.4,3,3.4h0.2c2,0,3-1.1,3-3.4v-9.7H129.2z"></path>
			<path id="Pfad_298_00000047762406829386649060000018092317705816358584_" class="st2" d="M144.1,273.5c-0.1,3.3-1.4,5-5.7,5     l-2.8,0v4.3h-3v-15.7h5.8c4.2,0,5.5,1.8,5.7,5C144.1,272.6,144.1,273,144.1,273.5 M141,272.1c0-1.2-0.4-2.3-2.6-2.3h-2.8l0,6.1     h2.8c2.2,0,2.6-1.1,2.6-2.4C141,273.1,141,272.6,141,272.1"></path>
			<path id="Pfad_299_00000054251988499316149000000011580872216438337682_" class="st2" d="M149.7,269.7v3.7h5.7l0,2.5l-5.6,0v4.2     h6.8v2.6h-9.8v-15.7h9.5v2.6H149.7z"></path>
			<path id="Pfad_300_00000110441387423762477930000017761023505892675480_" class="st2" d="M168.5,282.8l-2.7-5.3h-0.2l-3.5,0v5.2     h-3v-15.7h6.4c4,0,5.4,1.9,5.6,4.7c0,0.4,0,0.8,0,1.1c0.1,1.8-0.9,3.4-2.6,4.1l3.1,5.7L168.5,282.8z M165.6,274.9     c1.9,0,2.4-0.8,2.5-2.1c0-0.3,0-0.6,0-1c0-1.2-0.6-2.1-2.5-2.1h-3.4v5.2H165.6z"></path>
			
				<rect id="Rechteck_74_00000130644708965638823090000002179033438332472217_" x="174.1" y="267.1" class="st2" width="3" height="15.7"></rect>
			<path id="Pfad_301_00000097469553632218616470000008603102868140845237_" class="st2" d="M193.4,276.5c-0.2,4.3-2,6.6-6.7,6.6     s-6.5-2.2-6.7-6.6c0-1.1,0-1.9,0-3c0.2-4.3,2-6.6,6.7-6.6s6.5,2.3,6.7,6.6C193.5,274.6,193.5,275.4,193.4,276.5 M186.7,269.7     c-2.7,0-3.6,1.3-3.7,3.8c0,1.1,0,1.9,0,3c0.1,2.5,1,3.8,3.7,3.8c2.7,0,3.5-1.3,3.7-3.8c0-1.1,0-1.9,0-3     C190.3,271,189.4,269.7,186.7,269.7"></path>
			<path id="Pfad_302_00000053507570721096377240000005448166904994284195_" class="st2" d="M205.7,282.8l-2.7-5.3h-0.2l-3.5,0v5.2     h-3v-15.7h6.4c4,0,5.4,1.9,5.6,4.7c0,0.4,0,0.8,0,1.1c0.1,1.8-0.9,3.4-2.6,4.1l3.1,5.7L205.7,282.8z M202.8,274.9     c1.9,0,2.4-0.8,2.5-2.1c0-0.3,0-0.6,0-1c0-1.2-0.6-2.1-2.5-2.1h-3.4v5.2H202.8z"></path>
			<path id="Pfad_303_00000023971993198170347390000000270503457936629417_" class="st2" d="M214.3,269.7v3.7h5.7l0,2.5l-5.6,0v4.2     h6.8v2.6h-9.8v-15.7h9.5v2.6H214.3z"></path>
			<path id="Pfad_304_00000036961272398772672440000003346876225818136735_" class="st2" d="M255,209.5c0.4-3.4,1.1-6.7,2.2-10     c2.3-5.3,3.6-0.5,3.6,2.9c0.1,4.3-1.5,8.4-4.6,11.4C253.1,215.9,254.7,211.2,255,209.5 M161.2,214.7c0.9-3,1.7-7.7,3.6-10.1     c3.7-4.8,3.3,2.1,2.8,4.8c-0.6,3.9-2.6,7.4-5.8,9.7C158.6,220.8,160.7,216.3,161.2,214.7 M131.6,205.6c-0.3-5,2.2-10.2,3.5-14.9     c1.3-5,2.6-9.7,4.2-14.6c1.6-3.7,1.9,2.9,2,3.8c0.1,2.9-0.2,5.7-0.7,8.5C138.9,194.8,135.8,200.7,131.6,205.6 M96.8,211.8     c1.1-2.9,2.3-7.5,4.4-9.8c4-4.5,3.2,2.4,2.5,5c-0.9,3.8-3.2,7.1-6.5,9.3C93.7,217.7,96.1,213.4,96.8,211.8 M198,235.6     c-0.7,3.9-1.7,10-5.7,12.3c-3.1,1.1-3.4-1.3-2.9-3.1c0.4-1.8,2.3-3.2,4.2-5.3C195,238.1,196.5,236.9,198,235.6 M280.9,208.3     c-1-0.5-2.3,0-2.8,1c-0.1,0.1-0.1,0.3-0.1,0.4c-2,10.6-3.6,14.6-8.2,19.5c-1.5,1.7-3.6,2.9-5.8,3.5c-1.9,0.1-3.2-1.5-4.5-3     c-2.7-3.1-4.1-7.2-4-11.3c2.3-0.2,4.5-0.9,6.4-2.1c3-2.3,3.7-6.5,3.9-10.1c0.2-6.2-2-14.1-9.8-11.9c-11.1,3-15.6,16.2-14.2,27.6     c-0.6,1.7-1.4,3.4-2.2,5c-0.5,1-2.2,5.5-3.9,5.2c-1.4-0.2-5.4-6.3-5.8-7.3c-3-6.8-5.8-16.6-5.2-24.9c0.4-5.1,1.2-9.7,1.5-11.6     c1.4-0.1,3.6-0.1,3.6-0.1c2.5-0.1,5-0.6,7.4-1.5c1.8-0.4,3.5-1.2,4.9-2.4c0.9-0.6,1.6-1.5,2-2.5c0.3-0.9,0-1.3-1.1-1.8     c-0.5-0.2-1.1-0.1-1.6,0.1c-1.5,1.3-3.2,2.1-5.1,2.6c-2.8,0.7-5.6,0.9-8.4,0.8c-0.1,0-0.2,0-0.3-0.1l0.2-0.6c0,0,1.3-5.6,1.9-8.1     c0.6-2.6-8.1-6.4-9.8-2.9c-1.4,3.1-2.5,6.3-3.4,9.5c-5.1-0.9-8-1.8-13.3-0.7c-1.8,0.4-4.5,1.3-5,3.4c-0.5,2.2,1.6,2.7,3.4,1.7     c1.7-0.9,0.8-1.7,2.9-2.1c1.1,0,2.2,0.1,3.3,0.4c0.9,0.2,4.8,1.2,7.3,1.9c-0.7,2.7-1.5,5.5-2,8.1c-0.6,3.7-0.9,7.4-0.9,11.2     c-0.1,3.2,0,6.5,0.4,9.7c-0.9,0.9-1.9,1.8-2.9,2.7c-1.3,1.2-3.3,3.7-5,4.4c-1.9,0.7-1.7,0-3.8-1.2c-1.7-0.9-5-0.9-6.4-2     c-3-2.4,1.3-8.9,3-11.7c0.1-0.1,1.6-3,2.1-3c1.6,0,0.5,1.2,0.8,2.4c1.4,4.7,4.8,1.6,4.4-2.2c0-4-3.2-7.3-7.2-7.3     c-0.3,0-0.5,0-0.8,0c-8.2,0.2-15.9,9.6-16.6,17.5c-0.3,2.4,0.7,4.8,2.5,6.3c-2.1,5.4-4.6,11.2-8.7,15c-1.5,1.4-3.5,2.4-5.5,2.9     c-2.4,0.3-2.8,0-4.3-2c-2.9-3.6-4.2-8.3-3.5-12.9c6.8-0.5,10.1-2.9,11.5-10.1c1.2-6,0.4-14.6-7.6-13.8     c-13.4,1.3-19.6,17.8-17.5,30.6c-1.2,4.4-3.6,8.4-6.9,11.6c-3,2.9-6.5-9.3-7-11.2c-1.6-5.2-2-10.8-1.2-16.2c0.9-5,6-9,8.5-13.5     c2.3-4.3,3.2-9,5-13.4c2.2-5.4,3.5-18.8-6.1-16.7c-9.1,2-13,15.3-15.8,22.9c-3.3,8.1-5.2,16.7-5.7,25.4     c-2.6,5.4-5.8,11.7-10.5,15c-1.9,1.4-4.1,2.1-6.4,2.2c-1.9-0.3-2.8-2.1-3.8-3.8c-2-3.6-2.6-7.9-1.7-11.9c2.3,0.3,4.6,0,6.7-0.8     c3.4-1.6,4.9-5.6,5.8-9.1c1.4-6.1,0.8-14.2-7.3-13.7c-10.8,0.7-17.6,11.2-19.1,22c-2.4,1.2-3.9,5.3-5,7     c-2.1,3.2-6.3,9.6-10.2,6.4c-2.3-1.9-3.5-6.1-4.2-8.8c-2.4-9.1-4.5-18.6-3.2-28c0.9-7.1,5.9-21,15-20.9c3.7,0,6.9,4.3,7.3,7.8     c0.3,3-4.2,10.5,2.7,9.9c5.5-0.5,2.7-10,1.7-13.3c-1.4-4-3.9-7.6-7.3-10.3c-8.6-6.6-23.3,3-27.7,10.3     c-6.4,10.2-9.3,22.1-8.4,34.1c0.9,9.8,5.2,24.7,16.1,27.7c10.8,3,18.4-3.1,23.6-11.4c0.4,1.9,1.1,3.8,2,5.5     c4.9,9,12.8,10.8,21.7,6.3c5.3-2.7,9.3-8.2,12.9-13.1c0.8,6.4,2.1,13.2,6,18.2c5.8,7.5,16.7,4.2,21.4-3.1c1.3-2,2.4-4.1,3.4-6.3     c0.3,0.6,0.6,1.2,1,1.8c5.6,8.6,13.5,9.8,22.1,4.6c5.5-3.3,9-9.6,12.3-15c1.1-1.7,2-3.6,2.8-5.5c2.8,0.6,7.6,0.6,8.3,3     c1.2,3.2-4.9,5.9-7.2,8c-3.4,3.1-7.7,7.6-7.3,12.6c1,12,16.3,7.8,21.1,2.3c2.8-3.2,4.3-7.5,4.2-11.8c0.2-1.8,0.3-3.7,0.1-5.5     c-0.1-2.8-0.2-2.7,1.6-4.6c1.8-2,3.7-3.8,5.6-5.6c0.4,1.3,0.8,2.6,1.3,3.9c3.7,9.8,13.9,22.2,23.8,11c1.8-2.1,3.4-4.4,4.7-6.8     c0.8,1.9,1.9,3.7,3.2,5.3c6.6,7.8,14.7,8,22.5,1.8c3.9-2.9,6.9-6.7,8.8-11.1c1.8-3.6,2.9-7.5,3.5-11.5     C282.2,212.5,282.7,208.8,280.9,208.3"></path>
		</g>
	</g>
</g>
</svg>
