<?xml version="1.0" encoding="UTF-8"?>
<!-- Generator: Adobe Illustrator 27.8.0, SVG Export Plug-In . SVG Version: 6.00 Build 0)  -->
<svg xmlns="http://www.w3.org/2000/svg" xmlns:xlink="http://www.w3.org/1999/xlink" version="1.1" id="Ebene_1" x="0px" y="0px" viewBox="0 0 324 324" style="enable-background:new 0 0 324 324;" xml:space="preserve">
<style type="text/css">
	.st0{fill:#FFFFFF;}
	.st1{clip-path:url(#SVGID_00000152949090074717994200000000961157044440116386_);}
	.st2{fill:#161615;}
	.st3{fill:#C9CA00;}
	.st4{fill:#393938;}
</style>
<g>
	<circle class="st0" cx="162" cy="162" r="162"></circle>
	<g id="Gruppe_80" transform="translate(0)">
		<g>
			<defs>
				<rect id="SVGID_1_" x="51.6" y="69.4" width="220.8" height="171.8"></rect>
			</defs>
			<clipPath id="SVGID_00000085224019294507133140000002402927759168273558_">
				<use xlink:href="#SVGID_1_" style="overflow:visible;"></use>
			</clipPath>
			
				<g id="Gruppe_79" transform="translate(0)" style="clip-path:url(#SVGID_00000085224019294507133140000002402927759168273558_);">
				<path id="Pfad_419" class="st2" d="M171.3,235.6c0,0-0.1,0.1-0.1,0.1c0,0-0.1,0-0.1,0c-0.1,0-0.2,0-0.2-0.1      c-0.1-0.1-0.2-0.1-0.3-0.2c-0.1-0.1-0.3-0.1-0.4-0.2c-0.5-0.1-1-0.1-1.5,0.1c-0.2,0.1-0.5,0.3-0.6,0.5c-0.2,0.2-0.3,0.5-0.4,0.8      c-0.1,0.3-0.1,0.7-0.1,1.1c0,0.4,0.1,0.7,0.2,1.1c0.1,0.3,0.2,0.5,0.4,0.8c0.2,0.2,0.4,0.4,0.6,0.5c0.3,0.1,0.5,0.2,0.8,0.1      c0.4,0,0.8-0.1,1.2-0.4c0.1-0.1,0.2-0.2,0.3-0.2c0.1-0.1,0.1-0.1,0.2-0.1c0.1,0,0.2,0,0.2,0.1l0.3,0.4c-0.1,0.2-0.3,0.3-0.5,0.5      c-0.2,0.1-0.4,0.3-0.6,0.3c-0.2,0.1-0.4,0.2-0.7,0.2c-0.2,0-0.5,0.1-0.7,0.1c-0.4,0-0.8,0-1.2-0.2c-0.4-0.1-0.7-0.4-1-0.6      c-0.3-0.3-0.5-0.7-0.7-1.1c-0.3-0.9-0.4-1.9-0.1-2.8c0.1-0.4,0.3-0.8,0.6-1.1c0.3-0.3,0.6-0.6,1-0.8c0.4-0.2,0.9-0.3,1.3-0.3      c0.4,0,0.8,0,1.2,0.2c0.4,0.1,0.7,0.3,1,0.6L171.3,235.6z"></path>
				<path id="Pfad_420" class="st2" d="M175.5,233.8c0.4-0.1,0.9,0,1.3,0.1c0.4,0.1,0.8,0.3,1.1,0.6c0.3,0.3,0.6,0.6,0.8,1      c0.4,0.9,0.5,1.9,0.3,2.8c-0.1,0.4-0.3,0.8-0.5,1.1c-0.2,0.3-0.6,0.6-0.9,0.8c-0.8,0.4-1.7,0.5-2.6,0.3      c-0.4-0.1-0.8-0.3-1.1-0.6c-0.3-0.3-0.6-0.6-0.8-1c-0.4-0.9-0.5-1.9-0.3-2.8c0.1-0.4,0.3-0.8,0.5-1.2c0.2-0.3,0.6-0.6,0.9-0.8      C174.6,234,175,233.9,175.5,233.8 M176.2,239.8c0.6,0,1.1-0.3,1.4-0.8c0.5-1.2,0.3-2.6-0.4-3.7c-0.4-0.4-1-0.6-1.5-0.5      c-0.3,0-0.6,0.1-0.8,0.3c-0.2,0.1-0.4,0.3-0.6,0.6c-0.1,0.3-0.2,0.5-0.3,0.8c0,0.4,0,0.7,0,1.1c0,0.7,0.3,1.3,0.7,1.8      C175,239.7,175.6,239.9,176.2,239.8"></path>
				<path id="Pfad_421" class="st2" d="M181.3,234.1c0.1-0.2,0.2-0.4,0.4-0.5c0.1-0.2,0.3-0.3,0.4-0.4c0.2-0.1,0.3-0.2,0.5-0.3      c0.2-0.1,0.4-0.2,0.6-0.2c0.3-0.1,0.7-0.1,1,0c0.3,0.1,0.6,0.2,0.8,0.4c0.2,0.2,0.4,0.4,0.6,0.7c0.2,0.3,0.3,0.6,0.4,1l0.9,4.2      l-1.2,0.2l-0.9-4.2c-0.1-0.4-0.3-0.8-0.6-1.1c-0.3-0.2-0.7-0.3-1.1-0.2c-0.3,0.1-0.6,0.2-0.9,0.4c-0.3,0.2-0.5,0.5-0.7,0.8      l1,4.8l-1.2,0.2l-1.4-6.5l0.7-0.1c0.1,0,0.3,0,0.4,0.2L181.3,234.1z"></path>
				<path id="Pfad_422" class="st2" d="M192.5,230.2l-0.7,7.2l-1,0.3l-4.5-5.6l0.9-0.3c0.2-0.1,0.3,0,0.4,0.1l2.9,3.6      c0.1,0.1,0.2,0.3,0.3,0.4s0.2,0.3,0.2,0.4c0-0.2,0-0.3,0-0.5c0-0.2,0-0.3,0-0.5l0.4-4.6c0-0.1,0-0.1,0.1-0.2      c0-0.1,0.1-0.1,0.2-0.1L192.5,230.2z"></path>
				<path id="Pfad_423" class="st2" d="M200.4,233.3c-0.1,0.2-0.2,0.4-0.3,0.6c-0.1,0.2-0.3,0.4-0.5,0.5c-0.2,0.2-0.4,0.3-0.6,0.4      c-0.2,0.1-0.4,0.2-0.7,0.3c-0.4,0.2-0.8,0.2-1.3,0.2c-0.4,0-0.8-0.1-1.2-0.3c-0.4-0.2-0.7-0.5-1-0.8c-0.3-0.4-0.6-0.9-0.8-1.3      c-0.2-0.4-0.3-0.9-0.3-1.3c0-0.4,0.1-0.8,0.2-1.2c0.1-0.4,0.4-0.7,0.7-1c0.3-0.3,0.7-0.6,1.1-0.7c0.4-0.1,0.7-0.2,1.1-0.2      c0.4,0,0.7,0.1,1,0.2c0.3,0.2,0.6,0.4,0.9,0.7c0.3,0.3,0.5,0.7,0.7,1.1c0.1,0.1,0.1,0.2,0.1,0.4c0,0.1-0.1,0.1-0.2,0.2l-4.2,1.6      c0.1,0.3,0.3,0.7,0.6,1c0.2,0.2,0.4,0.4,0.7,0.6c0.2,0.1,0.5,0.2,0.8,0.2c0.3,0,0.6-0.1,0.9-0.2c0.2-0.1,0.5-0.2,0.7-0.4      c0.2-0.1,0.3-0.3,0.4-0.4c0.1-0.1,0.2-0.2,0.3-0.3c0.1-0.1,0.1-0.1,0.2-0.2c0.1,0,0.2,0,0.2,0L200.4,233.3z M198.4,230.7      c-0.1-0.2-0.2-0.5-0.4-0.7c-0.1-0.2-0.3-0.3-0.5-0.4c-0.2-0.1-0.4-0.2-0.6-0.2c-0.7,0-1.4,0.4-1.8,1.1c-0.2,0.5-0.2,1-0.1,1.5      L198.4,230.7z"></path>
				<path id="Pfad_424" class="st2" d="M201.1,227.7c0.1-0.2,0.1-0.4,0.2-0.6c0.1-0.2,0.2-0.4,0.3-0.5c0.1-0.2,0.3-0.3,0.4-0.5      c0.2-0.1,0.4-0.3,0.6-0.4c0.3-0.2,0.6-0.2,0.9-0.3c0.3,0,0.6,0,0.9,0.2c0.3,0.1,0.5,0.3,0.7,0.5c0.2,0.3,0.4,0.6,0.6,0.9      l1.9,3.8l-1.1,0.5l-1.9-3.8c-0.2-0.4-0.5-0.7-0.8-0.9c-0.4-0.1-0.8-0.1-1.1,0.1c-0.3,0.1-0.6,0.4-0.8,0.7      c-0.2,0.3-0.4,0.6-0.5,1l2.2,4.4l-1.1,0.5l-2.9-6l0.6-0.3c0.1-0.1,0.3,0,0.4,0.1L201.1,227.7z"></path>
				<path id="Pfad_425" class="st2" d="M206.4,221.5c0.1,0.1,0.1,0.2,0.1,0.3c0,0.1,0,0.2,0,0.3c0,0.1-0.1,0.2-0.1,0.3      c-0.1,0.1-0.2,0.2-0.3,0.2c-0.1,0.1-0.2,0.1-0.3,0.1c-0.1,0-0.2,0-0.3,0c-0.1,0-0.2-0.1-0.3-0.1c-0.1-0.1-0.2-0.1-0.2-0.2      c-0.1-0.1-0.1-0.2-0.1-0.3c0-0.1,0-0.2,0-0.3c0-0.1,0.1-0.2,0.1-0.3c0.1-0.1,0.1-0.2,0.2-0.2c0.1-0.1,0.2-0.1,0.3-0.1      c0.1,0,0.2,0,0.3,0c0.1,0,0.2,0.1,0.3,0.1C206.3,221.3,206.3,221.4,206.4,221.5 M207.2,223.4l3.3,5.8l-1,0.6l-3.3-5.8      L207.2,223.4z"></path>
				<path id="Pfad_426" class="st2" d="M216.5,224.3c0,0.2-0.1,0.5-0.2,0.7c-0.1,0.2-0.2,0.4-0.4,0.6c-0.1,0.2-0.3,0.4-0.5,0.5      c-0.2,0.2-0.4,0.3-0.6,0.5c-0.4,0.2-0.8,0.4-1.2,0.5c-0.4,0.1-0.8,0.1-1.2,0c-0.4-0.1-0.8-0.3-1.2-0.6c-0.4-0.3-0.8-0.7-1-1.2      c-0.2-0.4-0.4-0.8-0.5-1.2c-0.1-0.4-0.1-0.8-0.1-1.2c0.1-0.4,0.2-0.8,0.4-1.1c0.3-0.4,0.6-0.7,1-0.9c0.3-0.2,0.7-0.4,1-0.4      c0.3-0.1,0.7-0.1,1.1,0c0.4,0.1,0.7,0.2,1,0.5c0.3,0.3,0.6,0.6,0.9,0.9c0.1,0.1,0.1,0.2,0.2,0.3c0,0.1-0.1,0.2-0.1,0.2l-3.7,2.4      c0.2,0.3,0.5,0.6,0.7,0.8c0.2,0.2,0.5,0.3,0.8,0.4c0.3,0.1,0.5,0.1,0.8,0c0.3-0.1,0.6-0.2,0.8-0.3c0.2-0.1,0.4-0.3,0.6-0.5      c0.1-0.2,0.2-0.3,0.3-0.5c0.1-0.1,0.1-0.3,0.2-0.4c0-0.1,0.1-0.2,0.2-0.2c0.1-0.1,0.2-0.1,0.2,0L216.5,224.3z M214,222.2      c-0.1-0.2-0.3-0.4-0.5-0.6c-0.2-0.1-0.4-0.2-0.6-0.3c-0.2-0.1-0.4-0.1-0.7,0c-0.2,0-0.5,0.1-0.7,0.3c-0.4,0.2-0.7,0.7-0.9,1.1      c-0.1,0.5,0,1,0.2,1.5L214,222.2z"></path>
				<path id="Pfad_427" class="st2" d="M216,218.8c0-0.2,0-0.4,0.1-0.6c0-0.2,0.1-0.4,0.2-0.6c0.1-0.2,0.2-0.4,0.3-0.5      c0.1-0.2,0.3-0.3,0.5-0.5c0.3-0.2,0.6-0.4,0.9-0.5c0.3-0.1,0.6-0.1,0.9,0c0.3,0.1,0.6,0.2,0.8,0.4c0.3,0.2,0.5,0.4,0.8,0.7      l2.6,3.4l-0.9,0.7l-2.6-3.4c-0.2-0.3-0.6-0.6-1-0.7c-0.4-0.1-0.8,0-1.1,0.3c-0.3,0.2-0.5,0.5-0.6,0.8c-0.1,0.3-0.2,0.7-0.2,1.1      l3,3.9l-0.9,0.7l-4.1-5.3l0.6-0.4c0.1-0.1,0.3-0.1,0.4,0L216,218.8z"></path>
				<path id="Pfad_428" class="st2" d="M224.5,211.9c0,0.1,0,0.1,0,0.2c0,0,0,0.1-0.1,0.1c-0.1,0.1-0.1,0.1-0.2,0.1      c-0.1,0-0.2,0-0.3,0.1c-0.2,0-0.3,0.1-0.4,0.2c-0.5,0.2-0.8,0.6-1,1.1c-0.1,0.3-0.1,0.5-0.1,0.8c0,0.3,0.1,0.6,0.3,0.8      c0.2,0.3,0.4,0.6,0.6,0.9c0.2,0.3,0.5,0.5,0.8,0.7c0.3,0.2,0.5,0.3,0.8,0.3c0.3,0,0.5,0,0.8-0.1c0.3-0.1,0.5-0.2,0.7-0.4      c0.2-0.2,0.3-0.3,0.5-0.6c0.1-0.2,0.1-0.3,0.2-0.5c0-0.1,0.1-0.3,0.1-0.4c0-0.1,0-0.2,0.1-0.2c0.1-0.1,0.2-0.1,0.2-0.1l0.5,0.1      c0,0.2,0,0.5-0.1,0.7c-0.1,0.2-0.1,0.4-0.2,0.6c-0.1,0.2-0.2,0.4-0.4,0.6c-0.1,0.2-0.3,0.4-0.5,0.5c-0.3,0.3-0.6,0.5-1,0.6      c-0.4,0.1-0.8,0.2-1.1,0.1c-0.4,0-0.8-0.2-1.2-0.4c-0.8-0.5-1.5-1.2-1.9-2.1c-0.2-0.4-0.3-0.8-0.3-1.2c0-0.4,0.1-0.8,0.2-1.2      c0.2-0.4,0.5-0.8,0.8-1.1c0.3-0.3,0.7-0.5,1.1-0.7c0.4-0.1,0.8-0.2,1.1-0.2L224.5,211.9z"></path>
				<path id="Pfad_429" class="st2" d="M232.6,209.9c0,0.2,0,0.5,0,0.7c0,0.2-0.1,0.5-0.2,0.7c-0.1,0.2-0.2,0.4-0.4,0.7      c-0.1,0.2-0.3,0.4-0.5,0.6c-0.3,0.3-0.6,0.6-1,0.8c-0.4,0.2-0.8,0.3-1.2,0.3c-0.4,0-0.9-0.1-1.3-0.3c-0.5-0.2-0.9-0.5-1.3-0.9      c-0.3-0.3-0.6-0.7-0.8-1c-0.2-0.4-0.3-0.8-0.4-1.2c0-0.4,0-0.8,0.2-1.2c0.2-0.4,0.4-0.8,0.7-1.1c0.3-0.3,0.6-0.5,0.9-0.7      c0.3-0.2,0.7-0.2,1-0.3c0.4,0,0.7,0.1,1.1,0.2c0.4,0.2,0.8,0.4,1.1,0.7c0.1,0.1,0.2,0.2,0.2,0.3c0,0.1,0,0.2-0.1,0.2l-3,3.3      c0.3,0.3,0.6,0.5,0.9,0.6c0.3,0.1,0.6,0.2,0.9,0.2c0.3,0,0.5,0,0.8-0.2c0.3-0.1,0.5-0.3,0.7-0.5c0.2-0.2,0.3-0.4,0.4-0.6      c0.1-0.2,0.2-0.4,0.2-0.6c0-0.1,0.1-0.3,0.1-0.4c0-0.1,0-0.2,0.1-0.3c0.1-0.1,0.1-0.1,0.2-0.1L232.6,209.9z M229.7,208.5      c-0.2-0.2-0.4-0.3-0.6-0.4c-0.2-0.1-0.4-0.1-0.7-0.2c-0.2,0-0.4,0-0.6,0.1c-0.7,0.3-1.1,1-1.1,1.7c0,0.5,0.2,1,0.6,1.4      L229.7,208.5z"></path>
				<path id="Pfad_430" class="st2" d="M237,205.9l-4.6-3.4L232,203c-0.1,0.1-0.1,0.1-0.2,0.1c-0.1,0-0.2,0-0.2,0l-0.4-0.3l0.6-0.8      l-0.5-0.4c-0.3-0.2-0.5-0.5-0.7-0.7c-0.2-0.2-0.3-0.5-0.3-0.8c0-0.3,0-0.6,0.1-0.9c0.1-0.3,0.2-0.6,0.4-0.9      c0.2-0.2,0.4-0.4,0.6-0.6l0.5,0.4c0.1,0.1,0.1,0.2,0,0.2c-0.1,0.1-0.1,0.2-0.2,0.4c-0.1,0.1-0.2,0.3-0.3,0.5      c-0.1,0.2-0.1,0.3,0,0.5c0,0.2,0.1,0.4,0.2,0.5c0.1,0.2,0.3,0.4,0.5,0.5l0.5,0.4l1.2-1.5l0.7,0.5l-1.1,1.5l4.6,3.4L237,205.9z"></path>
				<path id="Pfad_431" class="st2" d="M235.4,196.3c0.2-0.4,0.6-0.7,0.9-1c0.3-0.2,0.7-0.4,1.1-0.5c0.4-0.1,0.8-0.1,1.3,0.1      c0.9,0.3,1.8,0.8,2.4,1.5c0.3,0.3,0.5,0.7,0.6,1.1c0.1,0.4,0.1,0.8,0,1.2c-0.1,0.4-0.3,0.9-0.5,1.2c-0.2,0.4-0.6,0.7-0.9,1      c-0.3,0.2-0.7,0.4-1.1,0.5c-0.4,0.1-0.8,0.1-1.2,0c-0.9-0.3-1.8-0.8-2.4-1.5c-0.3-0.3-0.5-0.7-0.6-1.1c-0.1-0.4-0.1-0.8,0-1.2      C235,197.2,235.2,196.7,235.4,196.3 M240.5,199.6c0.3-0.5,0.4-1.1,0.2-1.6c-0.6-1.2-1.8-1.9-3.1-2c-0.6,0-1.1,0.4-1.4,0.9      c-0.2,0.2-0.3,0.5-0.3,0.8c0,0.3,0,0.5,0.1,0.8c0.1,0.3,0.3,0.5,0.5,0.7c0.2,0.3,0.5,0.5,0.8,0.7c0.5,0.4,1.2,0.6,1.8,0.6      C239.7,200.4,240.2,200.1,240.5,199.6"></path>
				<path id="Pfad_432" class="st2" d="M239.1,190c0.2-0.4,0.5-0.8,0.8-1.1c0.3-0.3,0.7-0.5,1.1-0.6c0.4-0.1,0.8-0.1,1.3-0.1      c1,0.2,1.8,0.6,2.5,1.3c0.3,0.3,0.5,0.7,0.7,1.1c0.1,0.4,0.2,0.8,0.1,1.2c0,0.4-0.2,0.9-0.4,1.3c-0.2,0.4-0.5,0.8-0.8,1.1      c-0.3,0.3-0.7,0.5-1.1,0.6c-0.4,0.1-0.8,0.1-1.2,0.1c-1-0.2-1.8-0.6-2.5-1.3c-0.3-0.3-0.5-0.7-0.7-1.1c-0.1-0.4-0.2-0.8-0.1-1.2      C238.8,190.8,238.9,190.4,239.1,190 M244.4,192.8c0.3-0.5,0.3-1.1,0.1-1.6c-0.7-1.1-2-1.8-3.3-1.7c-0.6,0.1-1,0.5-1.3,1      c-0.1,0.3-0.2,0.6-0.3,0.9c0,0.3,0,0.5,0.1,0.8c0.1,0.3,0.3,0.5,0.5,0.7c0.3,0.2,0.6,0.4,0.9,0.6c0.6,0.3,1.2,0.5,1.9,0.4      C243.7,193.7,244.2,193.3,244.4,192.8"></path>
				<path id="Pfad_433" class="st2" d="M240.6,179.7l9,3.7l-0.3,0.6c0,0.1-0.2,0.2-0.3,0.2l-0.8-0.2c0.2,0.4,0.3,0.8,0.4,1.2      c0.1,0.4,0,0.9-0.2,1.3c-0.1,0.3-0.3,0.6-0.6,0.9c-0.3,0.2-0.6,0.4-0.9,0.5c-0.4,0.1-0.8,0.1-1.2,0.1c-0.5-0.1-1-0.2-1.4-0.4      c-0.4-0.2-0.8-0.4-1.2-0.7c-0.3-0.3-0.6-0.6-0.8-0.9c-0.2-0.3-0.3-0.7-0.3-1.1c0-0.4,0.1-0.8,0.2-1.2c0.1-0.3,0.3-0.6,0.6-0.9      c0.2-0.2,0.5-0.4,0.8-0.5l-3.4-1.4L240.6,179.7z M244.4,182.5c-0.3,0.1-0.6,0.2-0.8,0.4c-0.2,0.2-0.4,0.5-0.5,0.7      c-0.2,0.5-0.2,1.1,0.1,1.6c0.4,0.6,0.9,1,1.6,1.2c0.3,0.1,0.7,0.3,1.1,0.3c0.3,0.1,0.6,0,0.8,0c0.2-0.1,0.4-0.2,0.6-0.3      c0.2-0.2,0.3-0.4,0.4-0.6c0.1-0.3,0.2-0.7,0.1-1c-0.1-0.4-0.2-0.7-0.4-1L244.4,182.5z"></path>
				<path id="Pfad_434" class="st3" d="M240.4,149.7c0,41-33.2,74.2-74.2,74.2c-41,0-74.2-33.2-74.2-74.2c0-41,33.2-74.2,74.2-74.2      c0,0,0,0,0,0C207.2,75.5,240.4,108.7,240.4,149.7"></path>
				<path id="Pfad_435" class="st4" d="M232,116c-7-12.6-17.1-23.2-29.3-30.8c-1.5-0.8-3-1.8-4.6-2.5c-1.6-0.7-3.1-1.6-4.7-2.3      l-2.4-1c-0.8-0.3-1.6-0.7-2.4-0.9c-1.7-0.5-3.3-1.1-5-1.6c-13.4-3.8-27.7-3.8-41.1,0c-1.7,0.4-3.3,1-5,1.6      c-0.8,0.2-1.6,0.6-2.4,0.9l-2.4,1c-1.6,0.7-3.1,1.5-4.7,2.3c-1.6,0.8-3.1,1.7-4.6,2.5c-12.3,7.6-22.4,18.2-29.3,30.8l0,0      c-0.1,0.1-0.2,0.2-0.3,0.1c-0.1-0.1-0.2-0.2-0.1-0.3l0,0c16-38.4,60.2-56.5,98.5-40.4c18.3,7.6,32.8,22.2,40.4,40.4      c0.1,0.1,0,0.3-0.1,0.3C232.2,116.2,232.1,116.1,232,116L232,116L232,116z"></path>
				<path id="Pfad_436" class="st4" d="M93.9,174.1c7,12.6,17.1,23.2,29.3,30.8c1.5,0.8,3,1.8,4.6,2.5c1.6,0.7,3.1,1.6,4.7,2.3      l2.4,1c0.8,0.3,1.6,0.7,2.4,0.9c1.7,0.5,3.3,1.1,5,1.6c13.4,3.8,27.7,3.8,41.1,0c1.7-0.4,3.3-1,5-1.6c0.8-0.2,1.6-0.6,2.4-0.9      l2.4-1c1.6-0.7,3.1-1.5,4.7-2.3c1.6-0.8,3.1-1.7,4.6-2.5c12.3-7.6,22.4-18.2,29.3-30.8l0,0c0.1-0.1,0.2-0.2,0.3-0.1      c0.1,0.1,0.2,0.2,0.1,0.3c-16,38.4-60.2,56.5-98.5,40.4c-18.3-7.6-32.8-22.2-40.4-40.4c-0.1-0.1,0-0.3,0.1-0.3      C93.7,173.9,93.8,174,93.9,174.1L93.9,174.1z"></path>
				<path id="Pfad_437" class="st4" d="M205.8,193.6c-3.9,5.4-9.1,9.7-15.1,12.7c-3,1.5-6.1,2.8-9.2,3.8c-6.4,2-13.1,3-19.7,2.8      c-3.3-0.1-6.7-0.4-9.9-1.1c-6.5-1.2-12.7-3.9-18-8l0,0c-0.1-0.1-0.1-0.1,0-0.2c0-0.1,0.1-0.1,0.2,0c5.6,3.1,11.8,5.1,18.2,5.9      c12.8,1.7,25.8-0.2,37.6-5.3c5.9-2.6,11.3-6.2,15.8-10.8c0.1-0.1,0.2,0,0.2,0C205.8,193.5,205.8,193.5,205.8,193.6L205.8,193.6z      "></path>
				<path id="Pfad_438" class="st4" d="M140.5,119.3c1,0,1.8-0.2,2.1-0.9c0.9-1.8,2.5-6.2,3.2-7.3c0.2-0.2,0.3-0.5,0.2-0.9      c0-1.8-3.6-3.8-6.4-3.8c-1.3,0-2.4,0.4-2.8,1.5c-1.1,2.6-1.8,5.4-2.2,8.3C134.6,117.8,138.1,119.3,140.5,119.3"></path>
				<path id="Pfad_439" class="st4" d="M272.3,128.1l0.1-0.6c0-1.8-3.8-3.5-6.6-3.5c-1.2-0.1-2.3,0.3-3,1.2l-0.9,2.2      c-1.7-2.3-4.4-3.5-7.2-3.4h-0.1c-11.5,0-20,15.8-20.7,27.7c-1.4,3.1-3.1,6-4.9,8.9c-0.6,1-2.9,3.8-4.5,3.8      c-0.6,0-1.1-0.4-1.3-1.5l-0.2-2.1c0-6.1,3.9-16.9,5.8-22.3c1.2-2.7,1.9-5.5,2.3-8.4l-0.1-0.9c-0.6-3.1-3.4-5.4-6.6-5.5      c-2.5,0-5.3,1-8.6,1.1c0.4-0.9,1.3-3.6,1.8-5.3l0.1-0.4c0-1-1.6-1.5-3-1.5c-1.2,0-2.5,0.4-2.9,1.3c-0.7,1.6-1.1,3.3-1.2,5.1      c0,1.3,0.5,2.6,1.6,3.4l0,0c-8.9,28.2-17.2,34.5-21.4,36.1c-0.9,0.2-1.8,0.3-2.7,0.4l-1.3-0.1c-4-0.8-5.3-5.6-5.3-10.2      c0-1.5,0.2-3.1,0.5-4.6c0.9,0.8,2.2,1.2,3.4,1.2c6.6,0,15.4-10.6,15.7-19.2v-0.2c0-4.6-3.8-6.9-8.4-7h-0.5      c-8.9,0-15.3,9.4-18.2,17.1c-1.3,3.4-2.1,7-2.3,10.6c-1.5,3.1-3.1,6.2-5,9.1c-0.6,1-2.9,3.8-4.5,3.8c-0.6,0-1.1-0.4-1.3-1.5      l-0.2-2.1c0-6.1,3.9-16.9,5.8-22.3c1.2-2.7,1.9-5.5,2.3-8.4l-0.1-0.9c-0.6-3.1-3.4-5.4-6.6-5.5c-2.5,0-5.3,1-8.6,1.1      c0.4-0.9,1.3-3.6,1.8-5.3l0.1-0.4c0-1-1.6-1.5-3-1.5c-1.2,0-2.5,0.4-2.9,1.3c-0.7,1.6-1.1,3.3-1.2,5.1c0,1.3,0.5,2.6,1.6,3.4      l0.1,0c-4.1,9.6-14.6,36.5-18.4,36.6c-0.7,0-1-0.7-1-2.1c0-7.4,8.5-31.6,9.5-34.2l0.1-0.5c0-1.8-3.8-3.6-6.7-3.6      c-1.2-0.1-2.4,0.4-3,1.5c-3.2,7.9-5.8,16.1-7.8,24.4c-0.1,0.7-0.3,1.4-0.4,2.1c-3.4,6.4-7.3,12.4-9.8,12.5      c-0.6,0-0.7-1.1-0.7-2.8c0.2-8.7,8.1-29.6,9.7-33.5l0.1-0.5c0-1.9-3.8-3.6-6.6-3.6c-1.2-0.2-2.4,0.4-3.2,1.3l-0.9,2.2      c-1.6-2.3-4.3-3.6-7.2-3.4h-0.1c-10.4,0-18.3,12.8-20.3,24.1c-1.1,1.2-2.5,2.2-4,2.9c-1.9,0.8-3.9,1.1-6,1.1l-2.3-0.1      c0.9-5.1,12.1-37.3,13.8-41l0.1-0.4c0-1.7-4-3.8-7.2-3.8c-1.3-0.2-2.5,0.4-3.3,1.3c-2.7,4.7-8.1,20.6-13.1,37.6      c-0.3,0.9-0.6,2.2-1.1,3.7c-1.9-1-3.7-2.3-5.2-3.9c-0.5-0.5-1.9,0-2.4,0.2c-0.3,0.1-1.6,0.6-1.1,1c2.2,2.4,5,4.1,8.1,4.9      c-2.5,9.3-6.3,24.3-6.3,30.5v0.2c-0.1,1,0.1,2.1,0.5,3c1.7,2.6,4.6,4.2,7.8,4c7.4,0,12-12.6,13.4-18.6c0.6-2.5,0.9-5,1-7.5      c0.1-3.3-1-6.4-3.2-8.9c2.5,0.1,4.9-0.4,7.2-1.3c1-0.4,2-0.9,2.9-1.6c0,0.5-0.1,1.1-0.1,1.6c0,6.3,2.4,11.2,8.3,11.3h0.2      c4.7,0,8.6-4.7,11.4-9.6c-0.1,1.5-0.2,2.7-0.2,3.9c-0.1,1.8,0.2,3.5,1,5.1c1.3,2.5,4.5,2.9,7.5,2.9h1.5c2.8-0.1,6-3.9,9-8.8      c0,0.2,0,0.4,0,0.6c-0.1,1.8,0.3,3.7,1.1,5.3c1.3,2.5,4.5,2.9,7.5,2.9h1.6c5.3-0.2,15.8-27.6,20.3-38c0.6,0.2,1.2,0.2,1.8,0.2      c2.1,0,4.3-0.6,5.8-0.7c-2.2,6.6-8.3,21.6-8.3,30.7c0,1.7,0.3,3.3,1,4.9c1.5,2.8,5.7,2.9,8.6,2.9h1.2c2.2,0,3.9-0.9,6.6-4.7      c1.2-1.8,2.3-3.7,3.3-5.6c1.1,5.8,5.2,10,13.7,10.3h1.3c1.4,0,2.9-0.2,4.3-0.6c4.8-1.7,14.8-8.9,23.5-37.2      c0.5,0.1,0.9,0.1,1.4,0.1c2.1,0,4.3-0.6,5.8-0.7c-2.2,6.6-8.3,21.6-8.3,30.7c0,1.7,0.3,3.3,1,4.9c1.5,2.8,5.7,2.9,8.6,2.9h1.2      c2.2,0,3.9-0.9,6.6-4.7c1.1-1.7,2.1-3.4,3.1-5.2c0.8,4.6,3.3,7.8,8,7.9h0.1c4.9,0,8.6-4.7,11.5-9.6c-0.1,1.5-0.2,2.7-0.2,3.9      c-0.1,1.8,0.2,3.5,1,5.1c1.5,2.7,4.9,2.9,8.1,2.9c0.4,0,0.7-0.5,0.7-1v-0.5c0-0.4-0.1-0.9-0.4-1.2c-0.4-0.2-0.4-1-0.4-1.9      c0-1.5,0.1-3,0.4-4.5C264.8,147.8,270.9,131.5,272.3,128.1 M187.4,136.6c1.2-1.7,5.1-6.8,7.9-6.8c0.3,0,0.7,0.1,1,0.2      c0.4,0.3,0.7,0.8,0.6,1.3c0,3.9-6.9,14.6-12.1,14.6c-0.6,0-1.2-0.1-1.7-0.5C184.1,142.4,185.6,139.4,187.4,136.6 M73.7,163      c-0.1,2.4-0.5,4.8-1.1,7.2c-1.7,7.7-5.7,15.5-9.6,16.6c-0.1-0.4-0.2-0.7-0.1-1.1c0-4.5,4.5-20,7-30.7      C72.6,156.8,74,159.8,73.7,163 M105.8,141.6c-1.2,3-7.8,15.8-11.4,15.9c-1.2,0-1.8-1.2-1.8-3.3c0-7.2,6.9-23.7,12.4-23.7      l0.7,0.1c1.3,0.4,1.8,1.7,1.8,3.4C107.3,136.7,106.8,139.2,105.8,141.6 M256.9,141.7c-1.2,3.2-7.8,15.8-11.5,15.9      c-1.2,0-1.7-1.2-1.7-3.2c0-7.2,6.9-23.8,12.4-23.8l0.7,0.1c1.3,0.5,1.8,1.8,1.8,3.5C258.4,136.9,257.8,139.4,256.9,141.7"></path>
			</g>
		</g>
	</g>
</g>
</svg>
