<?xml version="1.0" encoding="UTF-8"?>
<!-- Generator: Adobe Illustrator 28.1.0, SVG Export Plug-In . SVG Version: 6.00 Build 0)  -->
<svg xmlns="http://www.w3.org/2000/svg" xmlns:xlink="http://www.w3.org/1999/xlink" version="1.1" id="Ebene_1" x="0px" y="0px" viewBox="0 0 538.3 127.2" style="enable-background:new 0 0 538.3 127.2;" xml:space="preserve">
<style type="text/css">
	.st0{fill:#E4003A;}
	.st1{fill:#4A4A49;}
</style>
<g>
	<g>
		<g>
			<g>
				<path class="st0" d="M85.4,67.3c1-2.8,1.8-5.5,1.6-8.5c-0.6-7.1-3.5-3.6-6.3-4c-5-0.7-6.7-5.2-7.5-9.7c-1-5.6,2.1-7.5,5-11.7      c0.7-1,1.7-1.2,2.7-1c0-0.1,0.1-0.2,0.1-0.2c1.2-1.5,2.7-1.5,3.7-0.5c2.1,2.1,3.9,4.1,7,4.9c0.2,0,0.4,0.1,0.6,0.1      c0-0.2-0.1-0.3-0.1-0.5c-0.3,0-0.5-0.1-0.7-0.3c-2-1.7-3-4.1-4.7-6c-0.4-0.4-4.5-3.6-4.6-1c0,0.7-0.1,1.4-0.3,2.1      c-0.3,0.8-1.3,1.1-2,0.5c-0.3-0.3-0.6-0.6-0.9-0.9c-0.7,0.1-1.4-0.3-1.4-1.1c0-0.9-0.1-1.6,0-2.5c0.1-0.4,0.3-0.6,0.6-0.7      c0-1.2,0-2.4,1.7-3.1c1.3-0.6,5-0.9,3.6-2.9c-0.4-0.5-0.2-1.1,0.2-1.4c-3.9-4.9-8.9-8.9-14.5-11.8c-0.3,0.5-0.8,0.9-1.2,1.2      c-2.8,1.6-7.7-0.3-5.7,5.3c0.3,0.8-0.6,1.7-1.5,1.4C54.3,13,51.5,8.3,50,2.2c-0.7,0-1.3-0.1-2-0.1c-7.6,0-14.7,1.8-21,5.1      c0,0.4-0.2,0.9-0.5,1.3c-1,1.3-2.3,2.4-3.5,3.5c0.5-0.1,1-0.1,1.5-0.1c2.4-0.2,3.7-0.5,3.7-3.2c0-1.3,2-1.6,2.3-0.3      c0.2,0.9,0.5,1.7,1.5,2.1c0.6,0.2,1,0.8,0.8,1.4c-0.8,2.5-4.5,2.1-4.7,4.8c0,0.4-0.2,0.6-0.4,0.8c0.4,0.8,0.8,1.5,1.1,1.5      c1.2,0.2,3,0.3,4,1.1c1.3,1.6,3.1,1.9,5.1,1.2c-0.1-0.9-0.3-1.8-0.4-2.7c-0.1-1.3,0-2,0.2-3.3c0.3-1.5,2.2-2.1,3.5-1.4      c1.4,0.4,2.9,0.9,4.3,1.3c1.4-0.2,3.1,0.6,3,2.3c0.4,0.8,0.8,1.6,1.2,2.5c0.2,0.1,0.3,0.3,0.4,0.4c3,0.8,6.2,3.1,4.1,6.1      c-0.8,1.2-2.9,0.1-2-1.2c0.1-0.2,0.2-0.4,0.2-0.6c-0.1,0-0.3-0.1-0.4-0.1c-0.6-0.4-1.3-0.6-2.1-0.8c-0.2,0.2-0.5,0.3-0.9,0.4      c-1,0.3-1.9,0.5-2.8,0.6c0.3,0,0.6,0,0.9,0.1c0.5,0.1,0.9,0.7,0.9,1.1c0,0.3,0.1,0.7,0.1,1c0.5-0.3,1.1-0.4,1.5,0.1      c0.4,0.4,0.5,1.3,0,1.7c-0.9,0.7-1.8,1.4-2.6,2.1c-0.7,0.7-2.1,0.2-2-0.8c0-0.4,0.1-0.8,0.2-1.1c-0.1-0.1-0.3-0.1-0.4-0.2      c-0.7-0.4-0.2-1.8-0.3-1.8c0,0-0.1,0.3-0.2,0.4c-0.1,0.7-0.5,1.3-1,1.6c-2,1.2-3.5,2.8-4.9,4.6c0.3,0.3,0.4,0.6,0.3,1.1      c-0.5,1.8-1.9,3-3.2,4.3c-0.6,0.6-1.5,1.4-1.7,2.2c-0.2,0.7,0.3,1.2,0,1.9c-0.1,0.5-0.3,0.8-1.1,0.9c-1.2,0.3-2.2-1-1.3-1.9      c0-0.1,0-0.1,0-0.2c0-0.2,0-0.5,0-0.8c-3.2,1.2-8-0.9-8.5,4.9c0,0.5-0.2,1-0.5,1.3c1,1.9,3.5,1,5.1,0c0.9-0.6,1.9,0.4,1.7,1.3      c-0.4,1.9,1.6,2.1,2.7,3.1c0.8,0.7,0.8,1.8,0.7,2.8c0,0,0,0.1,0,0.1c1.1,1.2,2.4,2.2,3.5,3.3c0.4-0.5,1-0.9,1.9-0.8      c3,0.3,6.8,0.6,9.2,2.6c0.1,0.1,0.2,0.2,0.3,0.3c2.1,0.5,3.7,1.7,5.1,3.6c0.1,0.1,0.1,0.2,0.2,0.3c1,0.8,2,1.6,3,2.1      c1.8,0.9,3.8,0.5,5.7,0.7c1.8,0.1,2.9,1.9,2,3.5c-1.1,2.1-2.5,3.9-3.8,5.8c0,0.4,0,0.8-0.3,1.3c-0.7,1.1-1.2,1.7-2.1,2.6      c-0.6,0.6-1.2,0.7-1.8,0.7c-2.7,2.4-5.2,5.1-8.5,6.4c0,0-0.1,0-0.1,0c-1.3,1.5-2.4,3.2-3.6,4.9c1.5,0.1,3,0.2,4.5,0.2      c14.8,0,28-7,36.3-17.8C83.8,71.9,84.6,69.5,85.4,67.3 M38.4,90.2c-0.3-0.3-0.4-0.7-0.5-1.2c-0.1-1.1,0-2.2,0.2-3.4      c-0.9-3.2-1.6-6.4-1-9.6c-1.1-0.8-2.4-1.6-3.7-3c-4-4.2-2.4-9,0.1-13.7c0.1-0.2,0.3-0.5,0.5-0.6c-0.9-0.9-1.9-1.7-2.8-2.6      c-1.3-1.4-2.5-3.2-4.5-3.7c-1.4-0.3-2.5-0.7-3.6-1.5c-0.4-0.3-0.8-0.8-1.2-1.2c-0.1-0.1-0.2-0.1-0.2-0.2      c-0.8,0.5-1.9,0.4-3.2-0.6c-1.7-1.5-3.1-4.4-3.7-6.8c-0.4-0.5-0.8-1-1.3-1.5c-0.4-0.4-0.6-0.9-0.6-1.3c-1.9-0.8-3.6-1.3-2.9-4.7      c0.5-2.5,0.1-5.3,1-7.6c0.1-0.2,0.1-0.3,0.2-0.5c-1-0.2-2.1-0.5-2.7-1.2C4.6,31.8,2.5,39.1,2.5,47c0,21.5,15.3,39.4,35.7,43.8      C38.3,90.6,38.3,90.4,38.4,90.2"></path>
			</g>
		</g>
		<g>
			<path class="st0" d="M144.3,64.7v20.4c-4.3,1.5-9.4,3.2-16.3,3.2c-13.7,0-19.6-6.8-20.2-20.6c-0.1-2.8-0.1-4.8,0-7.6     c0.5-13.7,6.3-20.7,20.2-20.7c7,0,10.6,1.1,14.3,2.8v8.4c-4-1.7-8.7-2.8-14.3-2.8c-7.4,0-10.4,4.2-10.7,12.3     c-0.1,2.8-0.1,4.8,0,7.6c0.4,8.3,3.3,12.2,10.7,12.2c3.3,0,5.8-0.4,8.3-0.8V64.7H144.3z"></path>
			<path class="st0" d="M161.6,79.6h20v7.9h-29.2V40.1h9.1V79.6z"></path>
			<path class="st0" d="M225,68.4c-0.6,13.2-6.1,19.9-20.3,19.9c-14.2,0-19.7-6.7-20.4-19.9c-0.1-3.2-0.1-5.8,0-9.1     c0.6-13.2,6.2-20,20.4-20c14.2,0,19.6,6.8,20.3,20C225.2,62.6,225.2,65.2,225,68.4z M204.7,47.8c-8.2,0-10.8,4-11.2,11.6     c-0.1,3.2-0.1,5.8,0,9.1c0.4,7.6,3,11.4,11.2,11.4c8.1,0,10.7-3.8,11.1-11.4c0.1-3.2,0.1-5.8,0-9.1     C215.5,51.7,212.9,47.8,204.7,47.8z"></path>
			<path class="st0" d="M268.5,73.3v1.2c0,9.4-6.8,13.1-17.2,13.1h-18.2V40.1h19.7c9.6,0,13.9,4.5,13.9,12.4V53c0,4-1.3,7.2-4,9.4     C266.5,64.5,268.5,68.2,268.5,73.3z M242.2,47.9v11.5h9.1c4.9,0,6.8-1.6,6.8-5v-1.1c0-3.8-1.7-5.5-5.5-5.5H242.2z M259.4,72.1     c0-3.6-2.4-5.2-8.2-5.2h-9v12.8h9.1c5.8,0,8.1-1.9,8.1-6.3V72.1z"></path>
			<path class="st0" d="M300.2,78.6h-16.4l-3,9h-9.4l16.4-47.5h8.5l17,47.5h-10.1L300.2,78.6z M298,71l-6-20.2L286,71H298z"></path>
			<path class="st0" d="M327.4,79.6h20v7.9h-29.2V40.1h9.1V79.6z"></path>
		</g>
		<g>
			<path class="st1" d="M377,48v13.1h17.6v7.8H377v18.6h-9.1V40.1h31V48H377z"></path>
			<path class="st1" d="M443.5,68.4c-0.6,13.2-6.1,19.9-20.3,19.9c-14.2,0-19.7-6.7-20.4-19.9c-0.1-3.2-0.1-5.8,0-9.1     c0.6-13.2,6.2-20,20.4-20c14.2,0,19.6,6.8,20.3,20C443.6,62.6,443.6,65.2,443.5,68.4z M423.2,47.8c-8.2,0-10.8,4-11.2,11.6     c-0.1,3.2-0.1,5.8,0,9.1c0.4,7.6,3,11.4,11.2,11.4c8.1,0,10.7-3.8,11.1-11.4c0.1-3.2,0.1-5.8,0-9.1     C433.9,51.7,431.3,47.8,423.2,47.8z"></path>
			<path class="st1" d="M490.6,68.4c-0.6,13.2-6.1,19.9-20.3,19.9s-19.7-6.7-20.4-19.9c-0.1-3.2-0.1-5.8,0-9.1     c0.6-13.2,6.2-20,20.4-20s19.6,6.8,20.3,20C490.7,62.6,490.7,65.2,490.6,68.4z M470.3,47.8c-8.2,0-10.8,4-11.2,11.6     c-0.1,3.2-0.1,5.8,0,9.1c0.4,7.6,3,11.4,11.2,11.4c8.1,0,10.7-3.8,11.1-11.4c0.1-3.2,0.1-5.8,0-9.1     C481,51.7,478.4,47.8,470.3,47.8z"></path>
			<path class="st1" d="M535.7,68.4c-0.6,13-4.6,19.1-19.2,19.1h-17.8V40.1h17.8c14.6,0,18.6,6.3,19.2,19.3     C535.8,62.9,535.8,64.9,535.7,68.4z M526.5,59.4c-0.2-6.8-1.9-11.4-10-11.4h-8.6v31.7h8.6c8.1,0,9.8-4.5,10-11.2     C526.7,64.9,526.7,62.9,526.5,59.4z"></path>
		</g>
	</g>
	<g>
		<path class="st1" d="M114.9,120c-4.1,0-6.5-1.8-6.5-6.3c0-5.8,3.1-9.6,8.3-9.6c4.5,0,6.3,2.5,6.3,6.5C123,116,120.1,120,114.9,120    z M116.4,105.5c-4.2,0-6.1,3.9-6.1,7.8c0,3.7,1.7,5.4,5,5.4c3.9,0,5.9-4,5.9-7.5C121.2,107.7,119.9,105.5,116.4,105.5z"></path>
		<path class="st1" d="M136,118.4c0.3,0,0.9-0.1,1.2-0.2c0.2,0.1,0.2,0.4,0.2,0.7c0,0.5-0.7,1-2.5,1c-1.1,0-1.7-0.4-1.7-1.5    c0-0.5,0.1-1.1,0.2-1.9c0,0,0.9-5.1,0.9-5.7c0.1-1-0.4-1.5-1.8-1.5c-1.3,0-3,1-4,2.9l-0.2,1.6c-0.3,2-0.8,5.5-0.8,6    c-0.2,0.1-0.4,0.2-0.9,0.2c-0.8,0-0.9-0.4-0.9-0.9c0-0.8,0.2-1.7,0.3-2.5l0.9-7.2l-1.8,0.1c-0.2-0.2-0.2-0.3-0.2-0.5    c0-0.7,0.7-1,2.6-1c1.1,0,1.5,0.2,1.3,1.1l-0.4,1.9c0.6-1.8,2.6-3.1,4.8-3.1c2.2,0,3.1,1.3,2.8,3.2l-0.8,4.7    c-0.1,0.6-0.2,1-0.2,1.4c0,0.3-0.1,0.5-0.1,0.8C135.1,118.3,135.2,118.4,136,118.4z"></path>
		<path class="st1" d="M144.5,114.1c-0.9,0-2.3-0.1-3.3-0.3c0,0.2,0,0.5,0,0.7c0,2.6,1.3,3.9,3.5,3.9c1.3,0,2.6-0.5,3.9-1.3    c0.2,0.2,0.4,0.4,0.4,0.7c0,0.8-1.3,2.1-4.5,2.1c-3.4,0-5.1-1.7-5.1-5c0-3.8,2-7.3,6.3-7.3c2.7,0,3.8,1.4,3.8,3    C149.5,113,147.7,114.1,144.5,114.1z M145.2,108.9c-1.5,0-3.2,0.8-3.8,3.7c0.7,0.1,2.1,0.2,3,0.2c2.5,0,3.4-0.7,3.4-2.1    C147.8,109.7,146.9,108.9,145.2,108.9z"></path>
		<path class="st1" d="M162.1,119.8c-1.3,0-2.1-0.2-2.6-0.9l-0.8,6c-0.2,0.1-0.4,0.2-0.8,0.2c-0.8,0-0.9-0.4-0.9-0.9    c0-0.6,0.2-1.7,0.3-2.5l1.7-12.4l-1.8,0.1c-0.2-0.2-0.2-0.3-0.2-0.5c0-0.7,0.7-1,2.6-1c1.1,0,1.5,0.2,1.3,1.1l-0.4,1.9    c0.7-2.1,1.9-3.1,4-3.1c2.7,0,3.9,1.9,3.9,4.9C168.4,117,165.8,119.8,162.1,119.8z M163.8,109.1c-1.3,0-2.4,1-3.3,2.9l-0.8,5.8    c0.8,0.5,1.4,0.6,2.8,0.6c2.7,0,4.3-3,4.3-5.5C166.7,110.6,165.9,109.1,163.8,109.1z"></path>
		<path class="st1" d="M178.6,117.4c-0.7,1.6-2.1,2.5-4.3,2.5c-2.3,0-3.7-1.3-3.7-4.4c0-5.2,2.9-7.8,6-7.8c1.7,0,2.5,0.4,2.8,1.4    c0.2-1.1,0.4-1.4,1.1-1.4c0.4,0,0.6,0.1,0.9,0.3l-1,7c-0.2,1.5-0.3,2.3-0.3,2.8c0,0.5,0.1,0.6,0.9,0.6c0.3,0,0.9-0.1,1.2-0.2    c0.2,0.1,0.3,0.4,0.3,0.7c0,0.5-0.7,1-2.5,1c-1,0-1.5-0.4-1.5-1.5C178.5,118.1,178.6,117.8,178.6,117.4z M177,108.9    c-2.8,0-4.5,2.3-4.5,5.9c0,2.5,0.6,3.7,2.6,3.7c1.1,0,2.5-0.7,3.3-1.9l1-7.2C178.8,109.1,178,108.9,177,108.9z"></path>
		<path class="st1" d="M192.7,109.5c-0.4-0.1-1.1-0.1-1.8-0.1c-0.8,0-2.2,1.4-3.7,4.1l-0.2,1.4c-0.1,1-0.3,2.1-0.4,3    s-0.2,1.6-0.2,1.9c-0.2,0.1-0.4,0.2-0.8,0.2c-0.8,0-0.9-0.4-0.9-0.9c0-0.8,0.2-1.7,0.3-2.5l1-7.2l-1.9,0.1    c-0.2-0.2-0.2-0.3-0.2-0.5c0-0.7,0.7-1,2.6-1c1.1,0,1.5,0.2,1.3,1.1l-0.6,3.3c1.7-3.9,2.6-4.5,4.3-4.5c1.2,0,1.5,0.4,1.5,1    C193.1,109,192.9,109.3,192.7,109.5z"></path>
		<path class="st1" d="M200.3,109.5c-1,0-2,0-3,0l-0.8,6.4c-0.1,0.4-0.1,0.8-0.1,1.2c0,1.2,0.5,1.5,1.6,1.5c1,0,2.2-0.6,3.1-1.1    c0.3,0.1,0.5,0.3,0.5,0.6c0,1.6-3.2,1.8-4.3,1.8c-1.9,0-2.7-0.7-2.7-2.6c0-0.4,0-0.7,0.1-1.1c0.3-2.3,0.6-4.6,0.9-6.9l-1.5,0    c-0.1-0.1-0.2-0.3-0.2-0.5c0-0.7,0.6-0.9,1.9-1l0.2-2.3c0.1-0.6,0.4-1.2,1-1.2c0.3,0,0.7,0.1,1,0.3l-0.5,3.2l4.4,0    c0.1,0.2,0.2,0.4,0.2,0.6C201.9,109.2,201.5,109.5,200.3,109.5z"></path>
		<path class="st1" d="M214,118.4c0.3,0,0.9-0.1,1.2-0.2c0.2,0.1,0.2,0.4,0.2,0.7c0,0.5-0.7,1-2.5,1c-1.1,0-1.7-0.4-1.7-1.5    c0-0.5,0.1-1.1,0.2-1.9c0,0,0.9-5.1,0.9-5.7c0.1-1-0.4-1.5-1.8-1.5c-1.3,0-3,1-4,2.9l-0.2,1.6c-0.3,2-0.8,5.5-0.8,6    c-0.2,0.1-0.4,0.2-0.9,0.2c-0.8,0-0.9-0.4-0.9-0.9c0-0.8,0.2-1.7,0.3-2.5l0.9-7.2l-1.8,0.1c-0.2-0.2-0.2-0.3-0.2-0.5    c0-0.7,0.7-1,2.6-1c1.1,0,1.5,0.2,1.3,1.1l-0.4,1.9c0.6-1.8,2.6-3.1,4.8-3.1c2.2,0,3.1,1.3,2.8,3.2l-0.8,4.7    c-0.1,0.6-0.2,1-0.2,1.4c0,0.3-0.1,0.5-0.1,0.8C213.1,118.3,213.2,118.4,214,118.4z"></path>
		<path class="st1" d="M222.4,114.1c-0.9,0-2.3-0.1-3.3-0.3c0,0.2,0,0.5,0,0.7c0,2.6,1.3,3.9,3.5,3.9c1.3,0,2.6-0.5,3.9-1.3    c0.2,0.2,0.4,0.4,0.4,0.7c0,0.8-1.3,2.1-4.5,2.1c-3.4,0-5.1-1.7-5.1-5c0-3.8,2-7.3,6.3-7.3c2.7,0,3.8,1.4,3.8,3    C227.4,113,225.7,114.1,222.4,114.1z M223.2,108.9c-1.5,0-3.2,0.8-3.8,3.7c0.7,0.1,2.1,0.2,3,0.2c2.5,0,3.4-0.7,3.4-2.1    C225.8,109.7,224.9,108.9,223.2,108.9z"></path>
		<path class="st1" d="M237.9,109.5c-0.4-0.1-1.1-0.1-1.8-0.1c-0.8,0-2.2,1.4-3.7,4.1l-0.2,1.4c-0.1,1-0.3,2.1-0.4,3    s-0.2,1.6-0.2,1.9c-0.2,0.1-0.4,0.2-0.8,0.2c-0.8,0-0.9-0.4-0.9-0.9c0-0.8,0.2-1.7,0.3-2.5l1-7.2l-1.9,0.1    c-0.2-0.2-0.2-0.3-0.2-0.5c0-0.7,0.7-1,2.6-1c1.1,0,1.5,0.2,1.3,1.1l-0.6,3.3c1.7-3.9,2.6-4.5,4.3-4.5c1.2,0,1.5,0.4,1.5,1    C238.3,109,238.1,109.3,237.9,109.5z"></path>
		<path class="st1" d="M240.7,122c-0.7,0.8-1.9,1.5-2.8,1.5c-0.4,0-0.7-0.2-0.7-0.5c0-0.1,0-0.1,0-0.2c1.8-1,2.3-1.7,2.3-2.5    c0-1-0.8-1.2-2-1.3c-0.1-0.1-0.1-0.4-0.1-0.5c0-0.7,0.6-1,1.3-1c1.6,0,2.6,1.1,2.6,2.4C241.5,120.5,241.2,121.3,240.7,122z"></path>
		<path class="st1" d="M255.2,114.1c-0.9,0-2.3-0.1-3.3-0.3c0,0.2,0,0.5,0,0.7c0,2.6,1.3,3.9,3.5,3.9c1.3,0,2.6-0.5,3.9-1.3    c0.2,0.2,0.4,0.4,0.4,0.7c0,0.8-1.3,2.1-4.5,2.1c-3.4,0-5.1-1.7-5.1-5c0-3.8,2-7.3,6.3-7.3c2.7,0,3.8,1.4,3.8,3    C260.1,113,258.4,114.1,255.2,114.1z M255.9,108.9c-1.5,0-3.2,0.8-3.8,3.7c0.7,0.1,2.1,0.2,3,0.2c2.5,0,3.4-0.7,3.4-2.1    C258.5,109.7,257.6,108.9,255.9,108.9z"></path>
		<path class="st1" d="M272.9,118.4c0.3,0,0.9-0.1,1.2-0.2c0.2,0.1,0.2,0.4,0.2,0.7c0,0.5-0.7,1-2.5,1c-1.1,0-1.7-0.4-1.7-1.5    c0-0.5,0.1-1.1,0.2-1.9c0,0,0.9-5.1,0.9-5.7c0.1-1-0.4-1.5-1.8-1.5c-1.3,0-3,1-4,2.9l-0.2,1.6c-0.3,2-0.8,5.5-0.8,6    c-0.2,0.1-0.4,0.2-0.9,0.2c-0.8,0-0.9-0.4-0.9-0.9c0-0.8,0.2-1.7,0.3-2.5l0.9-7.2l-1.8,0.1c-0.2-0.2-0.2-0.3-0.2-0.5    c0-0.7,0.7-1,2.6-1c1.1,0,1.5,0.2,1.3,1.1l-0.4,1.9c0.6-1.8,2.6-3.1,4.8-3.1c2.2,0,3.1,1.3,2.8,3.2l-0.8,4.7    c-0.1,0.6-0.2,1-0.2,1.4c0,0.3-0.1,0.5-0.1,0.8C272,118.3,272.2,118.4,272.9,118.4z"></path>
		<path class="st1" d="M285.6,119.8c-1,0-1.5-0.4-1.5-1.5c0-0.3,0.1-1,0.2-1.5c-0.4,2-2.2,2.9-4.3,2.9c-2.3,0-3.7-1.3-3.7-4.4    c0-5.1,2.9-7.8,6-7.8c1.6,0,2.4,0.4,2.8,1.3l0.7-5c0.2-1.4,0.4-1.7,1.2-1.7c0.4,0,0.6,0.1,0.8,0.2l-1.5,11.3    c-0.2,2-0.5,3.6-0.5,4.1c0,0.5,0.1,0.6,0.8,0.6c0.3,0,0.9-0.1,1.2-0.2c0.2,0.1,0.2,0.4,0.2,0.7    C288.1,119.4,287.4,119.8,285.6,119.8z M282.6,108.9c-2.8,0-4.5,2.3-4.5,5.9c0,2.5,0.6,3.7,2.6,3.7c1,0,2.5-0.7,3.3-1.9l1-7.2    C284.4,109.1,283.6,108.9,282.6,108.9z"></path>
		<path class="st1" d="M290.4,116.4l1.7-12.6c0.2-1.4,0.4-1.7,1.2-1.7c0.4,0,0.6,0.1,0.9,0.2l-1.5,11.3c-0.3,2-0.5,3.6-0.5,4.1    c0,0.5,0.1,0.6,0.9,0.6c0.3,0,0.9-0.1,1.2-0.2c0.2,0.1,0.2,0.4,0.2,0.7c0,0.5-0.7,1-2.5,1c-1.1,0-1.7-0.4-1.7-1.5    C290.3,117.9,290.3,117.2,290.4,116.4z"></path>
		<path class="st1" d="M301.8,114.1c-0.9,0-2.3-0.1-3.3-0.3c0,0.2,0,0.5,0,0.7c0,2.6,1.3,3.9,3.5,3.9c1.3,0,2.6-0.5,3.9-1.3    c0.2,0.2,0.4,0.4,0.4,0.7c0,0.8-1.3,2.1-4.5,2.1c-3.4,0-5.1-1.7-5.1-5c0-3.8,2-7.3,6.3-7.3c2.7,0,3.8,1.4,3.8,3    C306.7,113,305,114.1,301.8,114.1z M302.5,108.9c-1.5,0-3.2,0.8-3.8,3.7c0.7,0.1,2.1,0.2,3,0.2c2.5,0,3.4-0.7,3.4-2.1    C305.1,109.7,304.2,108.9,302.5,108.9z"></path>
		<path class="st1" d="M317,109.9c-0.8-0.6-1.8-0.8-3-0.8c-1.7,0-2.7,0.9-2.7,1.8c0,1.2,0.5,1.6,3,2.5c2.2,0.8,2.7,1.6,2.7,2.9    c0,1.7-1.3,3.5-4.3,3.5c-1.1,0-4.5-0.1-4.5-1.7c0-0.6,0.4-0.9,1-1c0.8,1,2.4,1.4,3.7,1.4c1.5,0,2.4-0.7,2.4-1.8    c0-0.9-0.5-1.4-2.4-2.1c-2.4-0.8-3.3-1.6-3.3-3.5c0-2,1.9-3.5,4.7-3.5c2.1,0,3.3,0.6,3.3,1.4C317.6,109.5,317.4,109.7,317,109.9z"></path>
		<path class="st1" d="M327.7,109.9c-0.8-0.6-1.8-0.8-3-0.8c-1.7,0-2.7,0.9-2.7,1.8c0,1.2,0.5,1.6,3,2.5c2.2,0.8,2.7,1.6,2.7,2.9    c0,1.7-1.3,3.5-4.3,3.5c-1.1,0-4.5-0.1-4.5-1.7c0-0.6,0.4-0.9,1-1c0.8,1,2.4,1.4,3.7,1.4c1.5,0,2.4-0.7,2.4-1.8    c0-0.9-0.5-1.4-2.4-2.1c-2.4-0.8-3.3-1.6-3.3-3.5c0-2,1.9-3.5,4.7-3.5c2.1,0,3.3,0.6,3.3,1.4C328.3,109.5,328.1,109.7,327.7,109.9    z"></path>
		<path class="st1" d="M345.1,109.6c-0.7-0.3-1.5-0.4-2.8-0.4c-2.4,0-4.5,1.6-4.5,5.2c0,2.8,1.1,4,3.2,4c1.2,0,2.4-0.2,3.7-0.8    c0.2,0.2,0.3,0.5,0.3,0.7c0,0.9-1.2,1.6-4.4,1.6c-3.1,0-4.7-1.8-4.7-4.9c0-4.5,2.4-7.4,6.7-7.4c2.1,0,2.8,0.4,2.8,1.2    C345.6,109.1,345.4,109.4,345.1,109.6z"></path>
		<path class="st1" d="M354.8,116.4c0,0,0.9-5.1,1-5.7c0.1-1-0.4-1.5-1.8-1.5c-1.3,0-3.1,1-4.1,2.9l-0.2,1.6c-0.3,2-0.8,5.5-0.8,6    c-0.2,0.1-0.4,0.2-0.8,0.2c-0.8,0-0.9-0.4-0.9-0.9c0-0.8,0.2-1.9,0.3-2.7l1.7-12.4c0.2-1.4,0.4-1.7,1.2-1.7c0.4,0,0.6,0.1,0.8,0.2    l-1.1,8.1c0.7-1.5,2.5-2.7,4.7-2.7c2.2,0,3.1,1.3,2.8,3.2l-0.8,4.7c-0.2,1-0.3,1.8-0.3,2.1c0,0.5,0.1,0.6,0.9,0.6    c0.3,0,0.9-0.1,1.2-0.2c0.2,0.1,0.2,0.4,0.2,0.7c0,0.5-0.7,1-2.5,1c-1.1,0-1.7-0.4-1.7-1.5C354.6,117.9,354.7,117.2,354.8,116.4z"></path>
		<path class="st1" d="M365.5,119.9c-3.1,0-4.7-1.7-4.7-5.1c0-4.2,2.6-7.2,6.4-7.2c3.5,0,4.7,2,4.7,5    C371.9,116.9,369.6,119.9,365.5,119.9z M366.8,109c-2.7,0-4.3,2.7-4.3,5.4c0,2.8,1,4.1,3.4,4.1c2.8,0,4.2-2.8,4.2-5.5    S369.2,109,366.8,109z"></path>
		<path class="st1" d="M376.5,119.8c-1.1,0-1.7-0.4-1.7-1.5c0-0.4,0.1-1.1,0.2-1.9l1-7.2l-1.9,0.1c-0.2-0.1-0.2-0.3-0.2-0.5    c0-0.7,0.7-1,2.6-1c1.1,0,1.5,0.2,1.3,1.1l-0.6,4.7c-0.3,2-0.5,3.6-0.5,4.1c0,0.5,0.1,0.6,0.9,0.6c0.3,0,0.9-0.1,1.2-0.2    c0.2,0.1,0.2,0.4,0.2,0.7C379,119.4,378.3,119.8,376.5,119.8z M377.7,105c-0.7,0-1.1-0.3-1.1-1c0-0.7,0.5-1.2,1.5-1.2    c0.8,0,1.1,0.4,1.1,1C379.1,104.5,378.6,105,377.7,105z"></path>
		<path class="st1" d="M390.3,109.6c-0.7-0.3-1.5-0.4-2.8-0.4c-2.4,0-4.5,1.6-4.5,5.2c0,2.8,1.1,4,3.2,4c1.2,0,2.4-0.2,3.7-0.8    c0.2,0.2,0.3,0.5,0.3,0.7c0,0.9-1.2,1.6-4.4,1.6c-3.1,0-4.7-1.8-4.7-4.9c0-4.5,2.4-7.4,6.7-7.4c2.1,0,2.8,0.4,2.8,1.2    C390.8,109.1,390.6,109.4,390.3,109.6z"></path>
		<path class="st1" d="M397.3,114.1c-0.9,0-2.3-0.1-3.3-0.3c0,0.2,0,0.5,0,0.7c0,2.6,1.3,3.9,3.5,3.9c1.3,0,2.6-0.5,3.9-1.3    c0.2,0.2,0.4,0.4,0.4,0.7c0,0.8-1.3,2.1-4.5,2.1c-3.4,0-5.1-1.7-5.1-5c0-3.8,2-7.3,6.3-7.3c2.7,0,3.8,1.4,3.8,3    C402.2,113,400.5,114.1,397.3,114.1z M398,108.9c-1.5,0-3.2,0.8-3.8,3.7c0.7,0.1,2.1,0.2,3,0.2c2.5,0,3.4-0.7,3.4-2.1    C400.6,109.7,399.7,108.9,398,108.9z"></path>
		<path class="st1" d="M412.5,109.9c-0.8-0.6-1.8-0.8-3-0.8c-1.7,0-2.7,0.9-2.7,1.8c0,1.2,0.5,1.6,3,2.5c2.2,0.8,2.7,1.6,2.7,2.9    c0,1.7-1.3,3.5-4.3,3.5c-1.1,0-4.5-0.1-4.5-1.7c0-0.6,0.4-0.9,1-1c0.8,1,2.4,1.4,3.7,1.4c1.5,0,2.4-0.7,2.4-1.8    c0-0.9-0.5-1.4-2.4-2.1c-2.4-0.8-3.3-1.6-3.3-3.5c0-2,1.9-3.5,4.7-3.5c2.1,0,3.3,0.6,3.3,1.4C413.1,109.5,412.9,109.7,412.5,109.9    z"></path>
	</g>
</g>
<g>
	<path class="st0" d="M123.6,7.3v3.4h-5.9v16.8h-3.9V10.6h-5.9V7.3H123.6z"></path>
	<path class="st0" d="M139.4,27.4l-1.3-1.6c-1.4,1.1-3.3,1.9-5.7,1.9c-4.2,0-6.5-2.1-6.5-5.4v-0.4c0-2.5,1.9-4.2,3.9-5.7   c-1.1-1.4-2-3-2-4.7v-0.2c0-3.2,1.7-4.6,5.2-4.6c3.5,0,5.2,1.5,5.2,4.5v0.2c0,1.5-0.4,3-2.4,4.5c-0.4,0.3-0.9,0.7-1.3,1   c0.2,0.3,0.4,0.5,0.6,0.7l2.8,3.2c0.3-0.8,0.4-1.6,0.4-2.5v-1h3.2v0.9c0,1.8-0.4,3.6-1.3,5.2l3.5,4.1L139.4,27.4z M135.8,23.2   l-4-4.6c0,0,0,0,0,0c-1.2,0.9-2,1.9-2,3.2l0,0.4c0,1.2,0.9,2.2,2.5,2.2C133.7,24.3,134.9,23.9,135.8,23.2z M132.5,14.4l0.6-0.4   c1.2-0.8,1.4-1.5,1.4-2.4v-0.2c0-0.9-0.5-1.5-1.5-1.5c-1,0-1.6,0.5-1.6,1.6v0.2C131.4,12.5,131.8,13.4,132.5,14.4z"></path>
	<path class="st0" d="M158.9,27.4l-3.5-6.8h-0.2l-4.5,0v6.7h-3.8V7.3h8.3c5.1,0,7,2.5,7.2,6c0,0.6,0,0.9,0,1.5   c-0.1,2.4-1,4.4-3.3,5.3l4,7.4L158.9,27.4z M155.2,17.3c2.4,0,3.1-1.1,3.2-2.7c0-0.5,0-0.8,0-1.3c-0.1-1.6-0.7-2.7-3.2-2.7h-4.4   v6.7H155.2z"></path>
</g>
</svg>
