<?xml version="1.0" encoding="UTF-8"?>
<!-- Generator: Adobe Illustrator 27.8.0, SVG Export Plug-In . SVG Version: 6.00 Build 0)  -->
<svg xmlns="http://www.w3.org/2000/svg" xmlns:xlink="http://www.w3.org/1999/xlink" version="1.1" id="Ebene_1" x="0px" y="0px" viewBox="0 0 363 356" style="enable-background:new 0 0 363 356;" xml:space="preserve">
<style type="text/css">
	.st0{clip-path:url(#SVGID_00000056415982924423725900000013425495034652024764_);}
	.st1{clip-path:url(#SVGID_00000072987558973296126920000014133049108538221447_);fill:#B7A384;}
	.st2{clip-path:url(#SVGID_00000098205278086542234640000011836835648320140176_);fill:#EFE51B;}
	.st3{clip-path:url(#SVGID_00000011710384894124445980000007844499498462160813_);fill:#EFE51B;}
	.st4{clip-path:url(#SVGID_00000013901429061060432370000004196588865481316029_);fill:#EFE51B;}
	.st5{clip-path:url(#SVGID_00000059994957868339570550000004930468502559098516_);fill:#EFE51B;}
	.st6{clip-path:url(#SVGID_00000181066125711693331900000003164107999401747867_);fill:#EFE51B;}
	.st7{clip-path:url(#SVGID_00000084517919028531410030000008285684907055083426_);fill:#EFE51B;}
	.st8{clip-path:url(#SVGID_00000054230265423088346650000008708005720051018118_);fill:#445236;}
	.st9{clip-path:url(#SVGID_00000075155034020638944780000004943036666454764935_);fill:#445236;}
	.st10{clip-path:url(#SVGID_00000026883331803178772640000001263836370410371760_);fill:#445236;}
	.st11{clip-path:url(#SVGID_00000140718187669582938710000012712390523699876486_);fill:#445236;}
</style>
<g>
	<g>
		<g>
			<g>
				<g>
					<g>
						<defs>
							<rect id="SVGID_1_" x="3.5" width="356" height="356"></rect>
						</defs>
						<clipPath id="SVGID_00000021826875371839951140000002850596552970338738_">
							<use xlink:href="#SVGID_1_" style="overflow:visible;"></use>
						</clipPath>
					</g>
				</g>
			</g>
		</g>
	</g>
	<g>
		<g>
			<g>
				<g>
					<g>
						<defs>
							<rect id="SVGID_00000170963353004810892090000009073524709235733670_" x="3.5" width="356" height="356"></rect>
						</defs>
						<clipPath id="SVGID_00000029750236053886032240000009611350159361846462_">
							<use xlink:href="#SVGID_00000170963353004810892090000009073524709235733670_" style="overflow:visible;"></use>
						</clipPath>
						<g style="clip-path:url(#SVGID_00000029750236053886032240000009611350159361846462_);">
							<g>
								<g>
									<g>
										<defs>
											<rect id="SVGID_00000025411333684639380530000002945599358239248572_" x="3.5" width="356" height="356"></rect>
										</defs>
										<clipPath id="SVGID_00000074435802328159043920000009498753925220494508_">
											<use xlink:href="#SVGID_00000025411333684639380530000002945599358239248572_" style="overflow:visible;"></use>
										</clipPath>
										<path style="clip-path:url(#SVGID_00000074435802328159043920000009498753925220494508_);fill:#B7A384;" d="M359.4,177.9            c0,98.3-79.7,177.9-177.9,177.9s-178-79.5-178-177.9S83.1,0,181.4,0S359.4,79.6,359.4,177.9"></path>
									</g>
								</g>
							</g>
							<g>
								<g>
									<g>
										<defs>
											<rect id="SVGID_00000116942134249531408360000009834208792306343066_" x="3.5" width="356" height="356"></rect>
										</defs>
										<clipPath id="SVGID_00000082366967182789941550000013969278183546497971_">
											<use xlink:href="#SVGID_00000116942134249531408360000009834208792306343066_" style="overflow:visible;"></use>
										</clipPath>
										<polygon style="clip-path:url(#SVGID_00000082366967182789941550000013969278183546497971_);fill:#EFE51B;" points="            48.8,108.2 73.5,108.2 73.5,136.3 100.5,136.3 100.5,108.2 125.3,108.2 125.3,188.3 100.5,188.3 100.5,155.9 73.5,155.9             73.5,188.3 48.8,188.3           "></polygon>
									</g>
								</g>
							</g>
							<g>
								<g>
									<g>
										<defs>
											<rect id="SVGID_00000089566354508553652000000010962148418641782974_" x="3.5" width="356" height="356"></rect>
										</defs>
										<clipPath id="SVGID_00000036968210991572803810000001330269117762790582_">
											<use xlink:href="#SVGID_00000089566354508553652000000010962148418641782974_" style="overflow:visible;"></use>
										</clipPath>
										<path style="clip-path:url(#SVGID_00000036968210991572803810000001330269117762790582_);fill:#EFE51B;" d="M193.8,108.2            h24.7v47.7c0,4.7-0.8,9.2-2.2,13.4c-1.4,4.2-3.8,7.9-6.9,11.1c-3.2,3.2-6.5,5.4-9.9,6.6c-4.8,1.8-10.5,2.6-17.3,2.6            c-3.9,0-8.1-0.2-12.7-0.8c-4.6-0.5-8.4-1.6-11.5-3.4s-5.9-3.9-8.4-6.9c-2.5-3-4.3-6-5.3-9.2c-1.5-5-2.3-9.6-2.3-13.5            v-47.7h24.7v49c0,4.4,1.2,7.7,3.6,10.2c2.4,2.4,5.8,3.7,10.1,3.7s7.6-1.2,10.1-3.6c2.4-2.4,3.6-5.8,3.6-10.3v-48.9            C194,108.2,193.8,108.2,193.8,108.2z"></path>
									</g>
								</g>
							</g>
							<g>
								<g>
									<g>
										<defs>
											<rect id="SVGID_00000057862348469620514280000006988735125834203325_" x="3.5" width="356" height="356"></rect>
										</defs>
										<clipPath id="SVGID_00000168089873326441589980000003920753211237834161_">
											<use xlink:href="#SVGID_00000057862348469620514280000006988735125834203325_" style="overflow:visible;"></use>
										</clipPath>
										<polygon style="clip-path:url(#SVGID_00000168089873326441589980000003920753211237834161_);fill:#EFE51B;" points="            234.6,108.2 267.1,108.2 279.7,157 292.2,108.2 324.7,108.2 324.7,188.3 304.5,188.3 304.5,127.3 288.8,188.3             270.5,188.3 254.9,127.3 254.9,188.3 234.6,188.3           "></polygon>
									</g>
								</g>
							</g>
							<g>
								<g>
									<g>
										<defs>
											<rect id="SVGID_00000127753503996053008460000002847021561991230602_" x="3.5" width="356" height="356"></rect>
										</defs>
										<clipPath id="SVGID_00000016055086503063369790000003610058443329947524_">
											<use xlink:href="#SVGID_00000127753503996053008460000002847021561991230602_" style="overflow:visible;"></use>
										</clipPath>
										<polygon style="clip-path:url(#SVGID_00000016055086503063369790000003610058443329947524_);fill:#EFE51B;" points="            48.5,202.7 82.1,202.7 95,253 108,202.7 141.5,202.7 141.5,285.5 120.6,285.5 120.6,222.3 104.5,285.5 85.5,285.5             69.4,222.3 69.4,285.5 48.5,285.5           "></polygon>
									</g>
								</g>
							</g>
							<g>
								<g>
									<g>
										<defs>
											<rect id="SVGID_00000057115113238281232800000007462688985098574750_" x="3.5" width="356" height="356"></rect>
										</defs>
										<clipPath id="SVGID_00000175305280494517874890000002112037910235877260_">
											<use xlink:href="#SVGID_00000057115113238281232800000007462688985098574750_" style="overflow:visible;"></use>
										</clipPath>
										<path style="clip-path:url(#SVGID_00000175305280494517874890000002112037910235877260_);fill:#EFE51B;" d="M211.8,202.7            h25.5V252c0,4.9-0.8,9.5-2.3,13.8c-1.5,4.4-3.9,8.1-7.1,11.4c-3.4,3.4-6.7,5.5-10.3,6.9c-4.9,1.9-11,2.7-17.9,2.7            c-4.1,0-8.4-0.3-13.2-0.9c-4.7-0.5-8.8-1.6-12-3.4c-3.2-1.6-6.1-4.1-8.8-7.1c-2.6-3.1-4.5-6.2-5.5-9.5            c-1.5-5.3-2.4-10.1-2.4-14v-49.3h25.5v50.5c0,4.5,1.2,8,3.7,10.6c2.5,2.5,6,3.8,10.4,3.8s7.9-1.2,10.4-3.7s3.7-6,3.7-10.6            v-50.5L211.8,202.7L211.8,202.7z"></path>
									</g>
								</g>
							</g>
							<g>
								<g>
									<g>
										<defs>
											<rect id="SVGID_00000081639167376851438630000009056752554198057392_" x="3.5" width="356" height="356"></rect>
										</defs>
										<clipPath id="SVGID_00000096764982145272846030000007617841065205088148_">
											<use xlink:href="#SVGID_00000081639167376851438630000009056752554198057392_" style="overflow:visible;"></use>
										</clipPath>
										<path style="clip-path:url(#SVGID_00000096764982145272846030000007617841065205088148_);fill:#EFE51B;" d="M249.9,258.1            l24.3-1.5c0.5,3.9,1.6,7,3.2,9c2.6,3.4,6.4,5,11.3,5c3.6,0,6.5-0.9,8.4-2.5c2-1.8,3-3.7,3-5.9s-1-4.1-2.9-5.8            c-1.9-1.6-6.2-3.4-13.2-4.8c-11.2-2.5-19.2-5.9-24-10.1c-4.8-4.2-7.2-9.5-7.2-16c0-4.3,1.2-8.2,3.7-12.1            c2.4-3.8,6.1-6.8,11.2-8.9c4.9-2.2,11.7-3.4,20.4-3.4c10.6,0,18.6,2,24.2,5.9c5.5,3.9,8.9,10.2,9.9,18.7l-24.1,1.4            c-0.7-3.7-2-6.5-4.1-8.1s-4.9-2.5-8.6-2.5c-3,0-5.3,0.7-6.7,1.9c-1.5,1.3-2.3,2.9-2.3,4.6c0,1.3,0.7,2.5,1.9,3.5            c1.2,1.2,4.1,2.1,8.6,3.1c11.2,2.4,19.2,4.8,24,7.3c4.8,2.4,8.3,5.5,10.5,9.2c2.2,3.6,3.4,7.7,3.4,12.3            c0,5.3-1.4,10.2-4.4,14.7c-3,4.5-7,7.9-12.3,10.2c-5.2,2.3-12,3.5-20,3.5c-14,0-23.8-2.7-29.3-8.1            C253.6,273.3,250.5,266.4,249.9,258.1"></path>
									</g>
								</g>
							</g>
							<g>
								<g>
									<g>
										<defs>
											<rect id="SVGID_00000039849654539394822360000013909915718578516155_" x="3.5" width="356" height="356"></rect>
										</defs>
										<clipPath id="SVGID_00000043423486661656158810000008070440004045764013_">
											<use xlink:href="#SVGID_00000039849654539394822360000013909915718578516155_" style="overflow:visible;"></use>
										</clipPath>
										<path style="clip-path:url(#SVGID_00000043423486661656158810000008070440004045764013_);fill:#445236;" d="M99.5,85.2            c2.1,0.8,3.2,3,3.2,6.7v1.2c0,4.8,0.2,11.7,0.8,20.8l0.8,0.4c1.2-2.4,3.4-4.6,6.7-6.8c2.4-2,5.2-4.1,8.2-6.2            c2.4-1.8,4.6-3.4,6.8-4.8c1.5-0.9,3.7-2.2,6.7-3.7c1.2-1.8,1.6-2.6,1.3-2.7c0.1,0.5,0.3,0.8,0.8,0.8            c1-1.4,2.2-2.4,3.5-2.7l0.8,0.4h2c1.5-1.2,2.9-1.2,3.8-0.4c0.5,1.2-6.6,6.8-21.2,17l-17.6,15.2c-2.1,0.9-3.2,2-3.2,3.2            l0.4,1.5c-0.4,1.4-1.2,7.6-2.4,18.5c-2.9,11.1-6.8,22.4-11.8,33.9c0,1.5-2.5,6-7.5,13.4c-0.4,0-1.4,1.8-3.2,5.2            c-11.1,13.2-20.2,19.9-27.2,19.9c-7.6,0-11.4-5.3-11.4-15.8c2.4-11.5,4.4-17.3,5.9-17.3c0.2,0,0.4-0.1,0.4-0.4v-1.5            c0-0.2-0.1-0.4-0.4-0.4c2.1-4.2,3.2-6.5,3.2-6.7c1.9-3.2,3.2-4.7,3.9-4.7l-0.4-2c0-0.4,1.2-1.9,3.2-4.3            c0-0.8,1.3-2.5,3.9-5.5c0.9-3.1,2.2-4.6,3.9-4.7l-0.4-0.8c1.9-2.5,4.3-5.3,7.1-8.2c0-0.3,0.8-1.2,2.4-2.4            c0-1.5,1.9-3.5,5.5-5.9l-0.8-1.2c1.3-1.9,3.9-3.7,7.9-5.5c0-0.5,2-2.1,5.9-4.3c0-0.8,1.2-2.4,3.5-4.7v-4.2            c0-1.4,0.1-3.4,0.4-5.5c-0.5-1.4-0.8-2.4-0.8-3.2l0.4-4.7c-0.2-4.8-0.7-9.5-1.2-14.1C93.7,86.1,95.6,85.2,99.5,85.2             M51.6,180.8l0.4,2c-1.2,4.3-2.5,7-3.9,8.2l0.4,2v0.8c0,0.8-0.2,1.5-0.8,2.4c0.2,1.4,0.4,2.5,0.4,3.2            c0,0.7-0.1,1.8-0.4,3.2c1.2,4.2,2.2,6.2,3.2,6.2h3.5c6.7-4.2,10.9-7.3,12.6-9.4c7.9-9.9,12.7-17.4,14.6-22.8            c4.2-7.6,7.5-16.2,9.9-26l2-8.7l-0.4-0.8c0.8-2.5,1.2-3.9,1.2-4.3V133c0-0.2,0.1-0.4,0.4-0.4l-0.4-0.8v-2h-0.4            C79.3,142.9,70.5,152.3,67,158c-8.7,11.6-12.9,18.4-12.9,20.5C53.5,178.4,52.7,179.3,51.6,180.8 M103.5,59.2            c0.4,0,0.8,0.4,1.2,1.2v1.5c-1.4,4.9-3.4,7.5-5.9,7.5c-2.6,0-4.5-1.2-5.5-3.2v-1.5C94.5,62.4,97.9,60.5,103.5,59.2"></path>
									</g>
								</g>
							</g>
							<g>
								<g>
									<g>
										<defs>
											<rect id="SVGID_00000033329810388109535000000014277103231974574995_" x="3.5" width="356" height="356"></rect>
										</defs>
										<clipPath id="SVGID_00000132074383307374445090000013121796345808081081_">
											<use xlink:href="#SVGID_00000033329810388109535000000014277103231974574995_" style="overflow:visible;"></use>
										</clipPath>
										<path style="clip-path:url(#SVGID_00000132074383307374445090000013121796345808081081_);fill:#445236;" d="M143.3,84.5            c1.2,0,2.4,0.5,3.9,1.5c0,0.9-2.4,5.2-7.1,12.6c-1.2,2.2-1.9,5.9-2.4,11c0.5,1.2,1.2,1.9,1.5,2c2.6,0,7.9-3.4,15.8-9.9            c4.1-3.9,8.8-9.2,14.1-15.8c1.9-0.5,3.4-0.8,4.7-0.8h1.2c0.4,0,0.9,0.7,1.5,2c0,0.5-1.5,2.6-4.7,6.2            c-1.2,1.5-2.4,4.6-3.9,9.4v3.5c0,0.3,0.7,1,2,2c3.8,0,11.6-6,23.3-18.1c2.1-2.9,4.1-4.7,5.9-5.5h0.4            c0.5,0.1,0.8,0.3,0.8,0.8c-2,6.1-7.2,13.8-15.9,23.2c-4.9,4.5-9.9,6.7-14.6,6.7h-0.3c-4.6,0-8.2-3.4-10.6-9.9            c-8.2,8.1-13.6,12.3-16.1,12.3c-1.9,0.5-3.4,0.8-4.7,0.8c-4.3,0-7.1-2.9-8.2-8.7v-0.4c0-7.7,3.5-15.9,10.6-24.3            C141.1,85.3,142,85.1,143.3,84.5"></path>
									</g>
								</g>
							</g>
							<g>
								<g>
									<g>
										<defs>
											<rect id="SVGID_00000163065376828507518470000009921194271728687032_" x="3.5" width="356" height="356"></rect>
										</defs>
										<clipPath id="SVGID_00000023961422924120407460000014734564368144639399_">
											<use xlink:href="#SVGID_00000163065376828507518470000009921194271728687032_" style="overflow:visible;"></use>
										</clipPath>
										<path style="clip-path:url(#SVGID_00000023961422924120407460000014734564368144639399_);fill:#445236;" d="M211.4,74.7            c4.7,0.9,7.1,3.4,7.1,7.1c-1.3,6.2-3.1,9.4-5.2,9.4c-0.2,0-0.7,0.1-1.2,0.4c-1.4,0-2.4-0.8-3.2-2.4            c1.2-3.2,1.5-5.5,1.5-7.5c0-0.5-0.2-0.8-0.8-0.8c-4.7,0.7-7.1,2.1-7.1,4.3c0,5.9,2.4,12,7.1,18.1l0.8,0.4            c1.4-1.2,4.1-2.9,7.9-5.2c8-5.2,15.5-7.9,22.3-8.4c3.2-2.1,5.7-3.2,7.5-3.2l0.4,0.8V89c-1.2,0-3.7,1.9-7.9,5.5            c-5.3,3-13.6,7.6-25,13.9l-1.5,2c2.1,3.5,3.2,7.5,3.2,11.8c-1.5,5.4-5,9.9-10.6,13.4c-4.3,3.6-9.4,5.8-15.3,6.7            c-7.1-1.2-10.6-3.4-10.6-7.1v-2c0-2.2,2-4.9,5.9-8.2c2.9-3.6,8.8-8.9,17.7-15.7l0.4-0.8v-0.8c-6.2-9.1-9.4-16.2-9.4-21.6            c0.5-6,2.5-9.1,5.9-9.1C204.8,75.8,208.2,75,211.4,74.7 M188.6,134.4v0.4c0.1,0.8,1.2,1.2,2.7,1.2c4.3,0,9.6-3,16.1-9.1            c0-0.3,0.8-2.1,2.4-5.2v-3.1c0-0.7-0.2-1.9-0.8-3.5h-1.5C194.9,125.4,188.6,131.9,188.6,134.4"></path>
									</g>
								</g>
							</g>
							<g>
								<g>
									<g>
										<defs>
											<rect id="SVGID_00000139990750229703219150000012891044938525792427_" x="3.5" width="356" height="356"></rect>
										</defs>
										<clipPath id="SVGID_00000152265693030355267420000008276186415125126802_">
											<use xlink:href="#SVGID_00000139990750229703219150000012891044938525792427_" style="overflow:visible;"></use>
										</clipPath>
										<path style="clip-path:url(#SVGID_00000152265693030355267420000008276186415125126802_);fill:#445236;" d="M312.1,46            l-48.4,8.8c0.2,0.1-0.7,1.6-2.5,4.7c0,0.8-2.1,5.2-6.2,13.3c-4.9,14.6-7.5,22.4-7.5,23.1c0,0.3,0.1,0.8,0.4,1.4            c-0.8,3.2-1.2,6.4-1.2,9.6v4.2c0.7,3.8,2.9,5.8,6.6,5.8c4.3,0,12.3-3.8,23.8-11.5c3.4-2.1,6.5-4.3,9.1-6.4            c3.4-3.7,7.3-8.8,11.8-15.5l0.5,0.9c-0.5,3.9-1.6,7.6-3.4,10.7c-8.4,10.2-14.4,16-17.8,17.5c-1.6,1.8-4.2,3.5-7.5,5.5            c-6.7,4.6-12.4,6.9-17.1,6.9c-5.5-0.8-9.4-2.7-12-5.8c0-1.2-0.7-2.7-2-4.5l0.4-0.8v-1c0-1.2-0.4-2.2-1.2-3.4v-0.8l0.8-1.4            v-2.6c0-1.2,0.1-2.5,0.4-4.3c-0.2-0.5-0.4-1-0.4-1.3c0.8-4.6,2.4-10.1,4.7-16c0.4-3.8,1.4-6.7,3.2-8.8            c0.8-4.1,2-7.1,3.5-9.1c1.9-3.5,2.7-5.8,2.7-6.9c-0.4,0-0.9-0.1-1.4-0.4l-34,6.5c-2.3-1.2-3.7-2.5-4.4-3.9l0.4-2.4l1-2.2            c21.6-4.7,36.5-7.6,45-8.4c3.9-5.8,6-9.5,6-11.2c1-1.3,2.7-4.9,5.4-11l0.5-0.4l2,0.5l2.3-0.5c1.2,1.5,1.8,2.6,1.8,3.4            c0,1.8-2.6,7.1-7.9,16c0.1,0.9,0.4,1.3,1.2,1.3h6.4c1.3-0.5,12.5-1.8,33.7-3.4C315.2,44.3,312.1,46,312.1,46"></path>
									</g>
								</g>
							</g>
						</g>
					</g>
				</g>
			</g>
		</g>
	</g>
	<g>
		<g>
			<g>
				<g>
					<g>
						<defs>
							<rect id="SVGID_00000169517856346997630660000015544718875643675010_" x="3.5" width="356" height="356"></rect>
						</defs>
						<clipPath id="SVGID_00000045614769707516020760000008525173014364719013_">
							<use xlink:href="#SVGID_00000169517856346997630660000015544718875643675010_" style="overflow:visible;"></use>
						</clipPath>
					</g>
				</g>
			</g>
		</g>
	</g>
</g>
</svg>
