<?xml version="1.0" encoding="UTF-8"?>
<!-- Generator: Adobe Illustrator 27.8.0, SVG Export Plug-In . SVG Version: 6.00 Build 0)  -->
<svg xmlns="http://www.w3.org/2000/svg" xmlns:xlink="http://www.w3.org/1999/xlink" version="1.1" id="Ebene_1" x="0px" y="0px" viewBox="0 0 106.4 106.4" style="enable-background:new 0 0 106.4 106.4;" xml:space="preserve">
<style type="text/css">
	.st0{fill:#3A3939;}
	.st1{fill:#FFFFFF;}
</style>
<circle class="st0" cx="53.2" cy="53.2" r="53.2"></circle>
<g>
	<path class="st1" d="M53.3,59.6c-11.3-9.9-22.5-19.7-34.2-30h68.3C75.9,39.8,64.7,49.6,53.3,59.6C53.3,59.6,53.3,59.6,53.3,59.6z"></path>
	<path class="st1" d="M87.7,76.8H18.9c8.2-7.2,15.8-14,23.7-20.9c3.5,3.1,7,6.1,10.7,9.3c3.5-3.1,6.9-6,10.6-9.3   C71.7,62.7,79.4,69.5,87.7,76.8L87.7,76.8z"></path>
	<path class="st1" d="M39.5,53.1C31.3,60.2,23.6,67,15.4,74.2V31.9C23.6,39.2,31.4,46,39.5,53.1L39.5,53.1L39.5,53.1z"></path>
	<path class="st1" d="M67.1,53.1c8.1-7.1,15.8-13.9,24-21.1v42.1C83,67,75.2,60.1,67.1,53.1L67.1,53.1L67.1,53.1z"></path>
</g>
</svg>
