<?xml version="1.0" encoding="UTF-8"?>
<!-- Generator: Adobe Illustrator 27.8.0, SVG Export Plug-In . SVG Version: 6.00 Build 0)  -->
<svg xmlns="http://www.w3.org/2000/svg" xmlns:xlink="http://www.w3.org/1999/xlink" version="1.1" id="Ebene_1" x="0px" y="0px" viewBox="0 0 324 324" style="enable-background:new 0 0 324 324;" xml:space="preserve">
<style type="text/css">
	.st0{fill:#007330;}
	.st1{clip-path:url(#SVGID_00000176740052108206945210000015198446772110714547_);}
	.st2{fill:#FED500;}
	.st3{fill:#FFFFFF;}
</style>
<g>
	<circle class="st0" cx="162" cy="162" r="162"></circle>
	<g id="Gruppe_63" transform="translate(-0.385 0.357)">
		<g>
			<defs>
				<rect id="SVGID_1_" x="12" y="6.6" width="300.8" height="300.8"></rect>
			</defs>
			<clipPath id="SVGID_00000061453273974405126050000007946665880686714499_">
				<use xlink:href="#SVGID_1_" style="overflow:visible;"></use>
			</clipPath>
			<g id="Gruppe_62" style="clip-path:url(#SVGID_00000061453273974405126050000007946665880686714499_);">
				<path id="Pfad_305" class="st2" d="M123.1,142.6c12.2,6,16.3-3.3,16.3-3.3c-2.2-1.2-4.6-1.8-7-1.9      C128.6,137.4,125.1,139.4,123.1,142.6"></path>
				<path id="Pfad_306" class="st2" d="M133.6,148.1c12.8,4.4,15.8-5.3,15.8-5.3c-2.3-0.9-4.8-1.3-7.2-1      C138.5,142.3,135.3,144.7,133.6,148.1"></path>
				<path id="Pfad_307" class="st2" d="M146.7,151.2c13.5,1.1,14.1-9,14.1-9c-2.4-0.3-4.9,0-7.2,0.8      C150.1,144.4,147.5,147.5,146.7,151.2"></path>
				<path id="Pfad_308" class="st2" d="M139.3,139.7c3.3-12.3-6.4-15.7-6.4-15.7C129.6,137.4,139.3,139.7,139.3,139.7"></path>
				<path id="Pfad_309" class="st2" d="M149.4,143.2c1.8-12.6-8.2-14.7-8.2-14.7C139.5,142.1,149.4,143.2,149.4,143.2"></path>
				<path id="Pfad_310" class="st2" d="M160.9,142.7c-1.2-12.7-11.5-12.3-11.5-12.3C151,144.1,160.9,142.7,160.9,142.7"></path>
				<path id="Pfad_311" class="st2" d="M112.9,135.1c11,8,16.6-0.3,16.6-0.3c-2.4-2-5.4-3.2-8.6-3.3      C117.9,131.5,115,132.8,112.9,135.1"></path>
				<path id="Pfad_312" class="st2" d="M129.4,135.2c5.4-11.5-3.6-16.5-3.6-16.5C120.2,131.2,129.4,135.2,129.4,135.2"></path>
				<path id="Pfad_313" class="st2" d="M104.2,125.9c9.5,9.8,16.5,2.6,16.5,2.6c-2.4-3-5.9-4.7-9.7-4.9      C108.5,123.7,106.2,124.5,104.2,125.9"></path>
				<path id="Pfad_314" class="st2" d="M120.4,128.9c7.2-10.4-0.7-16.9-0.7-16.9C112.1,123.4,120.4,128.9,120.4,128.9"></path>
				<path id="Pfad_315" class="st2" d="M97.2,115.4c7.6,11.4,15.8,5.5,15.8,5.5c-3.5-5.4-7.5-6.7-10.6-6.7      C100.6,114.1,98.8,114.6,97.2,115.4"></path>
				<path id="Pfad_316" class="st2" d="M112.7,121.2c8.9-9,2.2-16.8,2.2-16.8C105.4,114.2,112.7,121.2,112.7,121.2"></path>
				<path id="Pfad_317" class="st2" d="M92.1,103.8c5.6,12.5,14.6,8.2,14.6,8.2c-3.1-7.3-8-8.7-11.3-8.7      C94.3,103.3,93.2,103.4,92.1,103.8"></path>
				<path id="Pfad_318" class="st2" d="M106.4,112.2c10.3-7.2,5-16.2,5-16.2C100.4,104.1,106.4,112.2,106.4,112.2"></path>
				<path id="Pfad_319" class="st2" d="M89.1,91.4c3.4,13.3,13,10.6,13,10.6c-2.3-9.6-8.8-10.7-11.7-10.7      C90,91.3,89.5,91.4,89.1,91.4"></path>
				<path id="Pfad_320" class="st2" d="M101.7,102.2c11.4-5.3,7.7-15,7.7-15C97.2,93.2,101.7,102.2,101.7,102.2"></path>
				<path id="Pfad_321" class="st2" d="M99.2,91.5c-0.7-12.7-11-12.8-11-12.8C89.2,92.5,99.2,91.5,99.2,91.5"></path>
				<path id="Pfad_322" class="st2" d="M98.7,91.6c12.1-3.2,10.1-13.4,10.1-13.4C95.9,81.9,98.7,91.6,98.7,91.6"></path>
				<path id="Pfad_323" class="st2" d="M98.1,80.6c1.5-12.7-8.6-14.5-8.6-14.5C88.2,79.8,98.1,80.6,98.1,80.6"></path>
				<path id="Pfad_324" class="st2" d="M97.7,80.6c12.5-1,12.3-11.4,12.3-11.4C96.5,70.5,97.7,80.6,97.7,80.6"></path>
				<path id="Pfad_325" class="st2" d="M99,69.6c3.6-12.2-6-15.8-6-15.8C89.3,67.1,99,69.6,99,69.6"></path>
				<path id="Pfad_326" class="st2" d="M98.5,69.6c12.5,1.2,14-9.1,14-9.1c-0.7-0.1-1.3-0.1-1.9-0.1C99,60.4,98.5,69.6,98.5,69.6"></path>
				<path id="Pfad_327" class="st2" d="M102.9,47.7C99.7,51,99,56.1,101,60.2c12.3-6.5,7.7-17.1,7.7-17.1      C106.5,44.3,104.6,45.8,102.9,47.7"></path>
				<path id="Pfad_328" class="st2" d="M200.7,142.6c-12.2,6-16.3-3.3-16.3-3.3c2.2-1.2,4.6-1.8,7-1.9      C195.2,137.4,198.7,139.4,200.7,142.6"></path>
				<path id="Pfad_329" class="st2" d="M190.1,148.1c-12.8,4.4-15.8-5.3-15.8-5.3c2.3-0.9,4.8-1.3,7.2-1      C185.3,142.3,188.5,144.7,190.1,148.1"></path>
				<path id="Pfad_330" class="st2" d="M177,151.2c-13.5,1.1-14.1-9-14.1-9c2.4-0.3,4.9,0,7.2,0.8      C173.7,144.4,176.3,147.5,177,151.2"></path>
				<path id="Pfad_331" class="st2" d="M184.5,139.7c-3.3-12.3,6.4-15.7,6.4-15.7C194.2,137.4,184.5,139.7,184.5,139.7"></path>
				<path id="Pfad_332" class="st2" d="M174.4,143.2c-1.8-12.6,8.2-14.7,8.2-14.7C184.3,142.1,174.4,143.2,174.4,143.2"></path>
				<path id="Pfad_333" class="st2" d="M162.9,142.7c1.2-12.7,11.5-12.3,11.5-12.3C172.8,144.1,162.9,142.7,162.9,142.7"></path>
				<path id="Pfad_334" class="st2" d="M210.8,135.1c-11,8-16.6-0.3-16.6-0.3c2.4-2,5.4-3.2,8.6-3.3      C205.8,131.5,208.7,132.8,210.8,135.1"></path>
				<path id="Pfad_335" class="st2" d="M194.4,135.2c-5.4-11.5,3.6-16.5,3.6-16.5C203.5,131.2,194.4,135.2,194.4,135.2"></path>
				<path id="Pfad_336" class="st2" d="M219.5,125.9c-9.5,9.8-16.5,2.6-16.5,2.6c2.4-3,5.9-4.7,9.7-4.9      C215.2,123.7,217.6,124.5,219.5,125.9"></path>
				<path id="Pfad_337" class="st2" d="M203.3,128.9c-7.2-10.4,0.7-16.9,0.7-16.9C211.7,123.4,203.3,128.9,203.3,128.9"></path>
				<path id="Pfad_338" class="st2" d="M226.5,115.4c-7.6,11.4-15.8,5.5-15.8,5.5c3.5-5.4,7.5-6.7,10.6-6.7      C223.1,114.1,224.9,114.6,226.5,115.4"></path>
				<path id="Pfad_339" class="st2" d="M211.1,121.2c-8.9-9-2.2-16.8-2.2-16.8C218.4,114.2,211.1,121.2,211.1,121.2"></path>
				<path id="Pfad_340" class="st2" d="M231.6,103.8c-5.6,12.5-14.6,8.2-14.6,8.2c3.1-7.3,8-8.7,11.3-8.7      C229.4,103.3,230.5,103.4,231.6,103.8"></path>
				<path id="Pfad_341" class="st2" d="M217.4,112.2c-10.3-7.2-5-16.2-5-16.2C223.4,104.1,217.4,112.2,217.4,112.2"></path>
				<path id="Pfad_342" class="st2" d="M234.7,91.4c-3.4,13.3-13,10.6-13,10.6c2.3-9.6,8.8-10.7,11.7-10.7      C233.8,91.3,234.2,91.4,234.7,91.4"></path>
				<path id="Pfad_343" class="st2" d="M222.1,102.2c-11.4-5.3-7.7-15-7.7-15C226.6,93.2,222.1,102.2,222.1,102.2"></path>
				<path id="Pfad_344" class="st2" d="M224.6,91.5c0.7-12.7,11-12.8,11-12.8C234.5,92.5,224.6,91.5,224.6,91.5"></path>
				<path id="Pfad_345" class="st2" d="M225,91.6c-12.1-3.2-10.1-13.4-10.1-13.4C227.9,81.9,225,91.6,225,91.6"></path>
				<path id="Pfad_346" class="st2" d="M225.6,80.6c-1.5-12.7,8.6-14.5,8.6-14.5C235.6,79.8,225.6,80.6,225.6,80.6"></path>
				<path id="Pfad_347" class="st2" d="M226.1,80.6c-12.5-1-12.3-11.4-12.3-11.4C227.2,70.5,226.1,80.6,226.1,80.6"></path>
				<path id="Pfad_348" class="st2" d="M224.8,69.6c-3.6-12.2,6-15.8,6-15.8C234.4,67.1,224.8,69.6,224.8,69.6"></path>
				<path id="Pfad_349" class="st2" d="M225.2,69.6c-12.5,1.2-14-9.1-14-9.1c0.7-0.1,1.3-0.1,1.9-0.1      C224.7,60.4,225.2,69.6,225.2,69.6"></path>
				<path id="Pfad_350" class="st2" d="M220.8,47.7c3.2,3.4,3.9,8.4,1.9,12.6c-12.3-6.5-7.7-17.1-7.7-17.1      C217.2,44.3,219.2,45.8,220.8,47.7"></path>
				<path id="Pfad_351" class="st2" d="M123.1,142.6c12.2,6,16.3-3.3,16.3-3.3c-2.2-1.2-4.6-1.8-7-1.9      C128.6,137.4,125.1,139.4,123.1,142.6"></path>
				<path id="Pfad_352" class="st2" d="M133.7,148.1c12.8,4.4,15.8-5.3,15.8-5.3c-2.3-0.9-4.8-1.3-7.2-1      C138.5,142.3,135.3,144.7,133.7,148.1"></path>
				<path id="Pfad_353" class="st2" d="M146.8,151.2c13.5,1.1,14.1-9,14.1-9c-2.4-0.3-4.9,0-7.2,0.8      C150.1,144.4,147.5,147.5,146.8,151.2"></path>
				<path id="Pfad_354" class="st2" d="M139.3,139.7c3.3-12.3-6.4-15.7-6.4-15.7C129.6,137.4,139.3,139.7,139.3,139.7"></path>
				<path id="Pfad_355" class="st2" d="M149.4,143.2c1.8-12.6-8.2-14.7-8.2-14.7C139.5,142.1,149.4,143.2,149.4,143.2"></path>
				<path id="Pfad_356" class="st2" d="M160.9,142.7c-1.2-12.7-11.5-12.3-11.5-12.3C151,144.1,160.9,142.7,160.9,142.7"></path>
				<path id="Pfad_357" class="st2" d="M113,135.1c11,8,16.6-0.3,16.6-0.3c-2.4-2-5.4-3.2-8.6-3.3C118,131.5,115.1,132.8,113,135.1"></path>
				<path id="Pfad_358" class="st2" d="M129.4,135.2c5.4-11.5-3.6-16.5-3.6-16.5C120.3,131.2,129.4,135.2,129.4,135.2"></path>
				<path id="Pfad_359" class="st2" d="M104.3,125.9c9.5,9.8,16.5,2.6,16.5,2.6c-2.4-3-5.9-4.7-9.7-4.9      C108.6,123.7,106.2,124.5,104.3,125.9"></path>
				<path id="Pfad_360" class="st2" d="M120.5,128.9c7.2-10.4-0.7-16.9-0.7-16.9C112.1,123.4,120.5,128.9,120.5,128.9"></path>
				<path id="Pfad_361" class="st2" d="M97.3,115.4c7.6,11.4,15.8,5.5,15.8,5.5c-3.5-5.4-7.5-6.7-10.6-6.7      C100.6,114.1,98.9,114.6,97.3,115.4"></path>
				<path id="Pfad_362" class="st2" d="M112.7,121.2c8.9-9,2.2-16.8,2.2-16.8C105.4,114.2,112.7,121.2,112.7,121.2"></path>
				<path id="Pfad_363" class="st2" d="M92.2,103.8c5.6,12.5,14.6,8.2,14.6,8.2c-3.1-7.3-8-8.7-11.3-8.7      C94.4,103.3,93.3,103.4,92.2,103.8"></path>
				<path id="Pfad_364" class="st2" d="M106.4,112.2c10.3-7.2,5-16.2,5-16.2C100.4,104.1,106.4,112.2,106.4,112.2"></path>
				<path id="Pfad_365" class="st2" d="M89.1,91.4c3.4,13.3,13,10.6,13,10.6c-2.3-9.6-8.8-10.7-11.7-10.7      C90,91.3,89.6,91.4,89.1,91.4"></path>
				<path id="Pfad_366" class="st2" d="M101.7,102.2c11.4-5.3,7.7-15,7.7-15C97.2,93.2,101.7,102.2,101.7,102.2"></path>
				<path id="Pfad_367" class="st2" d="M99.2,91.5c-0.7-12.7-11-12.8-11-12.8C89.3,92.5,99.2,91.5,99.2,91.5"></path>
				<path id="Pfad_368" class="st2" d="M98.8,91.6c12.1-3.2,10.1-13.4,10.1-13.4C95.9,81.9,98.8,91.6,98.8,91.6"></path>
				<path id="Pfad_369" class="st2" d="M98.2,80.6c1.5-12.7-8.6-14.5-8.6-14.5C88.2,79.8,98.2,80.6,98.2,80.6"></path>
				<path id="Pfad_370" class="st2" d="M97.7,80.6c12.5-1,12.3-11.4,12.3-11.4C96.5,70.5,97.7,80.6,97.7,80.6"></path>
				<path id="Pfad_371" class="st2" d="M99,69.6c3.6-12.2-6-15.8-6-15.8C89.3,67.1,99,69.6,99,69.6"></path>
				<path id="Pfad_372" class="st2" d="M98.6,69.6c12.5,1.2,14-9.1,14-9.1c-0.7-0.1-1.3-0.1-1.9-0.1C99.1,60.4,98.6,69.6,98.6,69.6"></path>
				<path id="Pfad_373" class="st2" d="M103,47.7c-3.2,3.4-3.9,8.4-1.9,12.6c12.3-6.5,7.7-17.1,7.7-17.1      C106.6,44.3,104.6,45.8,103,47.7"></path>
				<path id="Pfad_374" class="st2" d="M200.7,142.6c-12.2,6-16.3-3.3-16.3-3.3c2.2-1.2,4.6-1.8,7-1.9      C195.2,137.4,198.7,139.4,200.7,142.6"></path>
				<path id="Pfad_375" class="st2" d="M190.1,148.1c-12.8,4.4-15.8-5.3-15.8-5.3c2.3-0.9,4.8-1.3,7.2-1      C185.3,142.3,188.5,144.7,190.1,148.1"></path>
				<path id="Pfad_376" class="st2" d="M177.1,151.2c-13.5,1.1-14.1-9-14.1-9c2.4-0.3,4.9,0,7.2,0.8      C173.7,144.4,176.3,147.5,177.1,151.2"></path>
				<path id="Pfad_377" class="st2" d="M184.5,139.7c-3.3-12.3,6.4-15.7,6.4-15.7C194.2,137.4,184.5,139.7,184.5,139.7"></path>
				<path id="Pfad_378" class="st2" d="M174.4,143.2c-1.8-12.6,8.2-14.7,8.2-14.7C184.3,142.1,174.4,143.2,174.4,143.2"></path>
				<path id="Pfad_379" class="st2" d="M162.9,142.7c1.2-12.7,11.5-12.3,11.5-12.3C172.8,144.1,162.9,142.7,162.9,142.7"></path>
				<path id="Pfad_380" class="st2" d="M210.9,135.1c-11,8-16.6-0.3-16.6-0.3c2.4-2,5.4-3.2,8.6-3.3      C205.9,131.5,208.8,132.8,210.9,135.1"></path>
				<path id="Pfad_381" class="st2" d="M194.4,135.2c-5.4-11.5,3.6-16.5,3.6-16.5C203.6,131.2,194.4,135.2,194.4,135.2"></path>
				<path id="Pfad_382" class="st2" d="M219.6,125.9c-9.5,9.8-16.5,2.6-16.5,2.6c2.4-3,5.9-4.7,9.7-4.9      C215.3,123.7,217.6,124.5,219.6,125.9"></path>
				<path id="Pfad_383" class="st2" d="M203.4,128.9c-7.2-10.4,0.7-16.9,0.7-16.9C211.7,123.4,203.4,128.9,203.4,128.9"></path>
				<path id="Pfad_384" class="st2" d="M226.6,115.4c-7.6,11.4-15.8,5.5-15.8,5.5c3.5-5.4,7.5-6.7,10.6-6.7      C223.2,114.1,225,114.6,226.6,115.4"></path>
				<path id="Pfad_385" class="st2" d="M211.1,121.2c-8.9-9-2.2-16.8-2.2-16.8C218.4,114.2,211.1,121.2,211.1,121.2"></path>
				<path id="Pfad_386" class="st2" d="M231.7,103.8c-5.6,12.5-14.6,8.2-14.6,8.2c3.1-7.3,8-8.7,11.3-8.7      C229.5,103.3,230.6,103.4,231.7,103.8"></path>
				<path id="Pfad_387" class="st2" d="M217.4,112.2c-10.3-7.2-5-16.2-5-16.2C223.4,104.1,217.4,112.2,217.4,112.2"></path>
				<path id="Pfad_388" class="st2" d="M234.7,91.4c-3.4,13.3-13,10.6-13,10.6c2.3-9.6,8.8-10.7,11.7-10.7      C233.8,91.3,234.3,91.4,234.7,91.4"></path>
				<path id="Pfad_389" class="st2" d="M222.1,102.2c-11.4-5.3-7.7-15-7.7-15C226.6,93.2,222.1,102.2,222.1,102.2"></path>
				<path id="Pfad_390" class="st2" d="M224.6,91.5c0.7-12.7,11-12.8,11-12.8C234.6,92.5,224.6,91.5,224.6,91.5"></path>
				<path id="Pfad_391" class="st2" d="M225.1,91.6c-12.1-3.2-10.1-13.4-10.1-13.4C227.9,81.9,225.1,91.6,225.1,91.6"></path>
				<path id="Pfad_392" class="st2" d="M225.7,80.6c-1.5-12.7,8.6-14.5,8.6-14.5C235.6,79.8,225.7,80.6,225.7,80.6"></path>
				<path id="Pfad_393" class="st2" d="M226.1,80.6c-12.5-1-12.3-11.4-12.3-11.4C227.3,70.5,226.1,80.6,226.1,80.6"></path>
				<path id="Pfad_394" class="st2" d="M224.8,69.6c-3.6-12.2,6-15.8,6-15.8C234.5,67.1,224.8,69.6,224.8,69.6"></path>
				<path id="Pfad_395" class="st2" d="M225.3,69.6c-12.5,1.2-14-9.1-14-9.1c0.7-0.1,1.3-0.1,1.9-0.1      C224.8,60.4,225.3,69.6,225.3,69.6"></path>
				<path id="Pfad_396" class="st2" d="M220.9,47.7c3.2,3.4,3.9,8.4,1.9,12.6c-12.3-6.5-7.7-17.1-7.7-17.1      C217.3,44.3,219.2,45.8,220.9,47.7"></path>
				<path id="Pfad_397" class="st3" d="M127.7,262.7c-0.1,3.2-1.4,5-5.6,5l-2.8,0v4.2h-2.9v-15.5h5.8c4.2,0,5.5,1.7,5.6,5      C127.8,261.8,127.8,262.2,127.7,262.7 M124.7,261.3c0-1.2-0.4-2.3-2.6-2.3h-2.8l0,6h2.8c2.2,0,2.6-1.1,2.6-2.3      C124.7,262.2,124.7,261.8,124.7,261.3"></path>
				<path id="Pfad_398" class="st3" d="M143,265.6c-0.2,4.3-2,6.5-6.6,6.5s-6.4-2.2-6.6-6.5c0-1.1,0-1.9,0-3c0.2-4.3,2-6.5,6.6-6.5      s6.4,2.2,6.6,6.5C143,263.7,143,264.6,143,265.6 M136.4,258.9c-2.7,0-3.5,1.3-3.6,3.8c0,1.1,0,1.9,0,3c0.1,2.5,1,3.7,3.6,3.7      s3.5-1.2,3.6-3.7c0-1.1,0-1.9,0-3C139.9,260.2,139,258.9,136.4,258.9"></path>
				<path id="Pfad_399" class="st3" d="M157.8,256.4l0,9.6c0,4.1-1.9,6.1-5.9,6.1h-0.2c-4.1,0-6-2-6-6.1v-9.6h3v9.6      c0,2.3,1,3.3,3,3.3h0.2c2,0,3-1.1,3-3.3v-9.6H157.8z"></path>
				<path id="Pfad_400" class="st3" d="M164.1,269.3h6.5v2.6h-9.5v-15.5h3V269.3z"></path>
				<path id="Pfad_401" class="st3" d="M181.5,256.4v2.6h-4.5v12.9h-3V259h-4.5v-2.6H181.5z"></path>
				<path id="Pfad_402" class="st3" d="M192.9,271.9l-2.7-5.2H190l-3.4,0v5.2h-3v-15.5h6.3c3.9,0,5.4,1.9,5.5,4.6c0,0.4,0,0.8,0,1.1      c0.1,1.8-0.9,3.4-2.5,4.1l3.1,5.7L192.9,271.9z M190,264.1c1.8,0,2.4-0.8,2.5-2.1c0-0.3,0-0.6,0-1c0-1.2-0.6-2-2.5-2h-3.4v5.1      L190,264.1z"></path>
				<path id="Pfad_403" class="st3" d="M204.5,265.8v6h-3v-6.1l-5.2-9.4h3.4l3.4,6.8l3.4-6.8h3.3L204.5,265.8z"></path>
				<path id="Pfad_404" class="st3" d="M195.2,67.4c-4.9,0.2-9.3,3.3-11.1,7.9c0.9-3.9,3.5-7.2,7.1-8.8c0.4-0.2,1.3-0.6,1.4-1.1      c-6.3-0.2-12.1,4.1-8.6,10.2c0,0,0.1,0.1,0.1,0.1c4.1,1,8.6,2.1,10.2,5.4c0.2,0.4,0.3,1.1,0.8,1.4c0.8-3.4-1.3-6.9-4.7-7.7      c-0.4-0.1-0.8-0.1-1.2-0.2c2-0.4,4.1-0.6,6.2-0.5c4.2,0.1,8.1,2.2,10.6,5.5c0.6,0.8,0.8,1.8,1.6,2      C205.8,76.4,203.2,67.3,195.2,67.4"></path>
				<path id="Pfad_405" class="st3" d="M158.5,113c-1.5,1.1-2,0.3-1.5-1.3c0.6-1.5,1.3-3,2-4.5c0.5,0,1.1,0,1.7-0.1      C160.8,109.3,160,111.4,158.5,113 M149.2,69.7c-3.1-5.3-6.4-9.8-11.4-12.8c1.1-2.4,2.8-4.9,2.6-8c-0.1-0.1-0.1-0.3-0.5,0      c-1.1,1.2-2.6,2-4.1,2.4c-3.4,0.5-7.2-1.8-9.2,0.8c-0.6,0.9-1,1.9-1.2,3c-2.2,0.7-4.2,1.8-6,3.2c-0.1,0-0.1,0.1,0,0.1      c2.3-0.4,4.7-0.2,6.9,0.7c0.1,1.8,0.6,3.7,1.3,5.3c0.6,1.7,1.4,3.4,2.4,5c0.4-0.7,0-1.3,0-2.1c0-1.4,0.5-3,0.4-4.2      c-0.1-0.5-0.2-0.9-0.4-1.3c2.9,3.2,4.3,8.1,5.2,12.6c0.6,3.1,0.5,6.3,0.8,9.4c0.3,2.8,1,5.5,2.1,8.1c3.2,8,10.4,13.7,18.9,15      c0,0-1.6,4.1-1.9,5.2c-0.4,1.3-3.8,2.6-5.2,2.9c-0.7,0.1-1.4,0.3-2.1,0.5c-0.7,0.3-1.1,0.6-0.3,0.6c0.8,0,3.1-0.2,3.5-0.2      s-1.7,1.1-2.1,1.7c-0.3,0.6,2.5-1,5.3-2.1c1.6-0.7,3.4-0.4,4.7,0.8c0.9,0.4,1.7,0.3,1-0.3c-0.7-0.6-1.2-1.1-1.2-1.1      c1-0.7,2.2-0.9,3.3-0.5c1.1,0.4,3.1,1.1,2.7,0.2s-3.1-0.7-3.1-1.8c0.1-1.8,0.5-3.6,1.2-5.2c0.2-0.3,0.5-0.5,0.8-0.7      c6.2-1.2,11.6-5,14.8-10.5c3.7-6,5.5-12.9,5.4-19.9c-5.1,3.1-10,8-18.5,7.9C155.2,84.1,153,76.1,149.2,69.7"></path>
				<path id="Pfad_406" class="st3" d="M86.8,147.5c-1.7,11.6-8.4,21.8-18.2,28.1c1.5-6,6.5-11.2,9.4-16.5c1.2-2.2,2.2-4.6,3.6-6.7      C83.1,150.6,84.9,149,86.8,147.5C86.5,149,86.8,147.4,86.8,147.5 M163,203.5c-0.1-3.9,3.1-17.1,7-18.1      C172.8,190.4,169.1,202.5,163,203.5 M194.3,200.7c-0.5-3.4,1.4-17.4,5-18.8C202.6,186.7,200.2,199.1,194.3,200.7 M275.8,219.9      c-3.5,0-4.4,2.1-7.8,0c-2.8-1.8-4.5-7.2-5.2-10.2c-2-7.7-2.3-15.8-4.2-23.5c-1.7-6.9-6.7-19.5-16.1-15.1      c-9,4.2-9.6,20.4-11.9,28.5c-3.4-4.7-1.5-26.7-13.1-21.3c-6.9,3.2-2.6,19.3-2.3,24.5c0.5,5.5-1.7,10.8-5.8,14.5      c-3.2,2.6-4.9,2.9-8.1,0.7c-3-2.5-4.9-6-5.4-9.8c0.2-5.3,2.5-2.4,6.2-5.4c3.7-2.9,4.2-8.6,3.8-13.1c-0.9-10.6-8.2-13.7-16.7-6.6      c-9.2,7.7-7.3,19.5-7.6,29.8c-0.1,3.7-5.3,12-10.7,10.8c-3.8-0.8-9.7-13-6.6-15.9c1.5-1.4,5.5-0.6,7.5-2.3      c3.6-3.1,4.4-9.4,4-13.9c-1.1-13.3-14.7-10.3-20.7-1.5c-8.1,12-2.7,27.9-14.7,37.4c-1.8-7.2-0.4-14.2,1.1-21.3      c1.1-5.5,1.4-9.8-3.6-13.8c-2.9-2.4-7.7-2.1-10.3-4c-5.3-3.8,0.4-9-5.2-11.5c-4.3-2-8.6,1.9-8.7,6.5c-0.3,7,8.7,6.4,10,10.6      c0.7,2.3-7.6,13.5-9,16.1c-2.6,5-4.7,10.8-8.9,14.7c-1.5-5.6-2-11.4-1.4-17.2c0.4-3.8,2.8-8.6-0.8-11.5      c-5.3-4.2-13.3,7.8-17.9,10.6c-0.6-5.1,4.1-12,6.8-16c1.3-1.9,2.7-5,4.9-6c4.7-1.9,0.8-0.2,2.9,1.7c1.3,1.2,3.6,6.7,6.4,3      c3.6-4.6-4.5-11.9-8.7-12.2c-11.2-0.8-23.6,12.7-26.3,22.9c-1.3,4.7,2.6,13.3-4.3,14.5c-3.5,0.6-2.7,0.2-4-3.3      c-0.9-3.3-1.1-6.8-0.7-10.3c0.3-5.1,0.8-11.1,3.4-15.7c3.2-5.7,10.7-8.9,15.1-14.1c4.2-4.9,16.3-19.1,10.5-26.4      c-9.1-11.5-27.3,15.2-31.2,20.8c-7.1,10-11.4,21.6-12.7,33.8c-1.1,11.2,0.8,25.4,15.4,22.9c2.8-0.4,5.5-1.5,7.7-3.2      c1-0.8,2.2-2.7,3.4-3.4c2.5-1.4,2.4-0.7,5.5-0.7c7.6-0.2,8.6-4.3,14.3-8.1c-1.4,6.3-3.5,15-0.6,21.2c2.5,5,8.6,7,13.7,4.5      c0.7-0.3,1.3-0.8,1.9-1.3c4-3.4,7.1-10.9,9.5-15.5c3.2-6.4,6.4-13,9.2-19.6c1,10.6-11,26.8,0.6,35.9c9.7,7.6,19.1-1.3,23.6-9.7      c9.5,14.9,24.1,11.3,32.6-2.6c11.8,16.2,25.9,7.8,33.7-6.9c2,5,5.7,13.5,12.3,12.3c6-1.1,6.4-5,6.2-9.8      c-0.5-11.2-1.5-32.5,7.8-41c3.2,5.2,0,17.1,0.2,23.2c0.2,7.3,0.8,15.1,4,21.8c2.7,5.6,7.3,11.4,14.1,11.2      C265.6,230.5,279.1,223.2,275.8,219.9C275.7,219.9,276.3,220.3,275.8,219.9"></path>
			</g>
		</g>
	</g>
</g>
</svg>
