<?xml version="1.0" encoding="UTF-8"?>
<!-- Generator: Adobe Illustrator 27.8.0, SVG Export Plug-In . SVG Version: 6.00 Build 0)  -->
<svg xmlns="http://www.w3.org/2000/svg" xmlns:xlink="http://www.w3.org/1999/xlink" version="1.1" id="Ebene_1" x="0px" y="0px" viewBox="0 0 324 324" style="enable-background:new 0 0 324 324;" xml:space="preserve">
<style type="text/css">
	.st0{fill:#FFFFFF;}
	.st1{fill:#00B0EA;}
	.st2{fill:#003D7C;}
	.st3{fill:#4A4A49;}
</style>
<circle class="st0" cx="162" cy="162" r="162"></circle>
<g>
	<g>
		<path class="st1" d="M284.5,158.4c0.5-1.3,0.9-2.6,0.8-4.1c-0.3-3.4-1.7-1.7-3-1.9c-2.4-0.3-3.2-2.5-3.6-4.7    c-0.5-2.7,1-3.6,2.4-5.6c0.3-0.5,0.8-0.6,1.3-0.5c0,0,0-0.1,0-0.1c0.6-0.7,1.3-0.7,1.8-0.2c1,1,1.9,2,3.4,2.4c0.1,0,0.2,0,0.3,0.1    c0-0.1,0-0.2-0.1-0.3c-0.1,0-0.3-0.1-0.3-0.1c-1-0.8-1.4-2-2.3-2.9c-0.2-0.2-2.2-1.7-2.2-0.5c0,0.3,0,0.7-0.1,1    c-0.1,0.4-0.6,0.5-1,0.3c-0.2-0.1-0.3-0.3-0.4-0.4c-0.3,0.1-0.7-0.1-0.7-0.5c0-0.4,0-0.8,0-1.2c0-0.2,0.1-0.3,0.3-0.3    c0-0.6,0-1.1,0.8-1.5c0.6-0.3,2.4-0.4,1.7-1.4c-0.2-0.3-0.1-0.5,0.1-0.7c-1.9-2.3-4.3-4.3-7-5.7c-0.2,0.2-0.4,0.4-0.6,0.6    c-1.4,0.8-3.7-0.1-2.8,2.5c0.1,0.4-0.3,0.8-0.7,0.7c-3-1-4.4-3.3-5.1-6.2c-0.3,0-0.6,0-1,0c-3.6,0-7.1,0.9-10.1,2.4    c0,0.2-0.1,0.4-0.3,0.6c-0.5,0.6-1.1,1.1-1.7,1.7c0.2,0,0.5,0,0.7-0.1c1.2-0.1,1.8-0.3,1.8-1.6c0-0.6,1-0.8,1.1-0.1    c0.1,0.4,0.3,0.8,0.7,1c0.3,0.1,0.5,0.4,0.4,0.7c-0.4,1.2-2.2,1-2.3,2.3c0,0.2-0.1,0.3-0.2,0.4c0.2,0.4,0.4,0.7,0.5,0.7    c0.6,0.1,1.4,0.2,1.9,0.5c0.6,0.7,1.5,0.9,2.5,0.6c-0.1-0.4-0.1-0.9-0.2-1.3c0-0.6,0-1,0.1-1.6c0.1-0.7,1.1-1,1.7-0.7    c0.7,0.2,1.4,0.4,2.1,0.6c0.7-0.1,1.5,0.3,1.4,1.1c0.2,0.4,0.4,0.8,0.6,1.2c0.1,0.1,0.1,0.1,0.2,0.2c1.5,0.4,3,1.5,2,2.9    c-0.4,0.6-1.4,0-1-0.6c0.1-0.1,0.1-0.2,0.1-0.3c-0.1,0-0.1,0-0.2-0.1c-0.3-0.2-0.6-0.3-1-0.4c-0.1,0.1-0.3,0.2-0.4,0.2    c-0.5,0.1-0.9,0.2-1.3,0.3c0.1,0,0.3,0,0.4,0c0.3,0,0.4,0.3,0.4,0.5c0,0.2,0,0.3,0,0.5c0.2-0.1,0.5-0.2,0.7,0    c0.2,0.2,0.2,0.6,0,0.8c-0.4,0.3-0.9,0.7-1.2,1c-0.3,0.3-1,0.1-1-0.4c0-0.2,0-0.4,0.1-0.6c-0.1,0-0.1-0.1-0.2-0.1    c-0.4-0.2-0.1-0.9-0.1-0.9s-0.1,0.1-0.1,0.2c-0.1,0.3-0.2,0.6-0.5,0.8c-1,0.6-1.7,1.4-2.4,2.2c0.1,0.1,0.2,0.3,0.1,0.5    c-0.3,0.9-0.9,1.4-1.5,2.1c-0.3,0.3-0.7,0.7-0.8,1.1c-0.1,0.3,0.1,0.6,0,0.9c-0.1,0.2-0.2,0.4-0.6,0.4c-0.6,0.1-1.1-0.5-0.6-0.9    c0,0,0-0.1,0-0.1c0-0.1,0-0.3,0-0.4c-1.5,0.6-3.8-0.4-4.1,2.4c0,0.3-0.1,0.5-0.3,0.6c0.5,0.9,1.7,0.5,2.4,0    c0.4-0.3,0.9,0.2,0.8,0.6c-0.2,0.9,0.7,1,1.3,1.5c0.4,0.3,0.4,0.9,0.3,1.3c0,0,0,0,0,0c0.5,0.6,1.1,1.1,1.7,1.6    c0.2-0.3,0.5-0.4,0.9-0.4c1.4,0.1,3.3,0.3,4.4,1.3c0,0,0.1,0.1,0.1,0.1c1,0.3,1.8,0.8,2.4,1.7c0,0,0.1,0.1,0.1,0.1    c0.5,0.4,1,0.8,1.4,1c0.9,0.4,1.8,0.3,2.7,0.3c0.9,0.1,1.4,0.9,1,1.7c-0.5,1-1.2,1.9-1.9,2.8c0,0.2,0,0.4-0.1,0.6    c-0.4,0.6-0.6,0.8-1,1.3c-0.3,0.3-0.6,0.4-0.9,0.3c-1.3,1.2-2.5,2.4-4.1,3c0,0,0,0-0.1,0c-0.6,0.7-1.2,1.5-1.7,2.4    c0.7,0.1,1.4,0.1,2.2,0.1c7.1,0,13.4-3.4,17.4-8.6C283.7,160.7,284.1,159.5,284.5,158.4 M261.8,169.5c-0.1-0.1-0.2-0.4-0.3-0.6    c-0.1-0.5,0-1.1,0.1-1.6c-0.4-1.6-0.8-3.1-0.5-4.6c-0.5-0.4-1.2-0.8-1.8-1.4c-1.9-2-1.2-4.3,0-6.6c0.1-0.1,0.1-0.2,0.2-0.3    c-0.4-0.4-0.9-0.8-1.3-1.3c-0.6-0.7-1.2-1.5-2.2-1.8c-0.7-0.2-1.2-0.3-1.7-0.7c-0.2-0.1-0.4-0.4-0.6-0.6c0,0-0.1-0.1-0.1-0.1    c-0.4,0.3-0.9,0.2-1.5-0.3c-0.8-0.7-1.5-2.1-1.8-3.3c-0.2-0.3-0.4-0.5-0.6-0.7c-0.2-0.2-0.3-0.4-0.3-0.6c-0.9-0.4-1.7-0.6-1.4-2.2    c0.2-1.2,0.1-2.5,0.5-3.7c0-0.1,0.1-0.1,0.1-0.2c-0.5-0.1-1-0.2-1.3-0.6c-1.7,3.1-2.7,6.6-2.7,10.4c0,10.3,7.3,19,17.2,21.1    C261.8,169.7,261.8,169.6,261.8,169.5"></path>
		<path class="st2" d="M176.8,189.4c0,0,15-20.1,65-3.9c0,0,32.6,10.6,46.5-5.2c0,0,9.2-7.9,6.7-21.8c0,0-0.5,25.6-37.3,22.1    c0,0-6.2-0.1-30.7-6.1C227,174.6,190.6,166.2,176.8,189.4"></path>
		<path class="st1" d="M286.1,185.4c0,0-10.8,12.6-45,3.1c0,0-14.2-4.6-21.6-5.3c0,0,8.2,2.7,22.8,9.6    C242.4,192.7,267.5,205.9,286.1,185.4"></path>
		<polygon class="st2" points="61.2,130.9 61.2,166 54.6,166 54.6,143.2 47.4,156.4 42.5,156.4 35.2,143.2 35.2,166 28.7,166     28.7,130.9 34.9,130.9 44.9,149.5 55,130.9   "></polygon>
		<path class="st2" d="M86.3,159.3H74.1L72,166h-7l12.1-35.1h6.3L95.9,166h-7.5L86.3,159.3z M84.6,153.8l-4.5-15l-4.4,15H84.6z"></path>
		<path class="st2" d="M123.3,156.7c-0.4,6.4-5.4,9.8-14,9.8c-3.9,0.1-8.3-0.8-10.9-1.6v-6.2c2.9,1,7.4,1.9,10.9,1.9    c5.2,0,6.6-1.7,6.9-3.9c0-0.5,0.1-1.1,0-1.6c-0.9-7.2-17.1,0.5-17.8-13.2c0-1,0-1.6,0-2.1c0.4-6.1,4.9-9.4,12.7-9.4    c4.2,0,7,0.6,9.7,1.7v6.2c-3.1-1.2-6.5-2-9.7-2c-4.1,0-5.5,1.9-5.7,3.6c0,0.4,0,1,0,1.5c0.9,8,17,0.2,17.9,13.4V156.7z"></path>
		<polygon class="st3" points="166.6,130.9 166.6,166 162.1,166 162.1,139 152.8,156.4 149.4,156.4 140.1,139.3 140.1,166     135.6,166 135.6,130.9 140.2,130.9 151.1,151.6 162,130.9   "></polygon>
		<path class="st3" d="M193.4,157.5h-14.2l-3,8.5h-4.7l12.6-35.1h4.5l12.8,35.1h-5L193.4,157.5z M192.3,153.7l-6-17.8l-6,17.8H192.3    z"></path>
		<path class="st3" d="M228.3,166l-6.8-12.7h-1.3l-9.5,0.1V166h-4.5v-35.1h13.9c8.9,0,11.7,3.9,12.1,9.9c0.1,0.9,0.1,1.6,0,2.5    c-0.3,4.7-1.9,8-6.5,9.4l7.5,13.4H228.3z M227.6,143.1c0.1-0.8,0.1-1.5,0-2.2c-0.2-3.8-1.5-6-7.5-6h-9.4v14.5h9.5    C225.9,149.4,227.3,147.3,227.6,143.1"></path>
	</g>
	<g>
		<path class="st3" d="M34,179.6c-0.5-0.3-1.2-0.5-1.9-0.5c-1.2,0-1.9,0.6-1.9,1.3c0,0.7,0.3,1.1,2,1.7c1.4,0.5,1.7,1.1,1.7,1.9    c0,1.1-0.9,2.1-2.7,2.1c-1.9,0-2.6-0.4-2.6-1c0-0.3,0.1-0.4,0.3-0.4c0.4,0.5,1.2,0.7,2.4,0.7c1.2,0,1.7-0.6,1.7-1.2    s-0.4-1.1-1.6-1.5c-1.7-0.6-2.1-1.1-2.1-2.2c0-1.2,1.1-2.2,2.9-2.2c1.3,0,2,0.4,2,0.8C34.3,179.4,34.2,179.5,34,179.6z"></path>
		<path class="st3" d="M37.6,183.3c-0.4,0-1.1-0.1-1.6-0.1c0,0.1,0,0.2,0,0.3c0,1.3,0.6,1.9,1.7,1.9c0.6,0,1.3-0.2,1.9-0.6    c0.1,0.1,0.2,0.2,0.2,0.3c0,0.4-0.6,1-2.2,1c-1.6,0-2.5-0.8-2.5-2.4c0-1.9,1-3.6,3-3.6c1.3,0,1.9,0.7,1.9,1.4    C40,182.8,39.2,183.3,37.6,183.3z M38,180.8c-0.7,0-1.6,0.4-1.9,1.8c0.3,0.1,1,0.1,1.4,0.1c1.2,0,1.7-0.4,1.7-1    C39.2,181.2,38.8,180.8,38,180.8z"></path>
		<path class="st3" d="M44.9,184.9c-0.3,0.8-1,1.2-2.1,1.2c-1.1,0-1.8-0.6-1.8-2.2c0-2.5,1.4-3.8,2.9-3.8c0.8,0,1.2,0.2,1.4,0.7    c0.1-0.5,0.2-0.7,0.5-0.7c0.2,0,0.3,0,0.4,0.1l-0.5,3.4c-0.1,0.7-0.2,1.1-0.2,1.4s0.1,0.3,0.4,0.3c0.1,0,0.4-0.1,0.6-0.1    c0.1,0.1,0.1,0.2,0.1,0.3c0,0.3-0.3,0.5-1.2,0.5c-0.5,0-0.7-0.2-0.7-0.7C44.8,185.3,44.9,185.1,44.9,184.9z M44.1,180.8    c-1.4,0-2.2,1.1-2.2,2.9c0,1.2,0.3,1.8,1.3,1.8c0.5,0,1.2-0.4,1.6-0.9l0.5-3.5C45,180.9,44.6,180.8,44.1,180.8z"></path>
		<path class="st3" d="M51.6,178.1c-0.1,0-0.7-0.1-0.9-0.1c-0.6,0-0.8,0.1-1,0.4c-0.1,0.2-0.3,0.8-0.4,1.9l1.5,0    c0,0.1,0.1,0.2,0.1,0.3c0,0.4-0.2,0.4-0.8,0.4c-0.3,0-0.6,0-0.9,0l-0.4,4.6c-0.2,2.3-1,3-2.2,3c-0.5,0-0.6-0.2-0.6-0.4    c0-0.1,0-0.2,0.1-0.3c0.9,0,1.2-0.1,1.3-0.3c0.2-0.3,0.4-0.9,0.5-2.1l0.4-4.4l-0.7,0c-0.1-0.1-0.1-0.1-0.1-0.3    c0-0.4,0.3-0.4,0.9-0.5c0.3-2.3,0.9-3,2.3-3c0.7,0,1,0.1,1,0.4C51.8,177.9,51.7,178.1,51.6,178.1z"></path>
		<path class="st3" d="M53.1,186.1c-1.5,0-2.3-0.8-2.3-2.5c0-2,1.3-3.5,3.1-3.5c1.7,0,2.3,1,2.3,2.4    C56.3,184.7,55.1,186.1,53.1,186.1z M53.8,180.8c-1.3,0-2.1,1.3-2.1,2.6c0,1.4,0.5,2,1.7,2c1.3,0,2-1.4,2-2.7    C55.4,181.5,55,180.8,53.8,180.8z"></path>
		<path class="st3" d="M59.7,186.1c-1.5,0-2.3-0.8-2.3-2.5c0-2,1.3-3.5,3.1-3.5c1.7,0,2.3,1,2.3,2.4    C62.8,184.7,61.6,186.1,59.7,186.1z M60.3,180.8c-1.3,0-2.1,1.3-2.1,2.6c0,1.4,0.5,2,1.7,2c1.3,0,2-1.4,2-2.7    C61.9,181.5,61.5,180.8,60.3,180.8z"></path>
		<path class="st3" d="M68.4,186.1c-0.5,0-0.7-0.2-0.7-0.7c0-0.1,0.1-0.5,0.1-0.7c-0.2,1-1.1,1.4-2.1,1.4c-1.1,0-1.8-0.6-1.8-2.2    c0-2.5,1.4-3.8,2.9-3.8c0.8,0,1.2,0.2,1.3,0.6l0.3-2.4c0.1-0.7,0.2-0.8,0.6-0.8c0.2,0,0.3,0,0.4,0.1l-0.7,5.5    c-0.1,1-0.2,1.8-0.2,2c0,0.3,0.1,0.3,0.4,0.3c0.1,0,0.4-0.1,0.6-0.1c0.1,0.1,0.1,0.2,0.1,0.3C69.6,185.9,69.3,186.1,68.4,186.1z     M67,180.8c-1.4,0-2.2,1.1-2.2,2.9c0,1.2,0.3,1.8,1.3,1.8c0.5,0,1.2-0.4,1.6-0.9l0.5-3.5C67.8,180.9,67.4,180.8,67,180.8z"></path>
		<path class="st3" d="M75.4,186.1c-1.1,0-1.9-0.6-1.9-1.2c0-0.2,0-0.5,0.1-0.8l0.8-5.8c0.1-0.7,0.2-0.8,0.6-0.8    c0.2,0,0.3,0,0.4,0.1l-0.5,3.9c0.3-0.7,0.8-1.3,1.9-1.3c1.3,0,1.9,0.9,1.9,2.3C78.5,184.7,77.4,186.1,75.4,186.1z M76.3,180.9    c-0.6,0-1.2,0.5-1.6,1.4l-0.3,2.5c0,0.4,0.4,0.7,1.3,0.7c1.3,0,2.1-1.5,2.1-2.7C77.7,181.6,77.3,180.9,76.3,180.9z"></path>
		<path class="st3" d="M79.1,188.7c-0.7,0-0.8-0.2-0.8-0.5c0-0.1,0-0.2,0.1-0.3c0.1,0,0.3,0,0.4,0c0.7,0,1-0.1,1.2-0.3    c0.4-0.3,0.5-0.7,0.9-1.3l-0.9-5.3l-0.7,0c-0.1-0.1-0.1-0.1-0.1-0.2c0-0.3,0.2-0.5,0.9-0.5c0.6,0,0.6,0.1,0.7,0.5l0.7,4.5    c1.9-2.4,2.2-2.7,2.2-3.9c0-0.5,0-0.9-0.1-1.2c0.1-0.1,0.2-0.1,0.4-0.1c0.4,0,0.6,0.4,0.6,1c0,1.5-0.3,2-2.5,4.5    c-0.5,0.5-0.9,1.2-1.2,1.8C80.6,188.3,80,188.7,79.1,188.7z"></path>
		<path class="st3" d="M93.4,179.2h-1.9l-0.8,6.8c-0.1,0-0.3,0.1-0.5,0.1c-0.4,0-0.4-0.1-0.4-0.4c0-0.1,0-0.2,0-0.4    c0-0.4,0.2-1.7,0.3-2.6c0.2-1.2,0.3-2,0.5-3.6l-2.6,0c0-0.1-0.1-0.1-0.1-0.3c0-0.2,0.2-0.4,0.8-0.4l4.9,0l0.5,0    c0,0.1,0.1,0.2,0.1,0.3C94.2,179.1,93.9,179.2,93.4,179.2z"></path>
		<path class="st3" d="M99.7,183.2c-0.2,0-0.4,0.1-0.7,0.1c0.2,0.3,0.3,0.6,0.3,1c0,1-1.1,1.8-3.2,1.8c-1.4,0-2.3-0.6-2.3-1.8    c0-1.3,0.8-2.2,2.2-2.3c-0.8,0-1.3-0.5-1.3-1.3c0-1.4,1.2-2.2,2.7-2.2c0.9,0,1.3,0.1,1.3,0.5c0,0.2-0.1,0.3-0.2,0.4    c-0.3-0.1-0.8-0.2-1.3-0.2c-1,0-1.7,0.4-1.7,1.4c0,0.8,0.6,1.1,1.6,1.1h0.1c0.1,0.1,0.1,0.3,0.1,0.3c0,0.3-0.1,0.4-0.7,0.4    c-1.3,0-2,0.6-2,1.7c0,0.9,0.6,1.3,1.7,1.3c1.6,0,2.2-0.7,2.2-1.2c0-0.6-0.3-1.1-0.3-1.3c0-0.1,0.1-0.3,0.3-0.3    c0.5-0.1,1.3-0.2,1.8-0.3c0.1,0.1,0.1,0.3,0.1,0.4C100.4,183,100.2,183.1,99.7,183.2z"></path>
		<path class="st3" d="M106.3,186.1c-0.2,0-0.4-0.1-0.4-0.3l-1.4-2.9c-0.1,0-0.3,0-0.3,0c-0.4,0-0.7,0-1.1-0.1l-0.4,3.2    c-0.1,0-0.3,0.1-0.4,0.1c-0.3,0-0.4-0.1-0.4-0.4c0-0.2,0.1-1.5,0.3-2.9c0.2-1.2,0.3-2.4,0.5-3.6l-1,0c0-0.1-0.1-0.1-0.1-0.2    c0-0.3,0.2-0.4,0.7-0.4h2.7c1.2,0,2.4,0.4,2.4,1.9c0,1.3-0.8,2-2,2.4l1.3,2.6l0.6-0.1c0.1,0.1,0.1,0.2,0.1,0.3    C107.4,185.9,107.1,186.1,106.3,186.1z M104.7,179.2c-0.4,0-0.9,0-1.3,0l-0.4,3.1c0.4,0,0.9,0.1,1.3,0.1c1.3,0,2.1-0.6,2.1-1.8    C106.4,179.5,105.6,179.2,104.7,179.2z"></path>
		<path class="st3" d="M117.5,179.6c-0.5-0.2-1.3-0.4-2-0.4c-2.3,0-3.3,1.5-3.3,3.8c0,1.6,0.7,2.4,2.3,2.4c0.6,0,1.3-0.1,1.8-0.3    l0.2-1.5H115c0-0.1-0.1-0.1-0.1-0.3c0-0.3,0.3-0.5,1.4-0.5c1,0,1.1,0.1,1.1,0.4l-0.2,1.8c-0.1,0.6-1.4,1.1-3,1.1    c-1.8,0-2.9-1-2.9-2.9c0-2.9,1.4-4.7,4.3-4.7c1.2,0,2.1,0.3,2.1,0.7C117.8,179.4,117.7,179.5,117.5,179.6z"></path>
		<path class="st3" d="M118.9,184.4l0.8-6.1c0.1-0.7,0.2-0.8,0.6-0.8c0.2,0,0.3,0,0.4,0.1l-0.7,5.5c-0.1,1-0.3,1.8-0.3,2    c0,0.3,0.1,0.3,0.4,0.3c0.1,0,0.4-0.1,0.6-0.1c0.1,0.1,0.1,0.2,0.1,0.3c0,0.3-0.3,0.5-1.2,0.5c-0.5,0-0.8-0.2-0.8-0.7    C118.8,185.2,118.8,184.8,118.9,184.4z"></path>
		<path class="st3" d="M124.1,186.1c-1.5,0-2.3-0.8-2.3-2.5c0-2,1.3-3.5,3.1-3.5c1.7,0,2.3,1,2.3,2.4    C127.3,184.7,126.1,186.1,124.1,186.1z M124.8,180.8c-1.3,0-2.1,1.3-2.1,2.6c0,1.4,0.5,2,1.7,2c1.3,0,2-1.4,2-2.7    C126.4,181.5,126,180.8,124.8,180.8z"></path>
		<path class="st3" d="M130.4,186.1c-1.1,0-1.9-0.6-1.9-1.2c0-0.2,0-0.5,0.1-0.8l0.8-5.8c0.1-0.7,0.2-0.8,0.6-0.8    c0.2,0,0.3,0,0.4,0.1l-0.5,3.9c0.3-0.7,0.8-1.3,1.9-1.3c1.3,0,1.9,0.9,1.9,2.3C133.6,184.7,132.3,186.1,130.4,186.1z M131.3,180.9    c-0.6,0-1.2,0.5-1.6,1.4l-0.3,2.5c0,0.4,0.4,0.7,1.3,0.7c1.3,0,2.1-1.5,2.1-2.7C132.7,181.6,132.3,180.9,131.3,180.9z"></path>
		<path class="st3" d="M138.5,184.9c-0.3,0.8-1,1.2-2.1,1.2c-1.1,0-1.8-0.6-1.8-2.2c0-2.5,1.4-3.8,2.9-3.8c0.8,0,1.2,0.2,1.4,0.7    c0.1-0.5,0.2-0.7,0.5-0.7c0.2,0,0.3,0,0.4,0.1l-0.5,3.4c-0.1,0.7-0.2,1.1-0.2,1.4s0.1,0.3,0.4,0.3c0.1,0,0.4-0.1,0.6-0.1    c0.1,0.1,0.1,0.2,0.1,0.3c0,0.3-0.3,0.5-1.2,0.5c-0.5,0-0.7-0.2-0.7-0.7C138.5,185.3,138.5,185.1,138.5,184.9z M137.7,180.8    c-1.4,0-2.2,1.1-2.2,2.9c0,1.2,0.3,1.8,1.3,1.8c0.5,0,1.2-0.4,1.6-0.9l0.5-3.5C138.6,180.9,138.2,180.8,137.7,180.8z"></path>
		<path class="st3" d="M141.5,184.4l0.8-6.1c0.1-0.7,0.2-0.8,0.6-0.8c0.2,0,0.3,0,0.4,0.1l-0.7,5.5c-0.1,1-0.3,1.8-0.3,2    c0,0.3,0.1,0.3,0.4,0.3c0.1,0,0.4-0.1,0.6-0.1c0.1,0.1,0.1,0.2,0.1,0.3c0,0.3-0.3,0.5-1.2,0.5c-0.5,0-0.8-0.2-0.8-0.7    C141.4,185.2,141.4,184.8,141.5,184.4z"></path>
		<path class="st3" d="M152.3,179.2l-3,0l-0.3,2.7h2.9c0,0.1,0.1,0.2,0.1,0.3c0,0.3-0.2,0.4-0.7,0.4l-2.3,0l-0.4,3.4    c-0.1,0-0.3,0.1-0.5,0.1c-0.3,0-0.4-0.1-0.4-0.4c0-0.1,0-0.2,0-0.4c0-0.3,0.3-1.9,0.3-2.6c0.1-1.1,0.3-2.4,0.5-3.6l-1,0    c0-0.1-0.1-0.1-0.1-0.3c0-0.2,0.2-0.4,0.7-0.4l4.5,0l0.5,0c0,0.1,0.1,0.2,0.1,0.3C153.1,179.1,152.9,179.2,152.3,179.2z"></path>
		<path class="st3" d="M155,186.1c-1.5,0-2.3-0.8-2.3-2.5c0-2,1.3-3.5,3.1-3.5c1.7,0,2.3,1,2.3,2.4C158.1,184.7,157,186.1,155,186.1    z M155.7,180.8c-1.3,0-2.1,1.3-2.1,2.6c0,1.4,0.5,2,1.7,2c1.3,0,2-1.4,2-2.7C157.3,181.5,156.8,180.8,155.7,180.8z"></path>
		<path class="st3" d="M161.5,186.1c-1.5,0-2.3-0.8-2.3-2.5c0-2,1.3-3.5,3.1-3.5c1.7,0,2.3,1,2.3,2.4    C164.7,184.7,163.5,186.1,161.5,186.1z M162.2,180.8c-1.3,0-2.1,1.3-2.1,2.6c0,1.4,0.5,2,1.7,2c1.3,0,2-1.4,2-2.7    C163.8,181.5,163.4,180.8,162.2,180.8z"></path>
		<path class="st3" d="M170.3,186.1c-0.5,0-0.7-0.2-0.7-0.7c0-0.1,0.1-0.5,0.1-0.7c-0.2,1-1.1,1.4-2.1,1.4c-1.1,0-1.8-0.6-1.8-2.2    c0-2.5,1.4-3.8,2.9-3.8c0.8,0,1.2,0.2,1.3,0.6l0.3-2.4c0.1-0.7,0.2-0.8,0.6-0.8c0.2,0,0.3,0,0.4,0.1l-0.7,5.5    c-0.1,1-0.2,1.8-0.2,2c0,0.3,0.1,0.3,0.4,0.3c0.1,0,0.4-0.1,0.6-0.1c0.1,0.1,0.1,0.2,0.1,0.3C171.5,185.9,171.2,186.1,170.3,186.1    z M168.9,180.8c-1.4,0-2.2,1.1-2.2,2.9c0,1.2,0.3,1.8,1.3,1.8c0.5,0,1.2-0.4,1.6-0.9l0.5-3.5C169.7,180.9,169.3,180.8,168.9,180.8    z"></path>
	</g>
</g>
</svg>
