<?xml version="1.0" encoding="UTF-8"?>
<svg xmlns="http://www.w3.org/2000/svg" id="Ebene_1" data-name="Ebene 1" viewBox="0 0 352.12 352.12">
  <defs>
    <style>
      .cls-1 {
        fill: #fff;
      }

      .cls-1, .cls-2, .cls-3 {
        stroke-width: 0px;
      }

      .cls-2 {
        fill: #fce400;
      }

      .cls-3 {
        fill: #4a4a49;
      }
    </style>
  </defs>
  <circle class="cls-3" cx="176.06" cy="176.06" r="176.06"></circle>
  <g>
    <path class="cls-1" d="m76.51,240.92l-4.38-8.53h-.31l-5.61.04v8.45h-4.84v-25.35h10.41c6.45,0,8.8,3.15,9.02,7.53.04.73.04,1.07,0,1.84-.15,3.07-1.3,5.49-4.15,6.68l5.03,9.3-5.18.04Zm-4.69-12.75c3,.04,3.92-1.34,4.03-3.46.04-.62.04-1,0-1.58-.08-1.96-.92-3.34-4.07-3.34h-5.53v8.37h5.57Z"></path>
    <rect class="cls-1" x="85.61" y="215.53" width="4.91" height="25.35"></rect>
    <path class="cls-1" d="m112.99,235.62v4.46c-1.88.61-3.84,1.23-7.07,1.19-7.83,0-10.45-3.65-10.75-11.37-.04-1.11-.04-2.19,0-3.3.31-7.72,2.92-11.45,10.75-11.45,3,0,4.99.57,6.99,1.5v4.49c-2.15-.92-4.72-1.5-6.99-1.5-4.61,0-5.65,2.57-5.84,6.95-.04,1.11-.04,2.19,0,3.3.19,4.38,1.23,6.87,5.84,6.87,2.57.04,4.61-.46,7.07-1.15"></path>
    <path class="cls-1" d="m137.88,230.67c-.35,7.03-3.26,10.6-10.83,10.6s-10.52-3.57-10.87-10.6c-.08-1.73-.08-3.11,0-4.84.31-7.03,3.3-10.68,10.87-10.68s10.48,3.65,10.83,10.68c.08,1.73.08,3.11,0,4.84m-10.83-11.03c-4.38,0-5.76,2.11-5.95,6.18-.08,1.73-.08,3.11,0,4.84.19,4.07,1.58,6.11,5.95,6.11s5.72-2.03,5.92-6.11c.08-1.73.08-3.11,0-4.84-.19-4.07-1.58-6.18-5.92-6.18"></path>
    <path class="cls-1" d="m164.8,240.92l-4.38-8.53h-.31l-5.61.04v8.45h-4.84v-25.35h10.41c6.45,0,8.8,3.15,9.02,7.53.04.73.04,1.07,0,1.84-.15,3.07-1.3,5.49-4.15,6.68l5.03,9.3-5.18.04Zm-4.69-12.75c3,.04,3.92-1.34,4.03-3.46.04-.62.04-1,0-1.58-.08-1.96-.92-3.34-4.07-3.34h-5.53v8.37h5.57Z"></path>
    <path class="cls-1" d="m186.8,236.08h-8.76l-1.57,4.8h-5.03l8.76-25.35h4.53l9.07,25.35h-5.38l-1.61-4.8Zm-1.19-4.04l-3.23-10.79-3.15,10.79h6.38Z"></path>
    <polygon class="cls-1" points="217.18 215.53 217.18 240.88 213.19 240.88 201.55 224.9 201.55 240.88 196.75 240.88 196.75 215.53 200.05 215.53 212.34 233.01 212.34 215.53 217.18 215.53"></polygon>
    <path class="cls-1" d="m239.61,235.62v4.46c-1.88.61-3.84,1.23-7.07,1.19-7.84,0-10.45-3.65-10.75-11.37-.04-1.11-.04-2.19,0-3.3.31-7.72,2.92-11.45,10.75-11.45,3,0,4.99.57,6.99,1.5v4.49c-2.15-.92-4.72-1.5-6.99-1.5-4.61,0-5.65,2.57-5.84,6.95-.04,1.11-.04,2.19,0,3.3.19,4.38,1.23,6.87,5.84,6.87,2.57.04,4.61-.46,7.07-1.15"></path>
    <polygon class="cls-1" points="264.31 240.88 259.43 240.88 259.43 230.48 248.64 230.48 248.64 240.88 243.76 240.88 243.76 215.53 248.64 215.53 248.64 226.21 259.43 226.21 259.43 215.53 264.31 215.53 264.31 240.88"></polygon>
    <path class="cls-1" d="m290.69,230.67c-.35,7.03-3.26,10.6-10.83,10.6s-10.52-3.57-10.87-10.6c-.08-1.73-.08-3.11,0-4.84.31-7.03,3.3-10.68,10.87-10.68s10.48,3.65,10.83,10.68c.08,1.73.08,3.11,0,4.84m-10.83-11.03c-4.38,0-5.76,2.11-5.95,6.18-.08,1.73-.08,3.11,0,4.84.19,4.07,1.58,6.11,5.95,6.11s5.72-2.03,5.92-6.11c.08-1.73.08-3.11,0-4.84-.19-4.07-1.58-6.18-5.92-6.18"></path>
    <path class="cls-2" d="m139.38,191.89c11.39,5.46,15.25-3.01,15.25-3.01-2.52-1.27-4.71-1.74-6.58-1.74-5.9,0-8.67,4.76-8.67,4.76"></path>
    <path class="cls-2" d="m149.27,196.94c11.97,4.04,14.77-4.85,14.77-4.85-2.65-.95-4.88-1.16-6.75-.93-5.86.72-8.03,5.78-8.03,5.78"></path>
    <path class="cls-2" d="m161.5,199.85c12.59,1.02,13.16-8.28,13.16-8.28-2.81-.28-5.02.06-6.77.73-5.51,2.12-6.39,7.55-6.39,7.55"></path>
    <path class="cls-2" d="m154.52,189.28c3.09-11.28-5.95-14.37-5.95-14.37-3.12,12.24,5.95,14.37,5.95,14.37"></path>
    <path class="cls-2" d="m163.99,192.51c1.7-11.57-7.65-13.54-7.65-13.54-1.61,12.53,7.65,13.54,7.65,13.54"></path>
    <path class="cls-2" d="m174.7,191.99c-1.15-11.64-10.7-11.28-10.7-11.28,1.47,12.54,10.7,11.28,10.7,11.28"></path>
    <path class="cls-2" d="m129.93,185.03c10.27,7.36,15.55-.32,15.55-.32-3.04-2.25-5.73-3.02-8-3.02-4.73,0-7.55,3.34-7.55,3.34"></path>
    <path class="cls-2" d="m145.29,185.1c5-10.57-3.37-15.18-3.37-15.18-5.2,11.51,3.37,15.18,3.37,15.18"></path>
    <path class="cls-2" d="m121.8,176.64c8.83,9.03,15.37,2.39,15.37,2.39-3.29-3.49-6.47-4.51-9.07-4.51-3.74,0-6.3,2.13-6.3,2.13"></path>
    <path class="cls-2" d="m136.92,179.37c6.76-9.53-.68-15.53-.68-15.53-7.12,10.44.68,15.53.68,15.53"></path>
    <path class="cls-2" d="m115.26,166.96c7.13,10.43,14.72,5.02,14.72,5.02-3.26-4.95-7-6.17-9.89-6.17s-4.82,1.15-4.82,1.15"></path>
    <path class="cls-2" d="m129.68,172.28c8.31-8.22,2.03-15.42,2.03-15.42-8.82,9.04-2.03,15.42-2.03,15.42"></path>
    <path class="cls-2" d="m110.5,156.29c5.21,11.51,13.62,7.5,13.62,7.5-2.89-6.69-7.48-7.95-10.52-7.95-1.83,0-3.1.46-3.1.46"></path>
    <path class="cls-2" d="m123.78,164.03c9.61-6.65,4.67-14.83,4.67-14.83-10.26,7.37-4.67,14.83-4.67,14.83"></path>
    <path class="cls-2" d="m107.66,144.96c3.14,12.24,12.12,9.75,12.12,9.75-2.1-8.85-8.26-9.83-10.9-9.83-.75,0-1.22.08-1.22.08"></path>
    <path class="cls-2" d="m119.4,154.89c10.62-4.88,7.18-13.8,7.18-13.8-11.38,5.48-7.18,13.8-7.18,13.8"></path>
    <path class="cls-2" d="m117.08,145.02c-.68-11.67-10.24-11.71-10.24-11.71.96,12.59,10.24,11.71,10.24,11.71"></path>
    <path class="cls-2" d="m116.66,145.12c11.31-2.96,9.47-12.34,9.47-12.34-12.16,3.41-9.47,12.34-9.47,12.34"></path>
    <path class="cls-2" d="m116.09,135c1.36-11.61-8.05-13.31-8.05-13.31-1.24,12.57,8.05,13.31,8.05,13.31"></path>
    <path class="cls-2" d="m115.68,135.03c11.66-.95,11.46-10.5,11.46-10.5-12.56,1.25-11.46,10.5-11.46,10.5"></path>
    <path class="cls-2" d="m116.87,124.96c3.35-11.19-5.62-14.49-5.62-14.49-3.4,12.16,5.62,14.49,5.62,14.49"></path>
    <path class="cls-2" d="m116.46,124.92c11.64,1.09,13.12-8.36,13.12-8.36-.61-.05-1.19-.07-1.74-.07-10.91,0-11.37,8.42-11.37,8.42"></path>
    <path class="cls-2" d="m120.58,104.79c-5.08,5.75-1.78,11.55-1.78,11.55,11.49-6.01,7.18-15.69,7.18-15.69-2.42,1.32-4.16,2.72-5.41,4.13"></path>
    <path class="cls-2" d="m211.91,191.89c-11.39,5.46-15.25-3.01-15.25-3.01,2.52-1.27,4.71-1.74,6.58-1.74,5.9,0,8.67,4.76,8.67,4.76"></path>
    <path class="cls-2" d="m202.02,196.94c-11.97,4.04-14.77-4.85-14.77-4.85,2.65-.95,4.88-1.16,6.75-.93,5.86.72,8.03,5.78,8.03,5.78"></path>
    <path class="cls-2" d="m189.79,199.85c-12.59,1.02-13.16-8.28-13.16-8.28,2.81-.28,5.02.06,6.77.73,5.51,2.12,6.39,7.55,6.39,7.55"></path>
    <path class="cls-2" d="m196.77,189.28c-3.09-11.28,5.95-14.37,5.95-14.37,3.12,12.24-5.95,14.37-5.95,14.37"></path>
    <path class="cls-2" d="m187.31,192.51c-1.7-11.57,7.65-13.54,7.65-13.54,1.61,12.53-7.65,13.54-7.65,13.54"></path>
    <path class="cls-2" d="m176.59,191.99c1.15-11.64,10.7-11.28,10.7-11.28-1.47,12.54-10.7,11.28-10.7,11.28"></path>
    <path class="cls-2" d="m221.37,185.03c-10.27,7.36-15.55-.32-15.55-.32,3.04-2.25,5.73-3.02,8-3.02,4.73,0,7.55,3.34,7.55,3.34"></path>
    <path class="cls-2" d="m206,185.1c-5-10.57,3.37-15.18,3.37-15.18,5.2,11.51-3.37,15.18-3.37,15.18"></path>
    <path class="cls-2" d="m229.49,176.64c-8.83,9.03-15.37,2.39-15.37,2.39,3.29-3.49,6.47-4.51,9.07-4.51,3.74,0,6.3,2.13,6.3,2.13"></path>
    <path class="cls-2" d="m214.37,179.37c-6.76-9.53.68-15.53.68-15.53,7.12,10.44-.68,15.53-.68,15.53"></path>
    <path class="cls-2" d="m236.03,166.96c-7.13,10.43-14.72,5.02-14.72,5.02,3.26-4.95,7-6.17,9.89-6.17s4.83,1.15,4.83,1.15"></path>
    <path class="cls-2" d="m221.61,172.28c-8.31-8.22-2.03-15.42-2.03-15.42,8.82,9.04,2.03,15.42,2.03,15.42"></path>
    <path class="cls-2" d="m240.79,156.29c-5.21,11.51-13.62,7.5-13.62,7.5,2.89-6.69,7.48-7.95,10.52-7.95,1.83,0,3.1.46,3.1.46"></path>
    <path class="cls-2" d="m227.51,164.03c-9.61-6.65-4.67-14.83-4.67-14.83,10.26,7.37,4.67,14.83,4.67,14.83"></path>
    <path class="cls-2" d="m243.63,144.96c-3.14,12.24-12.12,9.75-12.12,9.75,2.1-8.85,8.26-9.83,10.9-9.83.75,0,1.22.08,1.22.08"></path>
    <path class="cls-2" d="m231.9,154.89c-10.62-4.88-7.18-13.8-7.18-13.8,11.38,5.48,7.18,13.8,7.18,13.8"></path>
    <path class="cls-2" d="m234.22,145.02c.68-11.67,10.24-11.71,10.24-11.71-.96,12.59-10.24,11.71-10.24,11.71"></path>
    <path class="cls-2" d="m234.63,145.12c-11.31-2.96-9.47-12.34-9.47-12.34,12.16,3.41,9.47,12.34,9.47,12.34"></path>
    <path class="cls-2" d="m235.2,135c-1.36-11.61,8.04-13.31,8.04-13.31,1.24,12.57-8.04,13.31-8.04,13.31"></path>
    <path class="cls-2" d="m235.62,135.03c-11.66-.95-11.46-10.5-11.46-10.5,12.56,1.25,11.46,10.5,11.46,10.5"></path>
    <path class="cls-2" d="m234.42,124.96c-3.35-11.19,5.62-14.49,5.62-14.49,3.4,12.16-5.62,14.49-5.62,14.49"></path>
    <path class="cls-2" d="m234.84,124.92c-11.64,1.09-13.12-8.36-13.12-8.36.61-.05,1.19-.07,1.74-.07,10.91,0,11.37,8.42,11.37,8.42"></path>
    <path class="cls-2" d="m230.71,104.79c5.08,5.75,1.78,11.55,1.78,11.55-11.5-6.01-7.18-15.69-7.18-15.69,2.42,1.32,4.16,2.72,5.41,4.13"></path>
    <path class="cls-2" d="m139.42,191.89c11.39,5.46,15.25-3.01,15.25-3.01-2.52-1.27-4.71-1.74-6.58-1.74-5.9,0-8.67,4.76-8.67,4.76"></path>
    <path class="cls-2" d="m149.31,196.94c11.97,4.04,14.77-4.85,14.77-4.85-2.65-.95-4.88-1.16-6.75-.93-5.86.72-8.03,5.78-8.03,5.78"></path>
    <path class="cls-2" d="m161.54,199.85c12.59,1.02,13.16-8.28,13.16-8.28-2.81-.28-5.02.06-6.77.73-5.51,2.12-6.39,7.55-6.39,7.55"></path>
    <path class="cls-2" d="m154.56,189.28c3.09-11.28-5.95-14.37-5.95-14.37-3.12,12.24,5.95,14.37,5.95,14.37"></path>
    <path class="cls-2" d="m164.02,192.51c1.7-11.57-7.65-13.54-7.65-13.54-1.61,12.53,7.65,13.54,7.65,13.54"></path>
    <path class="cls-2" d="m174.74,191.99c-1.15-11.64-10.7-11.28-10.7-11.28,1.47,12.54,10.7,11.28,10.7,11.28"></path>
    <path class="cls-2" d="m129.96,185.03c10.27,7.36,15.55-.32,15.55-.32-3.04-2.25-5.73-3.02-8-3.02-4.73,0-7.55,3.34-7.55,3.34"></path>
    <path class="cls-2" d="m145.33,185.1c5-10.57-3.37-15.18-3.37-15.18-5.2,11.51,3.37,15.18,3.37,15.18"></path>
    <path class="cls-2" d="m121.84,176.64c8.83,9.03,15.37,2.39,15.37,2.39-3.29-3.49-6.47-4.51-9.07-4.51-3.74,0-6.3,2.13-6.3,2.13"></path>
    <path class="cls-2" d="m136.96,179.37c6.76-9.53-.68-15.53-.68-15.53-7.12,10.44.68,15.53.68,15.53"></path>
    <path class="cls-2" d="m115.3,166.96c7.13,10.43,14.72,5.02,14.72,5.02-3.26-4.95-7-6.17-9.89-6.17s-4.82,1.15-4.82,1.15"></path>
    <path class="cls-2" d="m129.72,172.28c8.31-8.22,2.03-15.42,2.03-15.42-8.82,9.04-2.03,15.42-2.03,15.42"></path>
    <path class="cls-2" d="m110.54,156.29c5.21,11.51,13.62,7.5,13.62,7.5-2.89-6.69-7.48-7.95-10.52-7.95-1.83,0-3.1.46-3.1.46"></path>
    <path class="cls-2" d="m123.82,164.03c9.61-6.65,4.67-14.83,4.67-14.83-10.26,7.37-4.67,14.83-4.67,14.83"></path>
    <path class="cls-2" d="m107.7,144.96c3.14,12.24,12.12,9.75,12.12,9.75-2.1-8.85-8.26-9.83-10.9-9.83-.75,0-1.22.08-1.22.08"></path>
    <path class="cls-2" d="m119.44,154.89c10.62-4.88,7.18-13.8,7.18-13.8-11.38,5.48-7.18,13.8-7.18,13.8"></path>
    <path class="cls-2" d="m117.12,145.02c-.68-11.67-10.24-11.71-10.24-11.71.96,12.59,10.24,11.71,10.24,11.71"></path>
    <path class="cls-2" d="m116.7,145.12c11.31-2.96,9.47-12.34,9.47-12.34-12.16,3.41-9.47,12.34-9.47,12.34"></path>
    <path class="cls-2" d="m116.13,135c1.36-11.61-8.05-13.31-8.05-13.31-1.24,12.57,8.05,13.31,8.05,13.31"></path>
    <path class="cls-2" d="m115.71,135.03c11.66-.95,11.46-10.5,11.46-10.5-12.56,1.25-11.46,10.5-11.46,10.5"></path>
    <path class="cls-2" d="m116.91,124.96c3.35-11.19-5.62-14.49-5.62-14.49-3.4,12.16,5.62,14.49,5.62,14.49"></path>
    <path class="cls-2" d="m116.49,124.92c11.64,1.09,13.12-8.36,13.12-8.36-.61-.05-1.19-.07-1.74-.07-10.91,0-11.37,8.42-11.37,8.42"></path>
    <path class="cls-2" d="m120.62,104.79c-5.08,5.75-1.78,11.55-1.78,11.55,11.49-6.01,7.18-15.69,7.18-15.69-2.42,1.32-4.16,2.72-5.41,4.13"></path>
    <path class="cls-2" d="m211.95,191.89c-11.39,5.46-15.25-3.01-15.25-3.01,2.52-1.27,4.71-1.74,6.58-1.74,5.9,0,8.67,4.76,8.67,4.76"></path>
    <path class="cls-2" d="m202.06,196.94c-11.97,4.04-14.77-4.85-14.77-4.85,2.65-.95,4.88-1.16,6.75-.93,5.86.72,8.03,5.78,8.03,5.78"></path>
    <path class="cls-2" d="m189.83,199.85c-12.59,1.02-13.16-8.28-13.16-8.28,2.81-.28,5.02.06,6.77.73,5.51,2.12,6.39,7.55,6.39,7.55"></path>
    <path class="cls-2" d="m196.81,189.28c-3.09-11.28,5.95-14.37,5.95-14.37,3.12,12.24-5.95,14.37-5.95,14.37"></path>
    <path class="cls-2" d="m187.35,192.51c-1.7-11.57,7.65-13.54,7.65-13.54,1.61,12.53-7.65,13.54-7.65,13.54"></path>
    <path class="cls-2" d="m176.63,191.99c1.15-11.64,10.7-11.28,10.7-11.28-1.47,12.54-10.7,11.28-10.7,11.28"></path>
    <path class="cls-2" d="m221.41,185.03c-10.27,7.36-15.55-.32-15.55-.32,3.04-2.25,5.73-3.02,8-3.02,4.73,0,7.55,3.34,7.55,3.34"></path>
    <path class="cls-2" d="m206.04,185.1c-5-10.57,3.37-15.18,3.37-15.18,5.2,11.51-3.37,15.18-3.37,15.18"></path>
    <path class="cls-2" d="m229.53,176.64c-8.83,9.03-15.37,2.39-15.37,2.39,3.29-3.49,6.47-4.51,9.07-4.51,3.74,0,6.3,2.13,6.3,2.13"></path>
    <path class="cls-2" d="m214.41,179.37c-6.76-9.53.68-15.53.68-15.53,7.12,10.44-.68,15.53-.68,15.53"></path>
    <path class="cls-2" d="m236.07,166.96c-7.13,10.43-14.72,5.02-14.72,5.02,3.26-4.95,7-6.17,9.89-6.17s4.83,1.15,4.83,1.15"></path>
    <path class="cls-2" d="m221.65,172.28c-8.31-8.22-2.03-15.42-2.03-15.42,8.82,9.04,2.03,15.42,2.03,15.42"></path>
    <path class="cls-2" d="m240.83,156.29c-5.21,11.51-13.62,7.5-13.62,7.5,2.89-6.69,7.48-7.95,10.52-7.95,1.83,0,3.1.46,3.1.46"></path>
    <path class="cls-2" d="m227.55,164.03c-9.61-6.65-4.67-14.83-4.67-14.83,10.26,7.37,4.67,14.83,4.67,14.83"></path>
    <path class="cls-2" d="m243.67,144.96c-3.14,12.24-12.12,9.75-12.12,9.75,2.1-8.85,8.26-9.83,10.9-9.83.75,0,1.22.08,1.22.08"></path>
    <path class="cls-2" d="m231.94,154.89c-10.62-4.88-7.18-13.8-7.18-13.8,11.38,5.48,7.18,13.8,7.18,13.8"></path>
    <path class="cls-2" d="m234.26,145.02c.68-11.67,10.24-11.71,10.24-11.71-.96,12.59-10.24,11.71-10.24,11.71"></path>
    <path class="cls-2" d="m234.67,145.12c-11.31-2.96-9.47-12.34-9.47-12.34,12.16,3.41,9.47,12.34,9.47,12.34"></path>
    <path class="cls-2" d="m235.24,135c-1.36-11.61,8.04-13.31,8.04-13.31,1.24,12.57-8.04,13.31-8.04,13.31"></path>
    <path class="cls-2" d="m235.66,135.03c-11.66-.95-11.47-10.5-11.47-10.5,12.57,1.25,11.47,10.5,11.47,10.5"></path>
    <path class="cls-2" d="m234.46,124.96c-3.35-11.19,5.62-14.49,5.62-14.49,3.4,12.16-5.62,14.49-5.62,14.49"></path>
    <path class="cls-2" d="m234.88,124.92c-11.64,1.09-13.12-8.36-13.12-8.36.61-.05,1.19-.07,1.74-.07,10.91,0,11.37,8.42,11.37,8.42"></path>
    <path class="cls-2" d="m230.75,104.79c5.08,5.75,1.78,11.55,1.78,11.55-11.5-6.01-7.18-15.69-7.18-15.69,2.42,1.32,4.16,2.72,5.41,4.13"></path>
    <path class="cls-2" d="m177.16,75.11c-.12,0-.24-.09-.27-.2l-1.13-3.49c-.04-.11-.09-.11-.13,0l-1.13,3.49c-.04.11-.16.2-.27.2h-3.66c-.12,0-.14.05-.04.12l2.97,2.15c.09.07.14.21.11.32l-1.13,3.49c-.04.11.01.14.11.07l2.97-2.15c.09-.07.25-.07.34,0l2.97,2.16c.09.07.14.03.1-.08l-1.13-3.49c-.04-.11.01-.26.11-.32l2.96-2.15c.09-.07.08-.12-.04-.12h-3.67Z"></path>
    <path class="cls-2" d="m197.54,78.87c-.12,0-.24-.09-.27-.2l-1.13-3.49c-.04-.11-.09-.11-.13,0l-1.13,3.49c-.04.11-.16.2-.27.2h-3.67c-.12,0-.13.05-.04.12l2.97,2.15c.09.07.14.21.1.32l-1.13,3.49c-.04.11.01.14.1.07l2.97-2.15c.09-.07.25-.07.34,0l2.96,2.16c.09.07.14.03.11-.08l-1.13-3.49c-.04-.11.01-.26.11-.32l2.97-2.15c.09-.07.08-.12-.04-.12h-3.67Z"></path>
    <path class="cls-2" d="m214.69,89.05c-.12,0-.24-.09-.27-.2l-1.13-3.49c-.04-.11-.09-.11-.13,0l-1.13,3.49c-.03.11-.16.2-.27.2h-3.66c-.12,0-.14.05-.04.12l2.97,2.15c.09.07.14.21.11.32l-1.13,3.49c-.04.11.01.14.11.07l2.97-2.15c.09-.07.25-.07.34,0l2.97,2.15c.09.07.14.03.1-.07l-1.13-3.49c-.04-.11.01-.26.11-.32l2.96-2.15c.09-.07.08-.12-.04-.12h-3.67Z"></path>
    <path class="cls-2" d="m139.96,89.05c-.12,0-.24-.09-.27-.2l-1.13-3.49c-.04-.11-.09-.11-.13,0l-1.13,3.49c-.03.11-.16.2-.27.2h-3.67c-.12,0-.14.05-.04.12l2.97,2.15c.09.07.14.21.11.32l-1.13,3.49c-.04.11.01.14.11.07l2.97-2.15c.09-.07.25-.07.34,0l2.97,2.15c.09.07.14.03.1-.07l-1.13-3.49c-.04-.11.01-.26.11-.32l2.96-2.15c.09-.07.08-.12-.04-.12h-3.67Z"></path>
    <path class="cls-2" d="m156.79,78.87c-.12,0-.24-.09-.27-.2l-1.13-3.49c-.04-.11-.09-.11-.13,0l-1.13,3.49c-.03.11-.16.2-.27.2h-3.66c-.12,0-.14.05-.04.12l2.97,2.15c.09.07.14.21.11.32l-1.13,3.49c-.04.11.01.14.11.07l2.97-2.15c.09-.07.25-.07.34,0l2.97,2.16c.09.07.14.03.1-.08l-1.13-3.49c-.04-.11.01-.26.11-.32l2.96-2.15c.09-.07.08-.12-.04-.12h-3.67Z"></path>
    <path class="cls-1" d="m162.97,138.88c-.47-.06-1.43-.35-1.55-.41-.96-.25-1.59-.53-2.49-.78-.43-.19-.62-.17-1.05-.35-.09-.04-.2-.04-.3-.06-.21-.05-.43-.09-.62-.18-.46-.22-.42-.33-.91-.4-.24-.04-.46-.11-.7-.16-.27-.06-.54-.1-.84-.15-.04.15-.1.33-.15.51-.18.67-.36,1.34-.54,2-.02.06-.06.12-.09.18-1.01,1.63-2.02,3.26-3.03,4.89-.04.06-.08.13-.08.2-.02.67-.06,1.34-.04,2.01.03.81.11,1.62.16,2.43.05.67.11,1.33.13,2,.03.71.23,1.4.34,2.09.11.62.43,1.61.77,2.1.46.66.91,1.34,1.49,1.91.13.13.08.3-.08.39-.22.12-.43.19-.69.17-.53-.04-1.07-.03-1.6-.06-.46-.03-1.43-.09-1.89-.16-.34-.05-.44-.17-.43-.51,0-.35-.13-.64-.3-.93-.49-.79-.95-2.12-1.19-3.03-.11-.4-.16-.82-.21-1.24-.16-1.67-.36-3.32-.88-4.93-.25-.75-.49-1.51-.71-2.26-.15-.48-.12-.98-.03-1.47.01-.06.08-.11.09-.13-.02-.1-.04-.17-.03-.23.06-.46.12-.92.17-1.38.06-.53.07-1.05-.01-1.57-.08-.53-.16-1.06-.3-1.58-.26-.93-.55-1.85-.85-2.77-.51-1.6-1.03-3.19-1.52-4.79-.11-.36-.15-.74-.21-1.11-.09-.57-.2-1.14-.25-1.72-.06-.66-.06-1.33-.08-2-.03-.97.25-1.9.4-2.84.01-.08.03-.16.03-.24.02-.58.34-1.06.56-1.56.07-.16.18-.3.24-.45.37-.87,1.04-1.51,1.68-2.18.04-.05.09-.09.13-.14,0-.01-.01-.03-.02-.04-.05.01-.11.02-.16.04-.23.1-.47.21-.69.33-.21.11-.41.25-.61.38-.03.02-.05.07-.07.1-.34.66-.8,1.25-1.07,1.94-.01.02-.02.05-.04.06-.18.11-.21.3-.25.49-.17.72-.36,1.44-.5,2.16-.16.85-.28,1.72-.42,2.57-.01.08,0,.16,0,.23.02,1.02.05,2.03.06,3.05.01.68-.05,1.35-.14,2.03-.1.71-.18,1.43-.26,2.14-.08.68-.16,1.37-.24,2.05-.08.68-.16,1.37-.23,2.05-.07.72-.12,1.43-.17,2.15,0,.06,0,.14.04.19.64.83.87,1.83,1.2,2.8.16.48.14.95.14,1.44,0,.05-.11.58-.14.63-.19.5-.31,1.02-.53,1.4-.04.06-.44.59-.59.78-.25.44-.28.41-.62.81-.02-.05-.05-.09-.07-.14-.17-.4-.84-1.01-.97-1.42-.16-.49-.28-.5-.42-1-.02-.07-.17-.58-.19-.65v-.75c.02-.21-.02-.78,0-1,.08-1.06.74-2.42.93-2.71.03-.36-.01-.1.01-.46.04-.72.08-1.44.15-2.16.08-.81.18-1.62.32-2.42.1-.63.27-1.25.41-1.87.18-.81.34-1.62.32-2.45-.01-.38-.08-.75-.11-1.13-.04-.64-.08-1.29-.07-1.94,0-.58.06-1.16.13-1.73.08-.63.21-1.25.34-1.87.23-1.07.5-2.14.87-3.17.3-.86.68-1.69,1.24-2.42.35-.46.76-.84,1.2-1.21.25-.21.48-.43.72-.64.08-.07.18-.14.28-.18.62-.25,1.23-.49,1.85-.73.11-.04.24-.05.36-.06.43-.03.86-.05,1.29-.07.41-.02.83-.07,1.24-.06.71.02,1.41.07,2.12.12.21.01.42.03.64.03.5-.01.99.09,1.48.19.61.13,1.24.22,1.85.35.58.12,1.16.29,1.74.42.7.14,1.4.26,2.11.39.67.12,1.33.26,2,.36.42.06.84.08,1.26.09.53.01,1.07.03,1.6-.03.63-.08,1.25-.25,1.87-.38.67-.14,1.35-.26,2.02-.43.71-.18,1.41-.41,2.11-.62,1.59-.47,3.17-.97,4.76-1.42.86-.24,1.74-.43,2.62-.64,1.42-.34,2.83-.68,4.26-1.01.37-.08.75-.1,1.12-.15.46-.06.92-.12,1.38-.17.37-.05.73-.09,1.1-.14.3-.04.59-.08.89-.11.07-.01.15-.01.22-.01,1.18,0,2.36-.01,3.53,0,.37,0,.74.08,1.1.13.31.04.62.06.91.14.86.23,1.72.48,2.57.74.61.18,1.21.4,1.81.58.35.11.72.14,1.09.06.3-.06.52-.27.74-.47.43-.37.83-.77,1.26-1.13.2-.16.44-.29.68-.4.33-.14.66-.04.98.08.72.26,1.38.65,2.02,1.07.12.08.21.09.35.01.6-.38,1.15-.82,1.69-1.29.6-.52,1.1-1.12,1.57-1.75.01-.02.02-.04.04-.05.06-.03.12-.06.18-.1.02.07.08.16.06.22-.29,1.21-.83,2.3-1.66,3.23-.09.1-.2.17-.3.26,0,.02.01.03.02.04.18-.03.36-.05.53-.09.7-.16,1.35-.42,1.91-.87.45-.37.73-.87.95-1.4.22-.55.41-1.11.61-1.67.04-.12.09-.23.15-.34.03-.05.1-.11.15-.11.05,0,.11.07.13.13.05.15.09.3.1.45.07,1.1-.16,2.13-.69,3.09-.3.53-.7.99-1.15,1.39-.64.57-1.36,1.03-2.13,1.4-.03.01-.05.03-.09.05.15.16.31.29.42.45.24.35.46.71.69,1.06.33.49.65.97.99,1.46.59.84,1.14,1.7,1.66,2.58.34.57.78,1.08,1.15,1.63.26.38.55.76.64,1.23.05.27.01.56.04.84.05.42-.18.75-.33,1.11-.04.08-.09.16-.11.24-.09.37-.36.57-.69.73-.18.09-.35.18-.51.29-.22.16-.47.15-.72.2-.15.03-.3.03-.44.06-.29.07-.53-.08-.8-.14-.27-.06-.54-.16-.82-.23-.1-.03-.2-.03-.3-.04-.65-.06-1.26.14-1.88.29-1.04.25-2.07.51-3.11.77-.07.02-.15.04-.22.07-.99.46-1.97.93-2.95,1.39-.07.04-.15.08-.21.13-.71.57-1.42,1.15-2.13,1.72-.05.04-.11.1-.15.16-.42.6-.83,1.19-1.25,1.79-.04.06-.08.14-.1.21-.13.44-.27.88-.39,1.33-.19.66-.41,1.31-.67,1.95-.33.79-.64,1.6-.96,2.39-.04.09-.08.17-.15.24-.26.3-.53.58-.78.89-.25.31-.53.55-.88.72-.12.06-.23.12-.33.2-.71.5-1.5.8-2.34.99-.72.16-1.42.37-2.13.56-.1.03-.15.08-.18.18-.33,1.07-.68,2.14-.99,3.22-.17.6-.27,1.21-.42,1.82-.07.3-.15.6-.27.88-.28.69-.28,1.41-.25,2.13.01.23.03.47.02.7-.03.5.07.99.17,1.47.05.24.11.48.17.72.02.06.05.13.1.17.5.49.99.97,1.49,1.45.27.27.4.61.48.96.03.12-.09.27-.21.3-.22.05-.43.1-.61.25-.06.05-.16.06-.25.06-.87-.02-2.78-.06-3.65-.08-.1,0-.15-.05-.22-.12-.33-.34-.39-.8-.51-1.23-.09-.35-.21-.68-.47-.94-.04-.04-.06-.1-.07-.15-.05-.69-.09-1.39-.13-2.08-.06-1.09-.11-2.17-.18-3.26-.05-.86-.17-1.73-.18-2.59-.01-.88.06-1.77.1-2.66.02-.43.03-.86.05-1.29,0-.09-.03-.12-.11-.16-.54-.3-1.13-.39-1.72-.47-.19-.03-.39-.03-.56-.1-.57-.24-1.19-.31-1.79-.44-1.15-.26-1.26-.5-2.42-.74-1.28-.26-2.56-.51-3.84-.76-.58-.12-1.15-.24-1.73-.35-.56-.11-1.13-.24-1.7-.3-.24-.03-.7-.15-.95-.1-.03,0-1.15-.34-1.52-.34"></path>
    <g>
      <path class="cls-1" d="m106.86,277.06c-1.65,0-2.77-.86-2.77-1.78,0-.32.04-.71.11-1.14l1.16-8.49c.15-.97.28-1.22.86-1.22.28,0,.41.04.58.15l-.75,5.67c.45-1.1,1.16-1.83,2.71-1.83,1.93,0,2.79,1.33,2.79,3.44,0,3.16-1.76,5.2-4.68,5.2Zm1.38-7.63c-.92,0-1.7.71-2.36,2.04l-.47,3.63c-.07.56.56,1.03,1.87,1.03,1.98,0,3.05-2.17,3.05-3.95s-.58-2.75-2.08-2.75Z"></path>
      <path class="cls-1" d="m112.39,280.78c-1.01,0-1.18-.3-1.18-.69,0-.15.04-.32.19-.45.19.02.39.02.56.02.97,0,1.46-.22,1.78-.45.58-.43.73-1.1,1.27-1.96l-1.25-7.76-.97.02c-.11-.09-.15-.19-.15-.34,0-.45.3-.69,1.35-.69.82,0,.92.17,1.03.8l1.07,6.66c2.73-3.46,3.18-3.96,3.18-5.67,0-.71-.06-1.33-.13-1.8.13-.09.32-.13.54-.13.67,0,.88.52.88,1.51,0,2.19-.41,2.88-3.67,6.64-.69.8-1.25,1.76-1.74,2.69-.62,1.16-1.55,1.61-2.77,1.61Z"></path>
      <path class="cls-1" d="m133.33,266.88h-2.77l-1.22,9.99c-.13.04-.39.11-.69.11-.52,0-.67-.17-.67-.58,0-.13.02-.34.04-.56.07-.6.32-2.54.47-3.76.24-1.76.39-2.94.71-5.2l-3.74-.04c-.06-.11-.09-.19-.09-.37,0-.3.28-.6,1.12-.6l7.13-.02.77-.02c.06.11.11.26.11.43,0,.45-.39.62-1.18.62Z"></path>
      <path class="cls-1" d="m142.58,272.79c-.3.04-.67.09-.97.11.28.43.39.94.39,1.53,0,1.4-1.63,2.66-4.73,2.66-2.06,0-3.4-.84-3.4-2.62s1.2-3.29,3.27-3.42c-1.14-.07-1.87-.75-1.87-1.96,0-2,1.81-3.29,4-3.29,1.29,0,1.89.22,1.89.77,0,.26-.09.39-.26.58-.43-.15-1.22-.26-1.85-.26-1.4,0-2.47.58-2.47,2.09,0,1.12.88,1.55,2.36,1.55h.15c.09.13.13.37.13.47,0,.49-.19.64-1.07.64-1.87,0-2.99.95-2.99,2.47,0,1.31.88,1.91,2.45,1.91,2.3,0,3.22-.97,3.22-1.8,0-.92-.37-1.55-.37-1.87,0-.21.15-.37.39-.41.73-.09,1.98-.26,2.64-.39.11.13.17.39.17.56,0,.39-.36.56-1.09.67Z"></path>
      <path class="cls-1" d="m152.28,277.04c-.28,0-.52-.17-.62-.41l-2.09-4.25c-.15.02-.41.02-.51.02-.62,0-1.03-.04-1.65-.13l-.6,4.62c-.13.04-.36.09-.67.09-.49,0-.64-.17-.64-.58,0-.28.21-2.17.49-4.32.24-1.74.47-3.46.71-5.2l-1.4-.04c-.06-.09-.09-.19-.09-.3,0-.45.34-.67,1.05-.67h3.98c1.74,0,3.57.64,3.57,2.77,0,1.96-1.12,3.01-2.94,3.55l1.96,3.83.92-.09c.11.11.15.24.15.39,0,.45-.45.73-1.61.73Zm-2.32-10.19c-.62,0-1.29.02-1.91.02l-.56,4.53c.65.07,1.27.11,1.91.11,1.96,0,3.07-.9,3.07-2.64,0-1.53-1.25-2.02-2.52-2.02Z"></path>
      <path class="cls-1" d="m168.73,267.5c-.8-.35-1.89-.56-2.97-.56-3.42,0-4.77,2.23-4.77,5.61,0,2.34,1.1,3.48,3.33,3.48.92,0,1.89-.13,2.66-.47l.3-2.17h-2.19c-.06-.11-.09-.22-.09-.37,0-.45.43-.71,2.06-.71,1.48,0,1.63.19,1.59.6l-.3,2.58c-.13.92-2.04,1.59-4.43,1.59-2.69,0-4.32-1.42-4.32-4.32,0-4.25,2.04-6.96,6.34-6.96,1.74,0,3.14.45,3.14,1.05,0,.28-.13.52-.36.65Z"></path>
      <path class="cls-1" d="m170.74,274.59l1.2-8.94c.13-.97.26-1.22.84-1.22.28,0,.45.04.62.15l-1.07,8.04c-.19,1.42-.37,2.58-.37,2.92,0,.39.09.45.62.45.19,0,.65-.09.84-.15.11.09.17.28.17.47,0,.39-.49.71-1.78.71-.8,0-1.2-.26-1.2-1.1,0-.3.04-.75.13-1.33Z"></path>
      <path class="cls-1" d="m178.47,277.06c-2.21,0-3.33-1.2-3.33-3.63,0-3.01,1.87-5.09,4.56-5.09,2.47,0,3.35,1.4,3.35,3.52,0,3.05-1.65,5.2-4.58,5.2Zm.95-7.76c-1.89,0-3.03,1.93-3.03,3.85,0,2.02.69,2.92,2.43,2.92,1.96,0,3.01-2.02,3.01-3.89s-.69-2.88-2.41-2.88Z"></path>
      <path class="cls-1" d="m187.61,277.06c-1.65,0-2.77-.86-2.77-1.78,0-.32.04-.71.11-1.14l1.16-8.49c.15-.97.28-1.22.86-1.22.28,0,.41.04.58.15l-.75,5.67c.45-1.1,1.16-1.83,2.71-1.83,1.93,0,2.79,1.33,2.79,3.44,0,3.16-1.76,5.2-4.68,5.2Zm1.38-7.63c-.92,0-1.7.71-2.36,2.04l-.47,3.63c-.07.56.56,1.03,1.87,1.03,1.98,0,3.05-2.17,3.05-3.95s-.58-2.75-2.08-2.75Z"></path>
      <path class="cls-1" d="m199.57,275.26c-.47,1.14-1.53,1.78-3.05,1.78-1.61,0-2.6-.94-2.6-3.16,0-3.67,2.04-5.56,4.3-5.56,1.22,0,1.81.3,2,1.01.11-.75.26-.99.77-.99.28,0,.43.07.62.22l-.69,4.99c-.15,1.07-.24,1.63-.24,2,0,.39.09.45.62.45.19,0,.65-.09.84-.15.11.09.19.28.19.47,0,.39-.49.71-1.78.71-.71,0-1.07-.26-1.07-1.03,0-.22.02-.41.09-.73Zm-1.14-5.99c-2,0-3.18,1.66-3.18,4.19,0,1.8.45,2.66,1.85,2.66.75,0,1.81-.51,2.36-1.38l.71-5.09c-.47-.26-1.07-.39-1.74-.39Z"></path>
      <path class="cls-1" d="m203.9,274.59l1.2-8.94c.13-.97.26-1.22.84-1.22.28,0,.45.04.62.15l-1.07,8.04c-.19,1.42-.37,2.58-.37,2.92,0,.39.09.45.62.45.19,0,.65-.09.84-.15.11.09.17.28.17.47,0,.39-.49.71-1.78.71-.79,0-1.2-.26-1.2-1.1,0-.3.04-.75.13-1.33Z"></path>
      <path class="cls-1" d="m219.8,266.9l-4.47-.02-.49,3.98h4.21c.04.11.09.24.09.39,0,.39-.28.62-.99.62l-3.44-.02-.62,5.03c-.13.04-.39.11-.69.11-.49,0-.64-.17-.64-.58,0-.13.02-.34.04-.56.07-.41.37-2.84.47-3.76.19-1.61.47-3.48.71-5.2l-1.4-.02c-.07-.13-.09-.21-.09-.39,0-.3.28-.6,1.09-.6l6.56-.02.77-.02c.07.11.11.26.11.43,0,.45-.36.64-1.22.64Z"></path>
      <path class="cls-1" d="m223.81,277.06c-2.21,0-3.33-1.2-3.33-3.63,0-3.01,1.87-5.09,4.55-5.09,2.47,0,3.35,1.4,3.35,3.52,0,3.05-1.65,5.2-4.58,5.2Zm.95-7.76c-1.89,0-3.03,1.93-3.03,3.85,0,2.02.69,2.92,2.43,2.92,1.96,0,3.01-2.02,3.01-3.89s-.69-2.88-2.4-2.88Z"></path>
      <path class="cls-1" d="m233.38,277.06c-2.21,0-3.33-1.2-3.33-3.63,0-3.01,1.87-5.09,4.55-5.09,2.47,0,3.35,1.4,3.35,3.52,0,3.05-1.65,5.2-4.58,5.2Zm.95-7.76c-1.89,0-3.03,1.93-3.03,3.85,0,2.02.69,2.92,2.43,2.92,1.96,0,3.01-2.02,3.01-3.89s-.69-2.88-2.4-2.88Z"></path>
      <path class="cls-1" d="m246.21,277.02c-.71,0-1.03-.26-1.03-1.03,0-.22.09-.73.13-1.03-.28,1.4-1.57,2.08-3.07,2.08-1.63,0-2.62-.94-2.62-3.16,0-3.65,2.04-5.56,4.3-5.56,1.16,0,1.74.28,1.98.9l.47-3.57c.13-.97.26-1.22.84-1.22.26,0,.45.04.6.15l-1.07,8.04c-.17,1.42-.34,2.58-.34,2.92,0,.39.09.45.6.45.22,0,.67-.09.86-.15.11.09.17.28.17.47,0,.39-.52.71-1.81.71Zm-2.08-7.74c-2,0-3.18,1.65-3.18,4.17,0,1.8.45,2.66,1.85,2.66.73,0,1.78-.51,2.34-1.35l.69-5.14c-.47-.22-1.05-.34-1.7-.34Z"></path>
    </g>
  </g>
</svg>
